%TF.GenerationSoftware,KiCad,Pcbnew,8.0.4*%
%TF.CreationDate,2024-09-15T23:07:02-03:00*%
%TF.ProjectId,panelized_TB67,70616e65-6c69-47a6-9564-5f544236372e,rev?*%
%TF.SameCoordinates,Original*%
%TF.FileFunction,Soldermask,Bot*%
%TF.FilePolarity,Negative*%
%FSLAX46Y46*%
G04 Gerber Fmt 4.6, Leading zero omitted, Abs format (unit mm)*
G04 Created by KiCad (PCBNEW 8.0.4) date 2024-09-15 23:07:02*
%MOMM*%
%LPD*%
G01*
G04 APERTURE LIST*
%ADD10C,0.500000*%
%ADD11C,2.000000*%
%ADD12C,1.600000*%
%ADD13R,2.200000X2.000000*%
%ADD14O,2.200000X2.000000*%
G04 APERTURE END LIST*
D10*
%TO.C,KiKit_MB_5_2*%
X150300000Y-41483834D03*
%TD*%
%TO.C,KiKit_MB_19_6*%
X140016666Y-81750500D03*
%TD*%
%TO.C,KiKit_MB_20_4*%
X138350000Y-101150500D03*
%TD*%
%TO.C,KiKit_MB_21_4*%
X150300000Y-86783833D03*
%TD*%
%TO.C,KiKit_MB_15_7*%
X161150000Y-58100500D03*
%TD*%
%TO.C,KiKit_MB_17_2*%
X146700000Y-87783833D03*
%TD*%
%TO.C,KiKit_MB_22_2*%
X150300000Y-95117166D03*
%TD*%
%TO.C,KiKit_MB_20_2*%
X140016666Y-101150500D03*
%TD*%
%TO.C,KiKit_MB_7_4*%
X158650000Y-34450500D03*
%TD*%
%TO.C,KiKit_MB_23_3*%
X157816666Y-81750500D03*
%TD*%
%TO.C,KiKit_MB_20_7*%
X135850000Y-101150500D03*
%TD*%
%TO.C,KiKit_MB_19_2*%
X136683334Y-81750500D03*
%TD*%
%TO.C,KiKit_MB_7_6*%
X160316666Y-34450500D03*
%TD*%
%TO.C,KiKit_MB_19_3*%
X137516667Y-81750500D03*
%TD*%
%TO.C,KiKit_MB_10_3*%
X146700000Y-71467166D03*
%TD*%
%TO.C,KiKit_MB_20_6*%
X136683334Y-101150500D03*
%TD*%
%TO.C,KiKit_MB_3_6*%
X140016666Y-34450500D03*
%TD*%
%TO.C,KiKit_MB_16_5*%
X157816666Y-77500500D03*
%TD*%
%TO.C,KiKit_MB_4_7*%
X135850000Y-53850500D03*
%TD*%
%TO.C,KiKit_MB_22_3*%
X150300000Y-94117166D03*
%TD*%
%TO.C,KiKit_MB_5_1*%
X150300000Y-42483834D03*
%TD*%
%TO.C,KiKit_MB_3_1*%
X135850000Y-34450500D03*
%TD*%
%TO.C,KiKit_MB_11_5*%
X139183333Y-58100500D03*
%TD*%
%TO.C,KiKit_MB_2_3*%
X146700000Y-47817166D03*
%TD*%
%TO.C,KiKit_MB_4_2*%
X140016666Y-53850500D03*
%TD*%
%TO.C,KiKit_MB_7_2*%
X156983333Y-34450500D03*
%TD*%
D11*
%TO.C,KiKit_TO_1*%
X130200000Y-20000000D03*
%TD*%
D10*
%TO.C,KiKit_MB_24_7*%
X156150000Y-101150500D03*
%TD*%
%TO.C,KiKit_MB_14_1*%
X150300000Y-72467166D03*
%TD*%
%TO.C,KiKit_MB_11_3*%
X137516667Y-58100500D03*
%TD*%
%TO.C,KiKit_MB_21_1*%
X150300000Y-89783833D03*
%TD*%
%TO.C,KiKit_MB_8_4*%
X158650000Y-53850500D03*
%TD*%
%TO.C,KiKit_MB_7_7*%
X161150000Y-34450500D03*
%TD*%
%TO.C,KiKit_MB_23_7*%
X161150000Y-81750500D03*
%TD*%
%TO.C,KiKit_MB_21_2*%
X150300000Y-88783833D03*
%TD*%
%TO.C,KiKit_MB_12_5*%
X137516667Y-77500500D03*
%TD*%
%TO.C,KiKit_MB_3_2*%
X136683334Y-34450500D03*
%TD*%
%TO.C,KiKit_MB_4_5*%
X137516667Y-53850500D03*
%TD*%
%TO.C,KiKit_MB_22_1*%
X150300000Y-96117166D03*
%TD*%
%TO.C,KiKit_MB_13_2*%
X150300000Y-65133833D03*
%TD*%
%TO.C,KiKit_MB_3_3*%
X137516667Y-34450500D03*
%TD*%
D12*
%TO.C,C3*%
X161200000Y-52350500D03*
X156200000Y-52350500D03*
%TD*%
D10*
%TO.C,KiKit_MB_24_6*%
X156983333Y-101150500D03*
%TD*%
%TO.C,KiKit_MB_9_2*%
X146700000Y-64133833D03*
%TD*%
%TO.C,KiKit_MB_18_4*%
X146700000Y-96117166D03*
%TD*%
%TO.C,KiKit_MB_10_2*%
X146700000Y-70467166D03*
%TD*%
%TO.C,KiKit_MB_23_4*%
X158650000Y-81750500D03*
%TD*%
%TO.C,KiKit_MB_8_3*%
X159483333Y-53850500D03*
%TD*%
%TO.C,KiKit_MB_9_1*%
X146700000Y-63133833D03*
%TD*%
%TO.C,KiKit_MB_21_3*%
X150300000Y-87783833D03*
%TD*%
%TO.C,KiKit_MB_6_1*%
X150300000Y-48817166D03*
%TD*%
%TO.C,KiKit_MB_12_2*%
X140016666Y-77500500D03*
%TD*%
%TO.C,KiKit_MB_18_1*%
X146700000Y-93117166D03*
%TD*%
%TO.C,KiKit_MB_15_1*%
X156150000Y-58100500D03*
%TD*%
%TO.C,KiKit_MB_24_1*%
X161150000Y-101150500D03*
%TD*%
%TO.C,KiKit_MB_1_4*%
X146700000Y-42483834D03*
%TD*%
%TO.C,KiKit_MB_23_6*%
X160316666Y-81750500D03*
%TD*%
D11*
%TO.C,KiKit_TO_3*%
X130200000Y-115601500D03*
%TD*%
%TO.C,KiKit_TO_4*%
X166800000Y-115601500D03*
%TD*%
D10*
%TO.C,KiKit_MB_4_3*%
X139183333Y-53850500D03*
%TD*%
%TO.C,KiKit_MB_13_1*%
X150300000Y-66133833D03*
%TD*%
%TO.C,KiKit_MB_14_3*%
X150300000Y-70467166D03*
%TD*%
%TO.C,KiKit_MB_7_5*%
X159483333Y-34450500D03*
%TD*%
%TO.C,KiKit_MB_13_3*%
X150300000Y-64133833D03*
%TD*%
%TO.C,KiKit_MB_17_3*%
X146700000Y-88783833D03*
%TD*%
%TO.C,KiKit_MB_24_5*%
X157816666Y-101150500D03*
%TD*%
%TO.C,KiKit_MB_24_2*%
X160316666Y-101150500D03*
%TD*%
%TO.C,KiKit_MB_5_3*%
X150300000Y-40483834D03*
%TD*%
%TO.C,KiKit_MB_16_7*%
X156150000Y-77500500D03*
%TD*%
%TO.C,KiKit_MB_18_2*%
X146700000Y-94117166D03*
%TD*%
%TO.C,KiKit_MB_20_1*%
X140850000Y-101150500D03*
%TD*%
%TO.C,KiKit_MB_11_1*%
X135850000Y-58100500D03*
%TD*%
%TO.C,KiKit_MB_17_1*%
X146700000Y-86783833D03*
%TD*%
D12*
%TO.C,C3*%
X140900000Y-52350500D03*
X135900000Y-52350500D03*
%TD*%
D10*
%TO.C,KiKit_MB_20_3*%
X139183333Y-101150500D03*
%TD*%
%TO.C,KiKit_MB_1_2*%
X146700000Y-40483834D03*
%TD*%
%TO.C,KiKit_MB_24_4*%
X158650000Y-101150500D03*
%TD*%
%TO.C,KiKit_MB_18_3*%
X146700000Y-95117166D03*
%TD*%
%TO.C,KiKit_MB_8_2*%
X160316666Y-53850500D03*
%TD*%
%TO.C,KiKit_MB_3_7*%
X140850000Y-34450500D03*
%TD*%
%TO.C,KiKit_MB_12_1*%
X140850000Y-77500500D03*
%TD*%
%TO.C,KiKit_MB_6_3*%
X150300000Y-46817166D03*
%TD*%
%TO.C,KiKit_MB_11_2*%
X136683334Y-58100500D03*
%TD*%
D11*
%TO.C,KiKit_TO_2*%
X166800000Y-20000000D03*
%TD*%
D10*
%TO.C,KiKit_MB_9_3*%
X146700000Y-65133833D03*
%TD*%
%TO.C,KiKit_MB_10_4*%
X146700000Y-72467166D03*
%TD*%
%TO.C,KiKit_MB_15_4*%
X158650000Y-58100500D03*
%TD*%
%TO.C,KiKit_MB_16_3*%
X159483333Y-77500500D03*
%TD*%
%TO.C,KiKit_MB_15_2*%
X156983333Y-58100500D03*
%TD*%
%TO.C,KiKit_MB_16_1*%
X161150000Y-77500500D03*
%TD*%
%TO.C,KiKit_MB_6_4*%
X150300000Y-45817166D03*
%TD*%
%TO.C,KiKit_MB_14_4*%
X150300000Y-69467166D03*
%TD*%
%TO.C,KiKit_MB_1_1*%
X146700000Y-39483834D03*
%TD*%
%TO.C,KiKit_MB_12_6*%
X136683334Y-77500500D03*
%TD*%
%TO.C,KiKit_MB_16_2*%
X160316666Y-77500500D03*
%TD*%
%TO.C,KiKit_MB_12_7*%
X135850000Y-77500500D03*
%TD*%
%TO.C,KiKit_MB_17_4*%
X146700000Y-89783833D03*
%TD*%
%TO.C,KiKit_MB_19_7*%
X140850000Y-81750500D03*
%TD*%
%TO.C,KiKit_MB_3_4*%
X138350000Y-34450500D03*
%TD*%
%TO.C,KiKit_MB_11_7*%
X140850000Y-58100500D03*
%TD*%
%TO.C,KiKit_MB_13_4*%
X150300000Y-63133833D03*
%TD*%
%TO.C,KiKit_MB_24_3*%
X159483333Y-101150500D03*
%TD*%
%TO.C,KiKit_MB_12_4*%
X138350000Y-77500500D03*
%TD*%
%TO.C,KiKit_MB_2_1*%
X146700000Y-45817166D03*
%TD*%
%TO.C,KiKit_MB_15_6*%
X160316666Y-58100500D03*
%TD*%
%TO.C,KiKit_MB_15_5*%
X159483333Y-58100500D03*
%TD*%
%TO.C,KiKit_MB_11_6*%
X140016666Y-58100500D03*
%TD*%
%TO.C,KiKit_MB_2_2*%
X146700000Y-46817166D03*
%TD*%
%TO.C,KiKit_MB_19_1*%
X135850000Y-81750500D03*
%TD*%
%TO.C,KiKit_MB_19_5*%
X139183333Y-81750500D03*
%TD*%
%TO.C,KiKit_MB_22_4*%
X150300000Y-93117166D03*
%TD*%
%TO.C,KiKit_MB_11_4*%
X138350000Y-58100500D03*
%TD*%
%TO.C,KiKit_MB_8_7*%
X156150000Y-53850500D03*
%TD*%
%TO.C,KiKit_MB_6_2*%
X150300000Y-47817166D03*
%TD*%
%TO.C,KiKit_MB_19_4*%
X138350000Y-81750500D03*
%TD*%
%TO.C,KiKit_MB_23_2*%
X156983333Y-81750500D03*
%TD*%
%TO.C,KiKit_MB_12_3*%
X139183333Y-77500500D03*
%TD*%
%TO.C,KiKit_MB_1_3*%
X146700000Y-41483834D03*
%TD*%
%TO.C,KiKit_MB_23_1*%
X156150000Y-81750500D03*
%TD*%
%TO.C,KiKit_MB_16_4*%
X158650000Y-77500500D03*
%TD*%
D12*
%TO.C,C3*%
X140900000Y-99650500D03*
X135900000Y-99650500D03*
%TD*%
D10*
%TO.C,KiKit_MB_8_6*%
X156983333Y-53850500D03*
%TD*%
%TO.C,KiKit_MB_16_6*%
X156983333Y-77500500D03*
%TD*%
%TO.C,KiKit_MB_20_5*%
X137516667Y-101150500D03*
%TD*%
%TO.C,KiKit_MB_8_5*%
X157816666Y-53850500D03*
%TD*%
%TO.C,KiKit_MB_10_1*%
X146700000Y-69467166D03*
%TD*%
%TO.C,KiKit_MB_15_3*%
X157816666Y-58100500D03*
%TD*%
%TO.C,KiKit_MB_8_1*%
X161150000Y-53850500D03*
%TD*%
%TO.C,KiKit_MB_3_5*%
X139183333Y-34450500D03*
%TD*%
%TO.C,KiKit_MB_9_4*%
X146700000Y-66133833D03*
%TD*%
%TO.C,KiKit_MB_7_3*%
X157816666Y-34450500D03*
%TD*%
%TO.C,KiKit_MB_4_6*%
X136683334Y-53850500D03*
%TD*%
%TO.C,KiKit_MB_7_1*%
X156150000Y-34450500D03*
%TD*%
D12*
%TO.C,C3*%
X161200000Y-76000500D03*
X156200000Y-76000500D03*
%TD*%
D10*
%TO.C,KiKit_MB_4_4*%
X138350000Y-53850500D03*
%TD*%
%TO.C,KiKit_MB_4_1*%
X140850000Y-53850500D03*
%TD*%
%TO.C,KiKit_MB_2_4*%
X146700000Y-48817166D03*
%TD*%
D12*
%TO.C,C3*%
X161200000Y-99650500D03*
X156200000Y-99650500D03*
%TD*%
D10*
%TO.C,KiKit_MB_5_4*%
X150300000Y-39483834D03*
%TD*%
%TO.C,KiKit_MB_23_5*%
X159483333Y-81750500D03*
%TD*%
%TO.C,KiKit_MB_14_2*%
X150300000Y-71467166D03*
%TD*%
D12*
%TO.C,C3*%
X140900000Y-76000500D03*
X135900000Y-76000500D03*
%TD*%
D13*
%TO.C,J2*%
X145090000Y-36510500D03*
D14*
X145090000Y-39050500D03*
X145090000Y-41590500D03*
X145090000Y-44130500D03*
X145090000Y-46670500D03*
X145090000Y-49210500D03*
X145090000Y-51750500D03*
%TD*%
D13*
%TO.C,J1*%
X131700000Y-36510500D03*
D14*
X131700000Y-39050500D03*
X131700000Y-41590500D03*
X131700000Y-44130500D03*
X131700000Y-46670500D03*
X131700000Y-49210500D03*
X131700000Y-51750500D03*
%TD*%
D13*
%TO.C,J1*%
X152000000Y-60160500D03*
D14*
X152000000Y-62700500D03*
X152000000Y-65240500D03*
X152000000Y-67780500D03*
X152000000Y-70320500D03*
X152000000Y-72860500D03*
X152000000Y-75400500D03*
%TD*%
D13*
%TO.C,J1*%
X131700000Y-83810500D03*
D14*
X131700000Y-86350500D03*
X131700000Y-88890500D03*
X131700000Y-91430500D03*
X131700000Y-93970500D03*
X131700000Y-96510500D03*
X131700000Y-99050500D03*
%TD*%
D13*
%TO.C,J2*%
X165390000Y-83810500D03*
D14*
X165390000Y-86350500D03*
X165390000Y-88890500D03*
X165390000Y-91430500D03*
X165390000Y-93970500D03*
X165390000Y-96510500D03*
X165390000Y-99050500D03*
%TD*%
D13*
%TO.C,J2*%
X145090000Y-60160500D03*
D14*
X145090000Y-62700500D03*
X145090000Y-65240500D03*
X145090000Y-67780500D03*
X145090000Y-70320500D03*
X145090000Y-72860500D03*
X145090000Y-75400500D03*
%TD*%
D13*
%TO.C,J2*%
X165390000Y-36510500D03*
D14*
X165390000Y-39050500D03*
X165390000Y-41590500D03*
X165390000Y-44130500D03*
X165390000Y-46670500D03*
X165390000Y-49210500D03*
X165390000Y-51750500D03*
%TD*%
D13*
%TO.C,J2*%
X165390000Y-60160500D03*
D14*
X165390000Y-62700500D03*
X165390000Y-65240500D03*
X165390000Y-67780500D03*
X165390000Y-70320500D03*
X165390000Y-72860500D03*
X165390000Y-75400500D03*
%TD*%
D13*
%TO.C,J1*%
X152000000Y-83810500D03*
D14*
X152000000Y-86350500D03*
X152000000Y-88890500D03*
X152000000Y-91430500D03*
X152000000Y-93970500D03*
X152000000Y-96510500D03*
X152000000Y-99050500D03*
%TD*%
D13*
%TO.C,J2*%
X145090000Y-83810500D03*
D14*
X145090000Y-86350500D03*
X145090000Y-88890500D03*
X145090000Y-91430500D03*
X145090000Y-93970500D03*
X145090000Y-96510500D03*
X145090000Y-99050500D03*
%TD*%
D13*
%TO.C,J1*%
X131700000Y-60160500D03*
D14*
X131700000Y-62700500D03*
X131700000Y-65240500D03*
X131700000Y-67780500D03*
X131700000Y-70320500D03*
X131700000Y-72860500D03*
X131700000Y-75400500D03*
%TD*%
D13*
%TO.C,J1*%
X152000000Y-36510500D03*
D14*
X152000000Y-39050500D03*
X152000000Y-41590500D03*
X152000000Y-44130500D03*
X152000000Y-46670500D03*
X152000000Y-49210500D03*
X152000000Y-51750500D03*
%TD*%
M02*
