%TF.GenerationSoftware,KiCad,Pcbnew,8.0.4*%
%TF.CreationDate,2024-09-15T23:07:02-03:00*%
%TF.ProjectId,panelized_TB67,70616e65-6c69-47a6-9564-5f544236372e,rev?*%
%TF.SameCoordinates,Original*%
%TF.FileFunction,Paste,Top*%
%TF.FilePolarity,Positive*%
%FSLAX46Y46*%
G04 Gerber Fmt 4.6, Leading zero omitted, Abs format (unit mm)*
G04 Created by KiCad (PCBNEW 8.0.4) date 2024-09-15 23:07:02*
%MOMM*%
%LPD*%
G01*
G04 APERTURE LIST*
G04 Aperture macros list*
%AMRoundRect*
0 Rectangle with rounded corners*
0 $1 Rounding radius*
0 $2 $3 $4 $5 $6 $7 $8 $9 X,Y pos of 4 corners*
0 Add a 4 corners polygon primitive as box body*
4,1,4,$2,$3,$4,$5,$6,$7,$8,$9,$2,$3,0*
0 Add four circle primitives for the rounded corners*
1,1,$1+$1,$2,$3*
1,1,$1+$1,$4,$5*
1,1,$1+$1,$6,$7*
1,1,$1+$1,$8,$9*
0 Add four rect primitives between the rounded corners*
20,1,$1+$1,$2,$3,$4,$5,0*
20,1,$1+$1,$4,$5,$6,$7,0*
20,1,$1+$1,$6,$7,$8,$9,0*
20,1,$1+$1,$8,$9,$2,$3,0*%
G04 Aperture macros list end*
%ADD10C,0.010000*%
%ADD11RoundRect,0.250000X0.475000X-0.250000X0.475000X0.250000X-0.475000X0.250000X-0.475000X-0.250000X0*%
%ADD12RoundRect,0.040600X-0.944400X-0.249400X0.944400X-0.249400X0.944400X0.249400X-0.944400X0.249400X0*%
G04 APERTURE END LIST*
D10*
%TO.C,IC1*%
X157280000Y-71865500D02*
X156560000Y-71865500D01*
X156560000Y-71145500D01*
X157280000Y-71145500D01*
X157280000Y-71865500D01*
G36*
X157280000Y-71865500D02*
G01*
X156560000Y-71865500D01*
X156560000Y-71145500D01*
X157280000Y-71145500D01*
X157280000Y-71865500D01*
G37*
X157280000Y-72865500D02*
X156560000Y-72865500D01*
X156560000Y-72145500D01*
X157280000Y-72145500D01*
X157280000Y-72865500D01*
G36*
X157280000Y-72865500D02*
G01*
X156560000Y-72865500D01*
X156560000Y-72145500D01*
X157280000Y-72145500D01*
X157280000Y-72865500D01*
G37*
X158280000Y-71865500D02*
X157560000Y-71865500D01*
X157560000Y-71145500D01*
X158280000Y-71145500D01*
X158280000Y-71865500D01*
G36*
X158280000Y-71865500D02*
G01*
X157560000Y-71865500D01*
X157560000Y-71145500D01*
X158280000Y-71145500D01*
X158280000Y-71865500D01*
G37*
X158280000Y-72865500D02*
X157560000Y-72865500D01*
X157560000Y-72145500D01*
X158280000Y-72145500D01*
X158280000Y-72865500D01*
G36*
X158280000Y-72865500D02*
G01*
X157560000Y-72865500D01*
X157560000Y-72145500D01*
X158280000Y-72145500D01*
X158280000Y-72865500D01*
G37*
%TO.C,IC2*%
X157280000Y-64125500D02*
X156560000Y-64125500D01*
X156560000Y-63405500D01*
X157280000Y-63405500D01*
X157280000Y-64125500D01*
G36*
X157280000Y-64125500D02*
G01*
X156560000Y-64125500D01*
X156560000Y-63405500D01*
X157280000Y-63405500D01*
X157280000Y-64125500D01*
G37*
X157280000Y-65125500D02*
X156560000Y-65125500D01*
X156560000Y-64405500D01*
X157280000Y-64405500D01*
X157280000Y-65125500D01*
G36*
X157280000Y-65125500D02*
G01*
X156560000Y-65125500D01*
X156560000Y-64405500D01*
X157280000Y-64405500D01*
X157280000Y-65125500D01*
G37*
X158280000Y-64125500D02*
X157560000Y-64125500D01*
X157560000Y-63405500D01*
X158280000Y-63405500D01*
X158280000Y-64125500D01*
G36*
X158280000Y-64125500D02*
G01*
X157560000Y-64125500D01*
X157560000Y-63405500D01*
X158280000Y-63405500D01*
X158280000Y-64125500D01*
G37*
X158280000Y-65125500D02*
X157560000Y-65125500D01*
X157560000Y-64405500D01*
X158280000Y-64405500D01*
X158280000Y-65125500D01*
G36*
X158280000Y-65125500D02*
G01*
X157560000Y-65125500D01*
X157560000Y-64405500D01*
X158280000Y-64405500D01*
X158280000Y-65125500D01*
G37*
X157280000Y-87775500D02*
X156560000Y-87775500D01*
X156560000Y-87055500D01*
X157280000Y-87055500D01*
X157280000Y-87775500D01*
G36*
X157280000Y-87775500D02*
G01*
X156560000Y-87775500D01*
X156560000Y-87055500D01*
X157280000Y-87055500D01*
X157280000Y-87775500D01*
G37*
X157280000Y-88775500D02*
X156560000Y-88775500D01*
X156560000Y-88055500D01*
X157280000Y-88055500D01*
X157280000Y-88775500D01*
G36*
X157280000Y-88775500D02*
G01*
X156560000Y-88775500D01*
X156560000Y-88055500D01*
X157280000Y-88055500D01*
X157280000Y-88775500D01*
G37*
X158280000Y-87775500D02*
X157560000Y-87775500D01*
X157560000Y-87055500D01*
X158280000Y-87055500D01*
X158280000Y-87775500D01*
G36*
X158280000Y-87775500D02*
G01*
X157560000Y-87775500D01*
X157560000Y-87055500D01*
X158280000Y-87055500D01*
X158280000Y-87775500D01*
G37*
X158280000Y-88775500D02*
X157560000Y-88775500D01*
X157560000Y-88055500D01*
X158280000Y-88055500D01*
X158280000Y-88775500D01*
G36*
X158280000Y-88775500D02*
G01*
X157560000Y-88775500D01*
X157560000Y-88055500D01*
X158280000Y-88055500D01*
X158280000Y-88775500D01*
G37*
%TO.C,IC1*%
X157280000Y-48215500D02*
X156560000Y-48215500D01*
X156560000Y-47495500D01*
X157280000Y-47495500D01*
X157280000Y-48215500D01*
G36*
X157280000Y-48215500D02*
G01*
X156560000Y-48215500D01*
X156560000Y-47495500D01*
X157280000Y-47495500D01*
X157280000Y-48215500D01*
G37*
X157280000Y-49215500D02*
X156560000Y-49215500D01*
X156560000Y-48495500D01*
X157280000Y-48495500D01*
X157280000Y-49215500D01*
G36*
X157280000Y-49215500D02*
G01*
X156560000Y-49215500D01*
X156560000Y-48495500D01*
X157280000Y-48495500D01*
X157280000Y-49215500D01*
G37*
X158280000Y-48215500D02*
X157560000Y-48215500D01*
X157560000Y-47495500D01*
X158280000Y-47495500D01*
X158280000Y-48215500D01*
G36*
X158280000Y-48215500D02*
G01*
X157560000Y-48215500D01*
X157560000Y-47495500D01*
X158280000Y-47495500D01*
X158280000Y-48215500D01*
G37*
X158280000Y-49215500D02*
X157560000Y-49215500D01*
X157560000Y-48495500D01*
X158280000Y-48495500D01*
X158280000Y-49215500D01*
G36*
X158280000Y-49215500D02*
G01*
X157560000Y-49215500D01*
X157560000Y-48495500D01*
X158280000Y-48495500D01*
X158280000Y-49215500D01*
G37*
%TO.C,IC2*%
X136980000Y-40475500D02*
X136260000Y-40475500D01*
X136260000Y-39755500D01*
X136980000Y-39755500D01*
X136980000Y-40475500D01*
G36*
X136980000Y-40475500D02*
G01*
X136260000Y-40475500D01*
X136260000Y-39755500D01*
X136980000Y-39755500D01*
X136980000Y-40475500D01*
G37*
X136980000Y-41475500D02*
X136260000Y-41475500D01*
X136260000Y-40755500D01*
X136980000Y-40755500D01*
X136980000Y-41475500D01*
G36*
X136980000Y-41475500D02*
G01*
X136260000Y-41475500D01*
X136260000Y-40755500D01*
X136980000Y-40755500D01*
X136980000Y-41475500D01*
G37*
X137980000Y-40475500D02*
X137260000Y-40475500D01*
X137260000Y-39755500D01*
X137980000Y-39755500D01*
X137980000Y-40475500D01*
G36*
X137980000Y-40475500D02*
G01*
X137260000Y-40475500D01*
X137260000Y-39755500D01*
X137980000Y-39755500D01*
X137980000Y-40475500D01*
G37*
X137980000Y-41475500D02*
X137260000Y-41475500D01*
X137260000Y-40755500D01*
X137980000Y-40755500D01*
X137980000Y-41475500D01*
G36*
X137980000Y-41475500D02*
G01*
X137260000Y-41475500D01*
X137260000Y-40755500D01*
X137980000Y-40755500D01*
X137980000Y-41475500D01*
G37*
X136980000Y-64125500D02*
X136260000Y-64125500D01*
X136260000Y-63405500D01*
X136980000Y-63405500D01*
X136980000Y-64125500D01*
G36*
X136980000Y-64125500D02*
G01*
X136260000Y-64125500D01*
X136260000Y-63405500D01*
X136980000Y-63405500D01*
X136980000Y-64125500D01*
G37*
X136980000Y-65125500D02*
X136260000Y-65125500D01*
X136260000Y-64405500D01*
X136980000Y-64405500D01*
X136980000Y-65125500D01*
G36*
X136980000Y-65125500D02*
G01*
X136260000Y-65125500D01*
X136260000Y-64405500D01*
X136980000Y-64405500D01*
X136980000Y-65125500D01*
G37*
X137980000Y-64125500D02*
X137260000Y-64125500D01*
X137260000Y-63405500D01*
X137980000Y-63405500D01*
X137980000Y-64125500D01*
G36*
X137980000Y-64125500D02*
G01*
X137260000Y-64125500D01*
X137260000Y-63405500D01*
X137980000Y-63405500D01*
X137980000Y-64125500D01*
G37*
X137980000Y-65125500D02*
X137260000Y-65125500D01*
X137260000Y-64405500D01*
X137980000Y-64405500D01*
X137980000Y-65125500D01*
G36*
X137980000Y-65125500D02*
G01*
X137260000Y-65125500D01*
X137260000Y-64405500D01*
X137980000Y-64405500D01*
X137980000Y-65125500D01*
G37*
X136980000Y-87775500D02*
X136260000Y-87775500D01*
X136260000Y-87055500D01*
X136980000Y-87055500D01*
X136980000Y-87775500D01*
G36*
X136980000Y-87775500D02*
G01*
X136260000Y-87775500D01*
X136260000Y-87055500D01*
X136980000Y-87055500D01*
X136980000Y-87775500D01*
G37*
X136980000Y-88775500D02*
X136260000Y-88775500D01*
X136260000Y-88055500D01*
X136980000Y-88055500D01*
X136980000Y-88775500D01*
G36*
X136980000Y-88775500D02*
G01*
X136260000Y-88775500D01*
X136260000Y-88055500D01*
X136980000Y-88055500D01*
X136980000Y-88775500D01*
G37*
X137980000Y-87775500D02*
X137260000Y-87775500D01*
X137260000Y-87055500D01*
X137980000Y-87055500D01*
X137980000Y-87775500D01*
G36*
X137980000Y-87775500D02*
G01*
X137260000Y-87775500D01*
X137260000Y-87055500D01*
X137980000Y-87055500D01*
X137980000Y-87775500D01*
G37*
X137980000Y-88775500D02*
X137260000Y-88775500D01*
X137260000Y-88055500D01*
X137980000Y-88055500D01*
X137980000Y-88775500D01*
G36*
X137980000Y-88775500D02*
G01*
X137260000Y-88775500D01*
X137260000Y-88055500D01*
X137980000Y-88055500D01*
X137980000Y-88775500D01*
G37*
%TO.C,IC1*%
X157280000Y-95515500D02*
X156560000Y-95515500D01*
X156560000Y-94795500D01*
X157280000Y-94795500D01*
X157280000Y-95515500D01*
G36*
X157280000Y-95515500D02*
G01*
X156560000Y-95515500D01*
X156560000Y-94795500D01*
X157280000Y-94795500D01*
X157280000Y-95515500D01*
G37*
X157280000Y-96515500D02*
X156560000Y-96515500D01*
X156560000Y-95795500D01*
X157280000Y-95795500D01*
X157280000Y-96515500D01*
G36*
X157280000Y-96515500D02*
G01*
X156560000Y-96515500D01*
X156560000Y-95795500D01*
X157280000Y-95795500D01*
X157280000Y-96515500D01*
G37*
X158280000Y-95515500D02*
X157560000Y-95515500D01*
X157560000Y-94795500D01*
X158280000Y-94795500D01*
X158280000Y-95515500D01*
G36*
X158280000Y-95515500D02*
G01*
X157560000Y-95515500D01*
X157560000Y-94795500D01*
X158280000Y-94795500D01*
X158280000Y-95515500D01*
G37*
X158280000Y-96515500D02*
X157560000Y-96515500D01*
X157560000Y-95795500D01*
X158280000Y-95795500D01*
X158280000Y-96515500D01*
G36*
X158280000Y-96515500D02*
G01*
X157560000Y-96515500D01*
X157560000Y-95795500D01*
X158280000Y-95795500D01*
X158280000Y-96515500D01*
G37*
X136980000Y-71865500D02*
X136260000Y-71865500D01*
X136260000Y-71145500D01*
X136980000Y-71145500D01*
X136980000Y-71865500D01*
G36*
X136980000Y-71865500D02*
G01*
X136260000Y-71865500D01*
X136260000Y-71145500D01*
X136980000Y-71145500D01*
X136980000Y-71865500D01*
G37*
X136980000Y-72865500D02*
X136260000Y-72865500D01*
X136260000Y-72145500D01*
X136980000Y-72145500D01*
X136980000Y-72865500D01*
G36*
X136980000Y-72865500D02*
G01*
X136260000Y-72865500D01*
X136260000Y-72145500D01*
X136980000Y-72145500D01*
X136980000Y-72865500D01*
G37*
X137980000Y-71865500D02*
X137260000Y-71865500D01*
X137260000Y-71145500D01*
X137980000Y-71145500D01*
X137980000Y-71865500D01*
G36*
X137980000Y-71865500D02*
G01*
X137260000Y-71865500D01*
X137260000Y-71145500D01*
X137980000Y-71145500D01*
X137980000Y-71865500D01*
G37*
X137980000Y-72865500D02*
X137260000Y-72865500D01*
X137260000Y-72145500D01*
X137980000Y-72145500D01*
X137980000Y-72865500D01*
G36*
X137980000Y-72865500D02*
G01*
X137260000Y-72865500D01*
X137260000Y-72145500D01*
X137980000Y-72145500D01*
X137980000Y-72865500D01*
G37*
X136980000Y-48215500D02*
X136260000Y-48215500D01*
X136260000Y-47495500D01*
X136980000Y-47495500D01*
X136980000Y-48215500D01*
G36*
X136980000Y-48215500D02*
G01*
X136260000Y-48215500D01*
X136260000Y-47495500D01*
X136980000Y-47495500D01*
X136980000Y-48215500D01*
G37*
X136980000Y-49215500D02*
X136260000Y-49215500D01*
X136260000Y-48495500D01*
X136980000Y-48495500D01*
X136980000Y-49215500D01*
G36*
X136980000Y-49215500D02*
G01*
X136260000Y-49215500D01*
X136260000Y-48495500D01*
X136980000Y-48495500D01*
X136980000Y-49215500D01*
G37*
X137980000Y-48215500D02*
X137260000Y-48215500D01*
X137260000Y-47495500D01*
X137980000Y-47495500D01*
X137980000Y-48215500D01*
G36*
X137980000Y-48215500D02*
G01*
X137260000Y-48215500D01*
X137260000Y-47495500D01*
X137980000Y-47495500D01*
X137980000Y-48215500D01*
G37*
X137980000Y-49215500D02*
X137260000Y-49215500D01*
X137260000Y-48495500D01*
X137980000Y-48495500D01*
X137980000Y-49215500D01*
G36*
X137980000Y-49215500D02*
G01*
X137260000Y-49215500D01*
X137260000Y-48495500D01*
X137980000Y-48495500D01*
X137980000Y-49215500D01*
G37*
X136980000Y-95515500D02*
X136260000Y-95515500D01*
X136260000Y-94795500D01*
X136980000Y-94795500D01*
X136980000Y-95515500D01*
G36*
X136980000Y-95515500D02*
G01*
X136260000Y-95515500D01*
X136260000Y-94795500D01*
X136980000Y-94795500D01*
X136980000Y-95515500D01*
G37*
X136980000Y-96515500D02*
X136260000Y-96515500D01*
X136260000Y-95795500D01*
X136980000Y-95795500D01*
X136980000Y-96515500D01*
G36*
X136980000Y-96515500D02*
G01*
X136260000Y-96515500D01*
X136260000Y-95795500D01*
X136980000Y-95795500D01*
X136980000Y-96515500D01*
G37*
X137980000Y-95515500D02*
X137260000Y-95515500D01*
X137260000Y-94795500D01*
X137980000Y-94795500D01*
X137980000Y-95515500D01*
G36*
X137980000Y-95515500D02*
G01*
X137260000Y-95515500D01*
X137260000Y-94795500D01*
X137980000Y-94795500D01*
X137980000Y-95515500D01*
G37*
X137980000Y-96515500D02*
X137260000Y-96515500D01*
X137260000Y-95795500D01*
X137980000Y-95795500D01*
X137980000Y-96515500D01*
G36*
X137980000Y-96515500D02*
G01*
X137260000Y-96515500D01*
X137260000Y-95795500D01*
X137980000Y-95795500D01*
X137980000Y-96515500D01*
G37*
%TO.C,IC2*%
X157280000Y-40475500D02*
X156560000Y-40475500D01*
X156560000Y-39755500D01*
X157280000Y-39755500D01*
X157280000Y-40475500D01*
G36*
X157280000Y-40475500D02*
G01*
X156560000Y-40475500D01*
X156560000Y-39755500D01*
X157280000Y-39755500D01*
X157280000Y-40475500D01*
G37*
X157280000Y-41475500D02*
X156560000Y-41475500D01*
X156560000Y-40755500D01*
X157280000Y-40755500D01*
X157280000Y-41475500D01*
G36*
X157280000Y-41475500D02*
G01*
X156560000Y-41475500D01*
X156560000Y-40755500D01*
X157280000Y-40755500D01*
X157280000Y-41475500D01*
G37*
X158280000Y-40475500D02*
X157560000Y-40475500D01*
X157560000Y-39755500D01*
X158280000Y-39755500D01*
X158280000Y-40475500D01*
G36*
X158280000Y-40475500D02*
G01*
X157560000Y-40475500D01*
X157560000Y-39755500D01*
X158280000Y-39755500D01*
X158280000Y-40475500D01*
G37*
X158280000Y-41475500D02*
X157560000Y-41475500D01*
X157560000Y-40755500D01*
X158280000Y-40755500D01*
X158280000Y-41475500D01*
G36*
X158280000Y-41475500D02*
G01*
X157560000Y-41475500D01*
X157560000Y-40755500D01*
X158280000Y-40755500D01*
X158280000Y-41475500D01*
G37*
%TD*%
D11*
%TO.C,C2*%
X142400000Y-64850500D03*
X142400000Y-62950500D03*
%TD*%
D12*
%TO.C,IC1*%
X154950000Y-70100500D03*
X154950000Y-71370500D03*
X154950000Y-72640500D03*
X154950000Y-73910500D03*
X159890000Y-73910500D03*
X159890000Y-72640500D03*
X159890000Y-71370500D03*
X159890000Y-70100500D03*
%TD*%
D11*
%TO.C,C2*%
X162700000Y-64850500D03*
X162700000Y-62950500D03*
%TD*%
D12*
%TO.C,IC2*%
X154950000Y-62360500D03*
X154950000Y-63630500D03*
X154950000Y-64900500D03*
X154950000Y-66170500D03*
X159890000Y-66170500D03*
X159890000Y-64900500D03*
X159890000Y-63630500D03*
X159890000Y-62360500D03*
%TD*%
%TO.C,IC2*%
X154950000Y-86010500D03*
X154950000Y-87280500D03*
X154950000Y-88550500D03*
X154950000Y-89820500D03*
X159890000Y-89820500D03*
X159890000Y-88550500D03*
X159890000Y-87280500D03*
X159890000Y-86010500D03*
%TD*%
%TO.C,IC1*%
X154950000Y-46450500D03*
X154950000Y-47720500D03*
X154950000Y-48990500D03*
X154950000Y-50260500D03*
X159890000Y-50260500D03*
X159890000Y-48990500D03*
X159890000Y-47720500D03*
X159890000Y-46450500D03*
%TD*%
D11*
%TO.C,C1*%
X142500000Y-96250500D03*
X142500000Y-94350500D03*
%TD*%
%TO.C,C2*%
X142400000Y-88500500D03*
X142400000Y-86600500D03*
%TD*%
%TO.C,C1*%
X142500000Y-72600500D03*
X142500000Y-70700500D03*
%TD*%
D12*
%TO.C,IC2*%
X134650000Y-38710500D03*
X134650000Y-39980500D03*
X134650000Y-41250500D03*
X134650000Y-42520500D03*
X139590000Y-42520500D03*
X139590000Y-41250500D03*
X139590000Y-39980500D03*
X139590000Y-38710500D03*
%TD*%
%TO.C,IC2*%
X134650000Y-62360500D03*
X134650000Y-63630500D03*
X134650000Y-64900500D03*
X134650000Y-66170500D03*
X139590000Y-66170500D03*
X139590000Y-64900500D03*
X139590000Y-63630500D03*
X139590000Y-62360500D03*
%TD*%
D11*
%TO.C,C1*%
X162800000Y-72600500D03*
X162800000Y-70700500D03*
%TD*%
D12*
%TO.C,IC2*%
X134650000Y-86010500D03*
X134650000Y-87280500D03*
X134650000Y-88550500D03*
X134650000Y-89820500D03*
X139590000Y-89820500D03*
X139590000Y-88550500D03*
X139590000Y-87280500D03*
X139590000Y-86010500D03*
%TD*%
D11*
%TO.C,C2*%
X162700000Y-88500500D03*
X162700000Y-86600500D03*
%TD*%
%TO.C,C1*%
X162800000Y-48950500D03*
X162800000Y-47050500D03*
%TD*%
%TO.C,C1*%
X162800000Y-96250500D03*
X162800000Y-94350500D03*
%TD*%
%TO.C,C1*%
X142500000Y-48950500D03*
X142500000Y-47050500D03*
%TD*%
D12*
%TO.C,IC1*%
X154950000Y-93750500D03*
X154950000Y-95020500D03*
X154950000Y-96290500D03*
X154950000Y-97560500D03*
X159890000Y-97560500D03*
X159890000Y-96290500D03*
X159890000Y-95020500D03*
X159890000Y-93750500D03*
%TD*%
%TO.C,IC1*%
X134650000Y-70100500D03*
X134650000Y-71370500D03*
X134650000Y-72640500D03*
X134650000Y-73910500D03*
X139590000Y-73910500D03*
X139590000Y-72640500D03*
X139590000Y-71370500D03*
X139590000Y-70100500D03*
%TD*%
%TO.C,IC1*%
X134650000Y-46450500D03*
X134650000Y-47720500D03*
X134650000Y-48990500D03*
X134650000Y-50260500D03*
X139590000Y-50260500D03*
X139590000Y-48990500D03*
X139590000Y-47720500D03*
X139590000Y-46450500D03*
%TD*%
%TO.C,IC1*%
X134650000Y-93750500D03*
X134650000Y-95020500D03*
X134650000Y-96290500D03*
X134650000Y-97560500D03*
X139590000Y-97560500D03*
X139590000Y-96290500D03*
X139590000Y-95020500D03*
X139590000Y-93750500D03*
%TD*%
%TO.C,IC2*%
X154950000Y-38710500D03*
X154950000Y-39980500D03*
X154950000Y-41250500D03*
X154950000Y-42520500D03*
X159890000Y-42520500D03*
X159890000Y-41250500D03*
X159890000Y-39980500D03*
X159890000Y-38710500D03*
%TD*%
D11*
%TO.C,C2*%
X162700000Y-41200500D03*
X162700000Y-39300500D03*
%TD*%
%TO.C,C2*%
X142400000Y-41200500D03*
X142400000Y-39300500D03*
%TD*%
M02*
