%TF.GenerationSoftware,KiCad,Pcbnew,8.0.4*%
%TF.CreationDate,2024-09-15T23:07:02-03:00*%
%TF.ProjectId,panelized_TB67,70616e65-6c69-47a6-9564-5f544236372e,rev?*%
%TF.SameCoordinates,Original*%
%TF.FileFunction,Copper,L2,Bot*%
%TF.FilePolarity,Positive*%
%FSLAX46Y46*%
G04 Gerber Fmt 4.6, Leading zero omitted, Abs format (unit mm)*
G04 Created by KiCad (PCBNEW 8.0.4) date 2024-09-15 23:07:02*
%MOMM*%
%LPD*%
G01*
G04 APERTURE LIST*
%TA.AperFunction,ComponentPad*%
%ADD10C,1.600000*%
%TD*%
%TA.AperFunction,ComponentPad*%
%ADD11R,2.200000X2.000000*%
%TD*%
%TA.AperFunction,ComponentPad*%
%ADD12O,2.200000X2.000000*%
%TD*%
%TA.AperFunction,ViaPad*%
%ADD13C,0.650000*%
%TD*%
%TA.AperFunction,ViaPad*%
%ADD14C,0.800000*%
%TD*%
%TA.AperFunction,Conductor*%
%ADD15C,0.304800*%
%TD*%
G04 APERTURE END LIST*
D10*
%TO.P,C3,1*%
%TO.N,Board_1-/VM*%
X161200000Y-52350500D03*
%TO.P,C3,2*%
%TO.N,Board_1-GND*%
X156200000Y-52350500D03*
%TD*%
%TO.P,C3,1*%
%TO.N,Board_0-/VM*%
X140900000Y-52350500D03*
%TO.P,C3,2*%
%TO.N,Board_0-GND*%
X135900000Y-52350500D03*
%TD*%
%TO.P,C3,1*%
%TO.N,Board_4-/VM*%
X140900000Y-99650500D03*
%TO.P,C3,2*%
%TO.N,Board_4-GND*%
X135900000Y-99650500D03*
%TD*%
%TO.P,C3,1*%
%TO.N,Board_3-/VM*%
X161200000Y-76000500D03*
%TO.P,C3,2*%
%TO.N,Board_3-GND*%
X156200000Y-76000500D03*
%TD*%
%TO.P,C3,1*%
%TO.N,Board_5-/VM*%
X161200000Y-99650500D03*
%TO.P,C3,2*%
%TO.N,Board_5-GND*%
X156200000Y-99650500D03*
%TD*%
%TO.P,C3,1*%
%TO.N,Board_2-/VM*%
X140900000Y-76000500D03*
%TO.P,C3,2*%
%TO.N,Board_2-GND*%
X135900000Y-76000500D03*
%TD*%
D11*
%TO.P,J2,1,Pin_1*%
%TO.N,Board_0-GND*%
X145090000Y-36510500D03*
D12*
%TO.P,J2,2,Pin_2*%
%TO.N,Board_0-/OUT_B2*%
X145090000Y-39050500D03*
%TO.P,J2,3,Pin_3*%
%TO.N,Board_0-/OUT_B1*%
X145090000Y-41590500D03*
%TO.P,J2,4,Pin_4*%
%TO.N,Board_0-/VM*%
X145090000Y-44130500D03*
%TO.P,J2,5,Pin_5*%
%TO.N,Board_0-/OUT_A2*%
X145090000Y-46670500D03*
%TO.P,J2,6,Pin_6*%
%TO.N,Board_0-/OUT_A1*%
X145090000Y-49210500D03*
%TO.P,J2,7,Pin_7*%
%TO.N,Board_0-/VM*%
X145090000Y-51750500D03*
%TD*%
D11*
%TO.P,J1,1,Pin_1*%
%TO.N,Board_0-GND*%
X131700000Y-36510500D03*
D12*
%TO.P,J1,2,Pin_2*%
%TO.N,Board_0-/IN_B2*%
X131700000Y-39050500D03*
%TO.P,J1,3,Pin_3*%
%TO.N,Board_0-/IN_B1*%
X131700000Y-41590500D03*
%TO.P,J1,4,Pin_4*%
%TO.N,Board_0-/VREF*%
X131700000Y-44130500D03*
%TO.P,J1,5,Pin_5*%
%TO.N,Board_0-/IN_A2*%
X131700000Y-46670500D03*
%TO.P,J1,6,Pin_6*%
%TO.N,Board_0-/IN_A1*%
X131700000Y-49210500D03*
%TO.P,J1,7,Pin_7*%
%TO.N,Board_0-GND*%
X131700000Y-51750500D03*
%TD*%
D11*
%TO.P,J1,1,Pin_1*%
%TO.N,Board_3-GND*%
X152000000Y-60160500D03*
D12*
%TO.P,J1,2,Pin_2*%
%TO.N,Board_3-/IN_B2*%
X152000000Y-62700500D03*
%TO.P,J1,3,Pin_3*%
%TO.N,Board_3-/IN_B1*%
X152000000Y-65240500D03*
%TO.P,J1,4,Pin_4*%
%TO.N,Board_3-/VREF*%
X152000000Y-67780500D03*
%TO.P,J1,5,Pin_5*%
%TO.N,Board_3-/IN_A2*%
X152000000Y-70320500D03*
%TO.P,J1,6,Pin_6*%
%TO.N,Board_3-/IN_A1*%
X152000000Y-72860500D03*
%TO.P,J1,7,Pin_7*%
%TO.N,Board_3-GND*%
X152000000Y-75400500D03*
%TD*%
D11*
%TO.P,J1,1,Pin_1*%
%TO.N,Board_4-GND*%
X131700000Y-83810500D03*
D12*
%TO.P,J1,2,Pin_2*%
%TO.N,Board_4-/IN_B2*%
X131700000Y-86350500D03*
%TO.P,J1,3,Pin_3*%
%TO.N,Board_4-/IN_B1*%
X131700000Y-88890500D03*
%TO.P,J1,4,Pin_4*%
%TO.N,Board_4-/VREF*%
X131700000Y-91430500D03*
%TO.P,J1,5,Pin_5*%
%TO.N,Board_4-/IN_A2*%
X131700000Y-93970500D03*
%TO.P,J1,6,Pin_6*%
%TO.N,Board_4-/IN_A1*%
X131700000Y-96510500D03*
%TO.P,J1,7,Pin_7*%
%TO.N,Board_4-GND*%
X131700000Y-99050500D03*
%TD*%
D11*
%TO.P,J2,1,Pin_1*%
%TO.N,Board_5-GND*%
X165390000Y-83810500D03*
D12*
%TO.P,J2,2,Pin_2*%
%TO.N,Board_5-/OUT_B2*%
X165390000Y-86350500D03*
%TO.P,J2,3,Pin_3*%
%TO.N,Board_5-/OUT_B1*%
X165390000Y-88890500D03*
%TO.P,J2,4,Pin_4*%
%TO.N,Board_5-/VM*%
X165390000Y-91430500D03*
%TO.P,J2,5,Pin_5*%
%TO.N,Board_5-/OUT_A2*%
X165390000Y-93970500D03*
%TO.P,J2,6,Pin_6*%
%TO.N,Board_5-/OUT_A1*%
X165390000Y-96510500D03*
%TO.P,J2,7,Pin_7*%
%TO.N,Board_5-/VM*%
X165390000Y-99050500D03*
%TD*%
D11*
%TO.P,J2,1,Pin_1*%
%TO.N,Board_2-GND*%
X145090000Y-60160500D03*
D12*
%TO.P,J2,2,Pin_2*%
%TO.N,Board_2-/OUT_B2*%
X145090000Y-62700500D03*
%TO.P,J2,3,Pin_3*%
%TO.N,Board_2-/OUT_B1*%
X145090000Y-65240500D03*
%TO.P,J2,4,Pin_4*%
%TO.N,Board_2-/VM*%
X145090000Y-67780500D03*
%TO.P,J2,5,Pin_5*%
%TO.N,Board_2-/OUT_A2*%
X145090000Y-70320500D03*
%TO.P,J2,6,Pin_6*%
%TO.N,Board_2-/OUT_A1*%
X145090000Y-72860500D03*
%TO.P,J2,7,Pin_7*%
%TO.N,Board_2-/VM*%
X145090000Y-75400500D03*
%TD*%
D11*
%TO.P,J2,1,Pin_1*%
%TO.N,Board_1-GND*%
X165390000Y-36510500D03*
D12*
%TO.P,J2,2,Pin_2*%
%TO.N,Board_1-/OUT_B2*%
X165390000Y-39050500D03*
%TO.P,J2,3,Pin_3*%
%TO.N,Board_1-/OUT_B1*%
X165390000Y-41590500D03*
%TO.P,J2,4,Pin_4*%
%TO.N,Board_1-/VM*%
X165390000Y-44130500D03*
%TO.P,J2,5,Pin_5*%
%TO.N,Board_1-/OUT_A2*%
X165390000Y-46670500D03*
%TO.P,J2,6,Pin_6*%
%TO.N,Board_1-/OUT_A1*%
X165390000Y-49210500D03*
%TO.P,J2,7,Pin_7*%
%TO.N,Board_1-/VM*%
X165390000Y-51750500D03*
%TD*%
D11*
%TO.P,J2,1,Pin_1*%
%TO.N,Board_3-GND*%
X165390000Y-60160500D03*
D12*
%TO.P,J2,2,Pin_2*%
%TO.N,Board_3-/OUT_B2*%
X165390000Y-62700500D03*
%TO.P,J2,3,Pin_3*%
%TO.N,Board_3-/OUT_B1*%
X165390000Y-65240500D03*
%TO.P,J2,4,Pin_4*%
%TO.N,Board_3-/VM*%
X165390000Y-67780500D03*
%TO.P,J2,5,Pin_5*%
%TO.N,Board_3-/OUT_A2*%
X165390000Y-70320500D03*
%TO.P,J2,6,Pin_6*%
%TO.N,Board_3-/OUT_A1*%
X165390000Y-72860500D03*
%TO.P,J2,7,Pin_7*%
%TO.N,Board_3-/VM*%
X165390000Y-75400500D03*
%TD*%
D11*
%TO.P,J1,1,Pin_1*%
%TO.N,Board_5-GND*%
X152000000Y-83810500D03*
D12*
%TO.P,J1,2,Pin_2*%
%TO.N,Board_5-/IN_B2*%
X152000000Y-86350500D03*
%TO.P,J1,3,Pin_3*%
%TO.N,Board_5-/IN_B1*%
X152000000Y-88890500D03*
%TO.P,J1,4,Pin_4*%
%TO.N,Board_5-/VREF*%
X152000000Y-91430500D03*
%TO.P,J1,5,Pin_5*%
%TO.N,Board_5-/IN_A2*%
X152000000Y-93970500D03*
%TO.P,J1,6,Pin_6*%
%TO.N,Board_5-/IN_A1*%
X152000000Y-96510500D03*
%TO.P,J1,7,Pin_7*%
%TO.N,Board_5-GND*%
X152000000Y-99050500D03*
%TD*%
D11*
%TO.P,J2,1,Pin_1*%
%TO.N,Board_4-GND*%
X145090000Y-83810500D03*
D12*
%TO.P,J2,2,Pin_2*%
%TO.N,Board_4-/OUT_B2*%
X145090000Y-86350500D03*
%TO.P,J2,3,Pin_3*%
%TO.N,Board_4-/OUT_B1*%
X145090000Y-88890500D03*
%TO.P,J2,4,Pin_4*%
%TO.N,Board_4-/VM*%
X145090000Y-91430500D03*
%TO.P,J2,5,Pin_5*%
%TO.N,Board_4-/OUT_A2*%
X145090000Y-93970500D03*
%TO.P,J2,6,Pin_6*%
%TO.N,Board_4-/OUT_A1*%
X145090000Y-96510500D03*
%TO.P,J2,7,Pin_7*%
%TO.N,Board_4-/VM*%
X145090000Y-99050500D03*
%TD*%
D11*
%TO.P,J1,1,Pin_1*%
%TO.N,Board_2-GND*%
X131700000Y-60160500D03*
D12*
%TO.P,J1,2,Pin_2*%
%TO.N,Board_2-/IN_B2*%
X131700000Y-62700500D03*
%TO.P,J1,3,Pin_3*%
%TO.N,Board_2-/IN_B1*%
X131700000Y-65240500D03*
%TO.P,J1,4,Pin_4*%
%TO.N,Board_2-/VREF*%
X131700000Y-67780500D03*
%TO.P,J1,5,Pin_5*%
%TO.N,Board_2-/IN_A2*%
X131700000Y-70320500D03*
%TO.P,J1,6,Pin_6*%
%TO.N,Board_2-/IN_A1*%
X131700000Y-72860500D03*
%TO.P,J1,7,Pin_7*%
%TO.N,Board_2-GND*%
X131700000Y-75400500D03*
%TD*%
D11*
%TO.P,J1,1,Pin_1*%
%TO.N,Board_1-GND*%
X152000000Y-36510500D03*
D12*
%TO.P,J1,2,Pin_2*%
%TO.N,Board_1-/IN_B2*%
X152000000Y-39050500D03*
%TO.P,J1,3,Pin_3*%
%TO.N,Board_1-/IN_B1*%
X152000000Y-41590500D03*
%TO.P,J1,4,Pin_4*%
%TO.N,Board_1-/VREF*%
X152000000Y-44130500D03*
%TO.P,J1,5,Pin_5*%
%TO.N,Board_1-/IN_A2*%
X152000000Y-46670500D03*
%TO.P,J1,6,Pin_6*%
%TO.N,Board_1-/IN_A1*%
X152000000Y-49210500D03*
%TO.P,J1,7,Pin_7*%
%TO.N,Board_1-GND*%
X152000000Y-51750500D03*
%TD*%
D13*
%TO.N,Board_0-/OUT_A1*%
X141900000Y-49900500D03*
X139590000Y-48990500D03*
X143150000Y-48650500D03*
X143150000Y-49900500D03*
X141900000Y-48650500D03*
%TO.N,Board_0-/OUT_A2*%
X143050000Y-47400500D03*
X143050000Y-46150500D03*
X141800000Y-46150500D03*
X139590000Y-46460500D03*
X141800000Y-47400500D03*
%TO.N,Board_0-/OUT_B1*%
X141850000Y-41000500D03*
X143100000Y-42250500D03*
X139590000Y-41250500D03*
X143100000Y-41000500D03*
X141850000Y-42250500D03*
%TO.N,Board_0-/OUT_B2*%
X143000000Y-39750500D03*
X143000000Y-38500500D03*
X141750000Y-39750500D03*
X141750000Y-38500500D03*
X139590000Y-38710500D03*
%TO.N,Board_0-/VM*%
X141850000Y-44850500D03*
X139250000Y-43650500D03*
X139590000Y-50260500D03*
X143150000Y-44850500D03*
X140550000Y-43650500D03*
X143250000Y-52500500D03*
X143150000Y-43650500D03*
X143250000Y-51300500D03*
X140550000Y-44850500D03*
X141850000Y-43650500D03*
X141950000Y-51300500D03*
X139350000Y-51300500D03*
X139590000Y-42520500D03*
D14*
%TO.N,Board_0-/VREF*%
X133050000Y-42850500D03*
X133000000Y-50450500D03*
D13*
%TO.N,Board_0-GND*%
X133800000Y-35300500D03*
X137800000Y-43650500D03*
X141300000Y-36300500D03*
X137120000Y-46450500D03*
X133850000Y-53150500D03*
X142800000Y-37300500D03*
X134200000Y-43650500D03*
X139800000Y-35300500D03*
X142800000Y-36300500D03*
X135300000Y-35300500D03*
X134200000Y-44650500D03*
X137930000Y-39805500D03*
X134200000Y-45650500D03*
X139800000Y-37300500D03*
X136310000Y-49165500D03*
X137930000Y-48355500D03*
X137930000Y-41425500D03*
X137120000Y-48355500D03*
X136600000Y-44650500D03*
X136310000Y-47545500D03*
X137930000Y-50250500D03*
X137120000Y-40615500D03*
X133800000Y-37300500D03*
X138300000Y-35300500D03*
X136310000Y-40615500D03*
X136310000Y-46450500D03*
X137930000Y-49165500D03*
X137930000Y-42550500D03*
X136800000Y-37300500D03*
X137120000Y-38700500D03*
X137120000Y-42550500D03*
X136600000Y-43650500D03*
X135400000Y-45650500D03*
X137930000Y-47545500D03*
X137750000Y-52250500D03*
X137120000Y-39805500D03*
X137120000Y-49165500D03*
X139590000Y-47720500D03*
X136310000Y-41425500D03*
X135300000Y-36300500D03*
X137120000Y-50250500D03*
X136310000Y-42550500D03*
X134650000Y-46450500D03*
X133850000Y-51350500D03*
X136310000Y-39805500D03*
X135400000Y-43650500D03*
X136310000Y-50250500D03*
X136310000Y-48355500D03*
X137120000Y-47545500D03*
X137930000Y-46450500D03*
X138300000Y-37300500D03*
X136600000Y-45650500D03*
X139800000Y-36300500D03*
X134650000Y-38710500D03*
X136310000Y-38700500D03*
X133850000Y-52250500D03*
X139590000Y-39980500D03*
X135300000Y-37300500D03*
X136800000Y-36300500D03*
X135400000Y-44650500D03*
X142800000Y-35300500D03*
X137930000Y-38700500D03*
X137750000Y-51350500D03*
X133800000Y-36300500D03*
X137930000Y-40615500D03*
X137120000Y-41425500D03*
X138300000Y-36300500D03*
X141300000Y-37300500D03*
X137750000Y-53150500D03*
X136800000Y-35300500D03*
X137800000Y-45650500D03*
X137800000Y-44650500D03*
X141300000Y-35300500D03*
%TO.N,Board_1-/OUT_A1*%
X162200000Y-49900500D03*
X159890000Y-48990500D03*
X163450000Y-48650500D03*
X162200000Y-48650500D03*
X163450000Y-49900500D03*
%TO.N,Board_1-/OUT_A2*%
X163350000Y-47400500D03*
X162100000Y-47400500D03*
X163350000Y-46150500D03*
X162100000Y-46150500D03*
X159890000Y-46460500D03*
%TO.N,Board_1-/OUT_B1*%
X162150000Y-41000500D03*
X159890000Y-41250500D03*
X162150000Y-42250500D03*
X163400000Y-42250500D03*
X163400000Y-41000500D03*
%TO.N,Board_1-/OUT_B2*%
X163300000Y-39750500D03*
X159890000Y-38710500D03*
X163300000Y-38500500D03*
X162050000Y-38500500D03*
X162050000Y-39750500D03*
%TO.N,Board_1-/VM*%
X159550000Y-43650500D03*
X159890000Y-50260500D03*
X160850000Y-43650500D03*
X163550000Y-52500500D03*
X162250000Y-51300500D03*
X163450000Y-44850500D03*
X163450000Y-43650500D03*
X162150000Y-44850500D03*
X160850000Y-44850500D03*
X159650000Y-51300500D03*
X162150000Y-43650500D03*
X163550000Y-51300500D03*
X159890000Y-42520500D03*
D14*
%TO.N,Board_1-/VREF*%
X153350000Y-42850500D03*
X153300000Y-50450500D03*
D13*
%TO.N,Board_1-GND*%
X155700000Y-43650500D03*
X156610000Y-41425500D03*
X156610000Y-50250500D03*
X158600000Y-35300500D03*
X157100000Y-37300500D03*
X156610000Y-42550500D03*
X158230000Y-39805500D03*
X154150000Y-53150500D03*
X155600000Y-37300500D03*
X158230000Y-50250500D03*
X158230000Y-38700500D03*
X154100000Y-36300500D03*
X158050000Y-51350500D03*
X156900000Y-43650500D03*
X156610000Y-49165500D03*
X154150000Y-52250500D03*
X156900000Y-45650500D03*
X156610000Y-38700500D03*
X157420000Y-46450500D03*
X158100000Y-43650500D03*
X157420000Y-47545500D03*
X158230000Y-47545500D03*
X163100000Y-37300500D03*
X158050000Y-52250500D03*
X155600000Y-36300500D03*
X163100000Y-35300500D03*
X160100000Y-37300500D03*
X158230000Y-48355500D03*
X156610000Y-39805500D03*
X154100000Y-37300500D03*
X158600000Y-36300500D03*
X156610000Y-46450500D03*
X158230000Y-46450500D03*
X156610000Y-40615500D03*
X154500000Y-43650500D03*
X158230000Y-42550500D03*
X157420000Y-50250500D03*
X157420000Y-39805500D03*
X161600000Y-37300500D03*
X156610000Y-48355500D03*
X157420000Y-38700500D03*
X160100000Y-36300500D03*
X160100000Y-35300500D03*
X157100000Y-35300500D03*
X158050000Y-53150500D03*
X157420000Y-42550500D03*
X163100000Y-36300500D03*
X158100000Y-45650500D03*
X155700000Y-45650500D03*
X157420000Y-49165500D03*
X156900000Y-44650500D03*
X158600000Y-37300500D03*
X155600000Y-35300500D03*
X158230000Y-49165500D03*
X157420000Y-48355500D03*
X159890000Y-39980500D03*
X154500000Y-44650500D03*
X155700000Y-44650500D03*
X158100000Y-44650500D03*
X157420000Y-41425500D03*
X158230000Y-40615500D03*
X158230000Y-41425500D03*
X154950000Y-38710500D03*
X159890000Y-47720500D03*
X156610000Y-47545500D03*
X157100000Y-36300500D03*
X154500000Y-45650500D03*
X154950000Y-46450500D03*
X157420000Y-40615500D03*
X161600000Y-35300500D03*
X154150000Y-51350500D03*
X154100000Y-35300500D03*
X161600000Y-36300500D03*
%TO.N,Board_2-/OUT_A1*%
X139590000Y-72640500D03*
X141900000Y-72300500D03*
X143150000Y-73550500D03*
X143150000Y-72300500D03*
X141900000Y-73550500D03*
%TO.N,Board_2-/OUT_A2*%
X139590000Y-70110500D03*
X141800000Y-69800500D03*
X143050000Y-69800500D03*
X141800000Y-71050500D03*
X143050000Y-71050500D03*
%TO.N,Board_2-/OUT_B1*%
X141850000Y-64650500D03*
X139590000Y-64900500D03*
X143100000Y-64650500D03*
X143100000Y-65900500D03*
X141850000Y-65900500D03*
%TO.N,Board_2-/OUT_B2*%
X139590000Y-62360500D03*
X141750000Y-63400500D03*
X141750000Y-62150500D03*
X143000000Y-62150500D03*
X143000000Y-63400500D03*
%TO.N,Board_2-/VM*%
X141850000Y-68500500D03*
X139250000Y-67300500D03*
X139590000Y-73910500D03*
X140550000Y-67300500D03*
X143150000Y-68500500D03*
X143250000Y-74950500D03*
X141850000Y-67300500D03*
X143250000Y-76150500D03*
X141950000Y-74950500D03*
X140550000Y-68500500D03*
X139590000Y-66170500D03*
X143150000Y-67300500D03*
X139350000Y-74950500D03*
D14*
%TO.N,Board_2-/VREF*%
X133000000Y-74100500D03*
X133050000Y-66500500D03*
D13*
%TO.N,Board_2-GND*%
X136310000Y-72005500D03*
X137930000Y-71195500D03*
X136800000Y-59950500D03*
X141300000Y-59950500D03*
X137750000Y-75000500D03*
X139590000Y-63630500D03*
X137120000Y-70100500D03*
X134650000Y-70100500D03*
X136310000Y-70100500D03*
X137930000Y-66200500D03*
X141300000Y-60950500D03*
X139800000Y-59950500D03*
X134200000Y-68300500D03*
X136600000Y-68300500D03*
X137120000Y-62350500D03*
X139800000Y-58950500D03*
X133800000Y-58950500D03*
X137930000Y-70100500D03*
X139590000Y-71370500D03*
X136310000Y-64265500D03*
X133850000Y-76800500D03*
X137120000Y-66200500D03*
X133800000Y-60950500D03*
X136600000Y-67300500D03*
X134650000Y-62360500D03*
X137120000Y-63455500D03*
X139800000Y-60950500D03*
X135400000Y-67300500D03*
X137750000Y-76800500D03*
X134200000Y-67300500D03*
X136310000Y-71195500D03*
X137800000Y-68300500D03*
X142800000Y-59950500D03*
X142800000Y-60950500D03*
X137120000Y-64265500D03*
X137120000Y-73900500D03*
X135300000Y-60950500D03*
X137800000Y-67300500D03*
X135300000Y-59950500D03*
X137750000Y-75900500D03*
X136800000Y-60950500D03*
X135300000Y-58950500D03*
X137930000Y-72005500D03*
X133850000Y-75000500D03*
X135400000Y-69300500D03*
X142800000Y-58950500D03*
X137800000Y-69300500D03*
X137120000Y-71195500D03*
X137120000Y-65075500D03*
X138300000Y-58950500D03*
X133850000Y-75900500D03*
X137930000Y-72815500D03*
X137120000Y-72005500D03*
X136600000Y-69300500D03*
X138300000Y-60950500D03*
X136310000Y-72815500D03*
X136310000Y-73900500D03*
X135400000Y-68300500D03*
X137930000Y-65075500D03*
X136800000Y-58950500D03*
X136310000Y-63455500D03*
X133800000Y-59950500D03*
X137930000Y-63455500D03*
X137120000Y-72815500D03*
X137930000Y-64265500D03*
X136310000Y-62350500D03*
X134200000Y-69300500D03*
X141300000Y-58950500D03*
X136310000Y-66200500D03*
X137930000Y-62350500D03*
X136310000Y-65075500D03*
X138300000Y-59950500D03*
X137930000Y-73900500D03*
%TO.N,Board_3-/OUT_A1*%
X162200000Y-73550500D03*
X163450000Y-72300500D03*
X159890000Y-72640500D03*
X162200000Y-72300500D03*
X163450000Y-73550500D03*
%TO.N,Board_3-/OUT_A2*%
X162100000Y-69800500D03*
X163350000Y-71050500D03*
X163350000Y-69800500D03*
X162100000Y-71050500D03*
X159890000Y-70110500D03*
%TO.N,Board_3-/OUT_B1*%
X163400000Y-64650500D03*
X162150000Y-64650500D03*
X163400000Y-65900500D03*
X159890000Y-64900500D03*
X162150000Y-65900500D03*
%TO.N,Board_3-/OUT_B2*%
X163300000Y-63400500D03*
X163300000Y-62150500D03*
X162050000Y-63400500D03*
X162050000Y-62150500D03*
X159890000Y-62360500D03*
%TO.N,Board_3-/VM*%
X160850000Y-67300500D03*
X162150000Y-67300500D03*
X162150000Y-68500500D03*
X162250000Y-74950500D03*
X163450000Y-67300500D03*
X159650000Y-74950500D03*
X163450000Y-68500500D03*
X163550000Y-74950500D03*
X163550000Y-76150500D03*
X159550000Y-67300500D03*
X159890000Y-73910500D03*
X159890000Y-66170500D03*
X160850000Y-68500500D03*
D14*
%TO.N,Board_3-/VREF*%
X153350000Y-66500500D03*
X153300000Y-74100500D03*
D13*
%TO.N,Board_3-GND*%
X156900000Y-68300500D03*
X158230000Y-63455500D03*
X157420000Y-62350500D03*
X157420000Y-66200500D03*
X163100000Y-58950500D03*
X158230000Y-62350500D03*
X155600000Y-60950500D03*
X158230000Y-72815500D03*
X158100000Y-69300500D03*
X156900000Y-69300500D03*
X158100000Y-68300500D03*
X157420000Y-72815500D03*
X158600000Y-59950500D03*
X156610000Y-65075500D03*
X163100000Y-59950500D03*
X154150000Y-75000500D03*
X155700000Y-67300500D03*
X154500000Y-67300500D03*
X155600000Y-58950500D03*
X157420000Y-63455500D03*
X154100000Y-59950500D03*
X156610000Y-63455500D03*
X156610000Y-72815500D03*
X160100000Y-58950500D03*
X158050000Y-75900500D03*
X155700000Y-69300500D03*
X158230000Y-70100500D03*
X154100000Y-58950500D03*
X157420000Y-73900500D03*
X158230000Y-73900500D03*
X157420000Y-64265500D03*
X154500000Y-69300500D03*
X156610000Y-64265500D03*
X157420000Y-71195500D03*
X158600000Y-58950500D03*
X158230000Y-72005500D03*
X156610000Y-72005500D03*
X157100000Y-58950500D03*
X156900000Y-67300500D03*
X157420000Y-65075500D03*
X156610000Y-73900500D03*
X160100000Y-59950500D03*
X158600000Y-60950500D03*
X161600000Y-60950500D03*
X158230000Y-64265500D03*
X155700000Y-68300500D03*
X158050000Y-76800500D03*
X158230000Y-65075500D03*
X163100000Y-60950500D03*
X161600000Y-58950500D03*
X154150000Y-75900500D03*
X158100000Y-67300500D03*
X156610000Y-71195500D03*
X156610000Y-62350500D03*
X154150000Y-76800500D03*
X156610000Y-70100500D03*
X159890000Y-63630500D03*
X157420000Y-70100500D03*
X158230000Y-66200500D03*
X155600000Y-59950500D03*
X160100000Y-60950500D03*
X154500000Y-68300500D03*
X157100000Y-59950500D03*
X154950000Y-70100500D03*
X154950000Y-62360500D03*
X157100000Y-60950500D03*
X154100000Y-60950500D03*
X156610000Y-66200500D03*
X157420000Y-72005500D03*
X158050000Y-75000500D03*
X158230000Y-71195500D03*
X159890000Y-71370500D03*
X161600000Y-59950500D03*
%TO.N,Board_4-/OUT_A1*%
X139590000Y-96290500D03*
X141900000Y-97200500D03*
X143150000Y-95950500D03*
X143150000Y-97200500D03*
X141900000Y-95950500D03*
%TO.N,Board_4-/OUT_A2*%
X141800000Y-94700500D03*
X143050000Y-93450500D03*
X141800000Y-93450500D03*
X139590000Y-93760500D03*
X143050000Y-94700500D03*
%TO.N,Board_4-/OUT_B1*%
X141850000Y-88300500D03*
X143100000Y-89550500D03*
X141850000Y-89550500D03*
X139590000Y-88550500D03*
X143100000Y-88300500D03*
%TO.N,Board_4-/OUT_B2*%
X141750000Y-85800500D03*
X141750000Y-87050500D03*
X139590000Y-86010500D03*
X143000000Y-87050500D03*
X143000000Y-85800500D03*
%TO.N,Board_4-/VM*%
X139250000Y-90950500D03*
X140550000Y-92150500D03*
X141950000Y-98600500D03*
X141850000Y-90950500D03*
X143250000Y-99800500D03*
X143150000Y-90950500D03*
X141850000Y-92150500D03*
X143150000Y-92150500D03*
X143250000Y-98600500D03*
X139350000Y-98600500D03*
X139590000Y-89820500D03*
X139590000Y-97560500D03*
X140550000Y-90950500D03*
D14*
%TO.N,Board_4-/VREF*%
X133050000Y-90150500D03*
X133000000Y-97750500D03*
D13*
%TO.N,Board_4-GND*%
X136310000Y-87105500D03*
X133800000Y-84600500D03*
X137120000Y-94845500D03*
X136310000Y-86000500D03*
X135300000Y-84600500D03*
X136600000Y-90950500D03*
X133800000Y-83600500D03*
X136800000Y-82600500D03*
X136600000Y-91950500D03*
X137930000Y-86000500D03*
X137120000Y-86000500D03*
X137120000Y-87915500D03*
X136800000Y-83600500D03*
X136310000Y-89850500D03*
X135300000Y-82600500D03*
X137930000Y-94845500D03*
X136310000Y-93750500D03*
X135400000Y-90950500D03*
X137930000Y-87105500D03*
X135300000Y-83600500D03*
X136310000Y-87915500D03*
X139800000Y-83600500D03*
X137120000Y-89850500D03*
X142800000Y-84600500D03*
X137930000Y-89850500D03*
X136310000Y-94845500D03*
X138300000Y-83600500D03*
X139800000Y-84600500D03*
X138300000Y-82600500D03*
X139590000Y-87280500D03*
X137120000Y-88725500D03*
X137120000Y-96465500D03*
X139800000Y-82600500D03*
X137930000Y-97550500D03*
X141300000Y-82600500D03*
X137800000Y-92950500D03*
X137930000Y-87915500D03*
X135400000Y-92950500D03*
X133850000Y-100450500D03*
X133850000Y-99550500D03*
X137120000Y-87105500D03*
X134200000Y-92950500D03*
X142800000Y-82600500D03*
X133800000Y-82600500D03*
X137120000Y-93750500D03*
X137930000Y-96465500D03*
X134200000Y-91950500D03*
X136310000Y-88725500D03*
X136310000Y-97550500D03*
X137930000Y-95655500D03*
X136310000Y-95655500D03*
X137930000Y-88725500D03*
X137750000Y-100450500D03*
X134200000Y-90950500D03*
X133850000Y-98650500D03*
X136600000Y-92950500D03*
X137800000Y-90950500D03*
X138300000Y-84600500D03*
X135400000Y-91950500D03*
X136800000Y-84600500D03*
X137930000Y-93750500D03*
X142800000Y-83600500D03*
X134650000Y-93750500D03*
X136310000Y-96465500D03*
X137750000Y-98650500D03*
X137120000Y-95655500D03*
X134650000Y-86010500D03*
X137750000Y-99550500D03*
X139590000Y-95020500D03*
X137800000Y-91950500D03*
X141300000Y-83600500D03*
X137120000Y-97550500D03*
X141300000Y-84600500D03*
%TO.N,Board_5-/OUT_A1*%
X159890000Y-96290500D03*
X163450000Y-97200500D03*
X163450000Y-95950500D03*
X162200000Y-95950500D03*
X162200000Y-97200500D03*
%TO.N,Board_5-/OUT_A2*%
X162100000Y-93450500D03*
X163350000Y-93450500D03*
X162100000Y-94700500D03*
X159890000Y-93760500D03*
X163350000Y-94700500D03*
%TO.N,Board_5-/OUT_B1*%
X162150000Y-88300500D03*
X163400000Y-89550500D03*
X159890000Y-88550500D03*
X163400000Y-88300500D03*
X162150000Y-89550500D03*
%TO.N,Board_5-/OUT_B2*%
X163300000Y-87050500D03*
X162050000Y-85800500D03*
X162050000Y-87050500D03*
X159890000Y-86010500D03*
X163300000Y-85800500D03*
%TO.N,Board_5-/VM*%
X162150000Y-92150500D03*
X159650000Y-98600500D03*
X159550000Y-90950500D03*
X163550000Y-99800500D03*
X159890000Y-97560500D03*
X160850000Y-90950500D03*
X159890000Y-89820500D03*
X163450000Y-92150500D03*
X162150000Y-90950500D03*
X163550000Y-98600500D03*
X160850000Y-92150500D03*
X162250000Y-98600500D03*
X163450000Y-90950500D03*
D14*
%TO.N,Board_5-/VREF*%
X153350000Y-90150500D03*
X153300000Y-97750500D03*
D13*
%TO.N,Board_5-GND*%
X157420000Y-96465500D03*
X158100000Y-92950500D03*
X163100000Y-84600500D03*
X156610000Y-86000500D03*
X156610000Y-95655500D03*
X159890000Y-87280500D03*
X157420000Y-97550500D03*
X158230000Y-86000500D03*
X154500000Y-91950500D03*
X163100000Y-82600500D03*
X155600000Y-83600500D03*
X157100000Y-84600500D03*
X155700000Y-91950500D03*
X158230000Y-95655500D03*
X157420000Y-89850500D03*
X156900000Y-92950500D03*
X157420000Y-87915500D03*
X156900000Y-91950500D03*
X160100000Y-83600500D03*
X163100000Y-83600500D03*
X156610000Y-88725500D03*
X157420000Y-95655500D03*
X157100000Y-82600500D03*
X157420000Y-87105500D03*
X154100000Y-83600500D03*
X154150000Y-98650500D03*
X158230000Y-88725500D03*
X158600000Y-82600500D03*
X157420000Y-88725500D03*
X156610000Y-96465500D03*
X155700000Y-92950500D03*
X158100000Y-91950500D03*
X157420000Y-86000500D03*
X154100000Y-84600500D03*
X154150000Y-100450500D03*
X158050000Y-100450500D03*
X158230000Y-87105500D03*
X156610000Y-89850500D03*
X158230000Y-89850500D03*
X156610000Y-87105500D03*
X156610000Y-87915500D03*
X154150000Y-99550500D03*
X158230000Y-93750500D03*
X154500000Y-90950500D03*
X158100000Y-90950500D03*
X157100000Y-83600500D03*
X156610000Y-93750500D03*
X160100000Y-84600500D03*
X154950000Y-93750500D03*
X158230000Y-96465500D03*
X161600000Y-84600500D03*
X158230000Y-87915500D03*
X158050000Y-98650500D03*
X154500000Y-92950500D03*
X155600000Y-84600500D03*
X158230000Y-94845500D03*
X157420000Y-94845500D03*
X154100000Y-82600500D03*
X157420000Y-93750500D03*
X155600000Y-82600500D03*
X154950000Y-86010500D03*
X158600000Y-84600500D03*
X158600000Y-83600500D03*
X159890000Y-95020500D03*
X156610000Y-97550500D03*
X160100000Y-82600500D03*
X161600000Y-82600500D03*
X158050000Y-99550500D03*
X155700000Y-90950500D03*
X156900000Y-90950500D03*
X158230000Y-97550500D03*
X156610000Y-94845500D03*
X161600000Y-83600500D03*
%TD*%
D15*
%TO.N,Board_0-/VREF*%
X133070000Y-44130500D02*
X133250000Y-43950500D01*
X131700000Y-44130500D02*
X133070000Y-44130500D01*
X133250000Y-43050500D02*
X133250000Y-43950500D01*
X133050000Y-42850500D02*
X133250000Y-43050500D01*
X133100000Y-50350500D02*
X133250000Y-50350500D01*
X133250000Y-43950500D02*
X133250000Y-44300500D01*
X133080000Y-44130500D02*
X133250000Y-44300500D01*
X133250000Y-50200500D02*
X133000000Y-50450500D01*
X133250000Y-44300500D02*
X133250000Y-50200500D01*
X133000000Y-50450500D02*
X133100000Y-50350500D01*
X133070000Y-44130500D02*
X133080000Y-44130500D01*
%TO.N,Board_1-/VREF*%
X153400000Y-50350500D02*
X153550000Y-50350500D01*
X153550000Y-43050500D02*
X153550000Y-43950500D01*
X153550000Y-43950500D02*
X153550000Y-44300500D01*
X153550000Y-44300500D02*
X153550000Y-50200500D01*
X153370000Y-44130500D02*
X153380000Y-44130500D01*
X153380000Y-44130500D02*
X153550000Y-44300500D01*
X152000000Y-44130500D02*
X153370000Y-44130500D01*
X153300000Y-50450500D02*
X153400000Y-50350500D01*
X153350000Y-42850500D02*
X153550000Y-43050500D01*
X153550000Y-50200500D02*
X153300000Y-50450500D01*
X153370000Y-44130500D02*
X153550000Y-43950500D01*
%TO.N,Board_2-/VREF*%
X133250000Y-67600500D02*
X133250000Y-67950500D01*
X133070000Y-67780500D02*
X133080000Y-67780500D01*
X133070000Y-67780500D02*
X133250000Y-67600500D01*
X133080000Y-67780500D02*
X133250000Y-67950500D01*
X133250000Y-66700500D02*
X133250000Y-67600500D01*
X133050000Y-66500500D02*
X133250000Y-66700500D01*
X131700000Y-67780500D02*
X133070000Y-67780500D01*
X133000000Y-74100500D02*
X133100000Y-74000500D01*
X133250000Y-67950500D02*
X133250000Y-73850500D01*
X133250000Y-73850500D02*
X133000000Y-74100500D01*
X133100000Y-74000500D02*
X133250000Y-74000500D01*
%TO.N,Board_3-/VREF*%
X153370000Y-67780500D02*
X153380000Y-67780500D01*
X153400000Y-74000500D02*
X153550000Y-74000500D01*
X153550000Y-67600500D02*
X153550000Y-67950500D01*
X152000000Y-67780500D02*
X153370000Y-67780500D01*
X153350000Y-66500500D02*
X153550000Y-66700500D01*
X153380000Y-67780500D02*
X153550000Y-67950500D01*
X153550000Y-66700500D02*
X153550000Y-67600500D01*
X153370000Y-67780500D02*
X153550000Y-67600500D01*
X153550000Y-67950500D02*
X153550000Y-73850500D01*
X153300000Y-74100500D02*
X153400000Y-74000500D01*
X153550000Y-73850500D02*
X153300000Y-74100500D01*
%TO.N,Board_4-/VREF*%
X133000000Y-97750500D02*
X133100000Y-97650500D01*
X131700000Y-91430500D02*
X133070000Y-91430500D01*
X133070000Y-91430500D02*
X133080000Y-91430500D01*
X133250000Y-91600500D02*
X133250000Y-97500500D01*
X133250000Y-91250500D02*
X133250000Y-91600500D01*
X133250000Y-97500500D02*
X133000000Y-97750500D01*
X133080000Y-91430500D02*
X133250000Y-91600500D01*
X133250000Y-90350500D02*
X133250000Y-91250500D01*
X133100000Y-97650500D02*
X133250000Y-97650500D01*
X133070000Y-91430500D02*
X133250000Y-91250500D01*
X133050000Y-90150500D02*
X133250000Y-90350500D01*
%TO.N,Board_5-/VREF*%
X153300000Y-97750500D02*
X153400000Y-97650500D01*
X152000000Y-91430500D02*
X153370000Y-91430500D01*
X153550000Y-97500500D02*
X153300000Y-97750500D01*
X153380000Y-91430500D02*
X153550000Y-91600500D01*
X153370000Y-91430500D02*
X153550000Y-91250500D01*
X153550000Y-91250500D02*
X153550000Y-91600500D01*
X153370000Y-91430500D02*
X153380000Y-91430500D01*
X153350000Y-90150500D02*
X153550000Y-90350500D01*
X153550000Y-90350500D02*
X153550000Y-91250500D01*
X153400000Y-97650500D02*
X153550000Y-97650500D01*
X153550000Y-91600500D02*
X153550000Y-97500500D01*
%TD*%
%TA.AperFunction,Conductor*%
%TO.N,Board_4-/VM*%
G36*
X140696288Y-89519454D02*
G01*
X140777070Y-89573430D01*
X140831046Y-89654212D01*
X140850000Y-89749500D01*
X140850000Y-90300500D01*
X140950000Y-90400500D01*
X145901000Y-90400500D01*
X145996288Y-90419454D01*
X146077070Y-90473430D01*
X146131046Y-90554212D01*
X146150000Y-90649500D01*
X146150000Y-92401500D01*
X146131046Y-92496788D01*
X146077070Y-92577570D01*
X145996288Y-92631546D01*
X145901000Y-92650500D01*
X139703140Y-92650500D01*
X139607852Y-92631546D01*
X139527070Y-92577570D01*
X138722930Y-91773430D01*
X138668954Y-91692648D01*
X138650000Y-91597360D01*
X138650000Y-89749500D01*
X138668954Y-89654212D01*
X138722930Y-89573430D01*
X138803712Y-89519454D01*
X138899000Y-89500500D01*
X140601000Y-89500500D01*
X140696288Y-89519454D01*
G37*
%TD.AperFunction*%
%TD*%
%TA.AperFunction,Conductor*%
%TO.N,Board_1-/OUT_B2*%
G36*
X166496288Y-37919454D02*
G01*
X166577070Y-37973430D01*
X166631046Y-38054212D01*
X166650000Y-38149500D01*
X166650000Y-39946610D01*
X166631046Y-40041898D01*
X166577070Y-40122680D01*
X166512350Y-40169324D01*
X166503776Y-40173611D01*
X166410073Y-40199267D01*
X166389867Y-40199880D01*
X161685174Y-40151388D01*
X161590086Y-40131453D01*
X161531810Y-40096532D01*
X161443070Y-40025254D01*
X161380649Y-39950805D01*
X161351469Y-39858135D01*
X161350000Y-39831123D01*
X161350000Y-39400500D01*
X161200000Y-39300500D01*
X159053890Y-39300500D01*
X158958602Y-39281546D01*
X158877820Y-39227570D01*
X158831178Y-39162856D01*
X158818821Y-39138142D01*
X158793159Y-39044437D01*
X158805311Y-38948045D01*
X158808705Y-38938514D01*
X158841785Y-38851291D01*
X158860094Y-38700500D01*
X158841785Y-38549709D01*
X158800611Y-38441143D01*
X158784545Y-38345329D01*
X158784772Y-38339829D01*
X158787547Y-38287095D01*
X158811484Y-38192938D01*
X158869632Y-38115106D01*
X158953139Y-38065450D01*
X159036924Y-38051188D01*
X164084650Y-38065850D01*
X164509555Y-37914870D01*
X164592924Y-37900500D01*
X166401000Y-37900500D01*
X166496288Y-37919454D01*
G37*
%TD.AperFunction*%
%TD*%
%TA.AperFunction,Conductor*%
%TO.N,Board_3-/OUT_A2*%
G36*
X166596288Y-69269454D02*
G01*
X166677070Y-69323430D01*
X166731046Y-69404212D01*
X166750000Y-69499500D01*
X166750000Y-71204339D01*
X166731046Y-71299627D01*
X166677070Y-71380409D01*
X166596288Y-71434385D01*
X166503856Y-71453323D01*
X161766481Y-71507670D01*
X161670982Y-71489810D01*
X161589587Y-71436764D01*
X161571810Y-71417457D01*
X161507185Y-71339382D01*
X161461027Y-71253892D01*
X161450000Y-71180611D01*
X161450000Y-70850501D01*
X161450000Y-70850500D01*
X161350000Y-70750500D01*
X161349999Y-70750500D01*
X160018498Y-70750500D01*
X159981006Y-70745947D01*
X159980901Y-70746816D01*
X159965952Y-70745000D01*
X159965949Y-70745000D01*
X159814051Y-70745000D01*
X159814047Y-70745000D01*
X159799099Y-70746816D01*
X159798993Y-70745947D01*
X159761502Y-70750500D01*
X159199000Y-70750500D01*
X159103712Y-70731546D01*
X159022930Y-70677570D01*
X158968954Y-70596788D01*
X158950000Y-70501500D01*
X158950000Y-69550680D01*
X158968954Y-69455392D01*
X159022930Y-69374610D01*
X159103712Y-69320634D01*
X159199000Y-69301680D01*
X159199943Y-69301682D01*
X159985977Y-69305400D01*
X159997000Y-69306339D01*
X159997032Y-69305699D01*
X160003133Y-69305999D01*
X160003140Y-69306000D01*
X160003147Y-69306000D01*
X160112079Y-69306000D01*
X160113257Y-69306003D01*
X164234650Y-69325500D01*
X164234650Y-69325499D01*
X164234651Y-69325500D01*
X164292189Y-69317126D01*
X164350804Y-69308595D01*
X164386663Y-69306000D01*
X166200997Y-69306000D01*
X166201000Y-69306000D01*
X166260600Y-69300130D01*
X166355888Y-69281176D01*
X166362791Y-69279720D01*
X166384182Y-69270569D01*
X166479245Y-69250517D01*
X166482118Y-69250500D01*
X166501000Y-69250500D01*
X166596288Y-69269454D01*
G37*
%TD.AperFunction*%
%TD*%
%TA.AperFunction,Conductor*%
%TO.N,Board_3-/OUT_B1*%
G36*
X161487601Y-64064866D02*
G01*
X161527401Y-64080453D01*
X161527404Y-64080453D01*
X161527405Y-64080454D01*
X161548085Y-64084789D01*
X161622489Y-64100388D01*
X161682025Y-64106872D01*
X166353567Y-64155022D01*
X166448654Y-64174957D01*
X166528875Y-64229763D01*
X166582016Y-64311097D01*
X166600000Y-64404009D01*
X166600000Y-66197360D01*
X166581046Y-66292648D01*
X166527070Y-66373430D01*
X166512379Y-66388121D01*
X166431597Y-66442097D01*
X166336309Y-66461051D01*
X166287734Y-66456267D01*
X166260597Y-66450869D01*
X166201003Y-66445000D01*
X166201000Y-66445000D01*
X161704500Y-66445000D01*
X161609212Y-66426046D01*
X161528430Y-66372070D01*
X161474454Y-66291288D01*
X161455500Y-66196000D01*
X161455500Y-66099503D01*
X161455500Y-66099500D01*
X161449630Y-66039900D01*
X161430676Y-65944612D01*
X161429220Y-65937709D01*
X161385061Y-65834487D01*
X161331085Y-65753705D01*
X161327095Y-65747880D01*
X161327092Y-65747877D01*
X161322876Y-65741722D01*
X161301172Y-65701673D01*
X161300000Y-65700501D01*
X161300000Y-65700500D01*
X161100000Y-65500500D01*
X161099999Y-65500500D01*
X159099000Y-65500500D01*
X159003712Y-65481546D01*
X158922930Y-65427570D01*
X158868954Y-65346788D01*
X158850000Y-65251500D01*
X158850000Y-65173697D01*
X158851815Y-65143685D01*
X158851838Y-65143493D01*
X158860094Y-65075500D01*
X158851815Y-65007312D01*
X158850000Y-64977301D01*
X158850000Y-64549500D01*
X158868954Y-64454212D01*
X158922930Y-64373430D01*
X159003712Y-64319454D01*
X159099000Y-64300500D01*
X160999999Y-64300500D01*
X161000000Y-64300500D01*
X161179048Y-64121451D01*
X161259827Y-64067478D01*
X161350322Y-64048570D01*
X161392021Y-64047768D01*
X161487601Y-64064866D01*
G37*
%TD.AperFunction*%
%TD*%
%TA.AperFunction,Conductor*%
%TO.N,Board_2-/VM*%
G36*
X140696288Y-65869454D02*
G01*
X140777070Y-65923430D01*
X140831046Y-66004212D01*
X140850000Y-66099500D01*
X140850000Y-66650500D01*
X140950000Y-66750500D01*
X145901000Y-66750500D01*
X145996288Y-66769454D01*
X146077070Y-66823430D01*
X146131046Y-66904212D01*
X146150000Y-66999500D01*
X146150000Y-68751500D01*
X146131046Y-68846788D01*
X146077070Y-68927570D01*
X145996288Y-68981546D01*
X145901000Y-69000500D01*
X139703140Y-69000500D01*
X139607852Y-68981546D01*
X139527070Y-68927570D01*
X138722930Y-68123430D01*
X138668954Y-68042648D01*
X138650000Y-67947360D01*
X138650000Y-66099500D01*
X138668954Y-66004212D01*
X138722930Y-65923430D01*
X138803712Y-65869454D01*
X138899000Y-65850500D01*
X140601000Y-65850500D01*
X140696288Y-65869454D01*
G37*
%TD.AperFunction*%
%TD*%
%TA.AperFunction,Conductor*%
%TO.N,Board_2-/OUT_B1*%
G36*
X141187601Y-64064866D02*
G01*
X141227401Y-64080453D01*
X141227404Y-64080453D01*
X141227405Y-64080454D01*
X141248085Y-64084789D01*
X141322489Y-64100388D01*
X141382025Y-64106872D01*
X146053567Y-64155022D01*
X146148654Y-64174957D01*
X146228875Y-64229763D01*
X146282016Y-64311097D01*
X146300000Y-64404009D01*
X146300000Y-66197360D01*
X146281046Y-66292648D01*
X146227070Y-66373430D01*
X146212379Y-66388121D01*
X146131597Y-66442097D01*
X146036309Y-66461051D01*
X145987734Y-66456267D01*
X145960597Y-66450869D01*
X145901003Y-66445000D01*
X145901000Y-66445000D01*
X141404500Y-66445000D01*
X141309212Y-66426046D01*
X141228430Y-66372070D01*
X141174454Y-66291288D01*
X141155500Y-66196000D01*
X141155500Y-66099503D01*
X141155500Y-66099500D01*
X141149630Y-66039900D01*
X141130676Y-65944612D01*
X141129220Y-65937709D01*
X141085061Y-65834487D01*
X141031085Y-65753705D01*
X141027095Y-65747880D01*
X141027092Y-65747877D01*
X141022876Y-65741722D01*
X141001172Y-65701673D01*
X141000000Y-65700501D01*
X141000000Y-65700500D01*
X140800000Y-65500500D01*
X140799999Y-65500500D01*
X138799000Y-65500500D01*
X138703712Y-65481546D01*
X138622930Y-65427570D01*
X138568954Y-65346788D01*
X138550000Y-65251500D01*
X138550000Y-65173697D01*
X138551815Y-65143685D01*
X138551838Y-65143493D01*
X138560094Y-65075500D01*
X138551815Y-65007312D01*
X138550000Y-64977301D01*
X138550000Y-64549500D01*
X138568954Y-64454212D01*
X138622930Y-64373430D01*
X138703712Y-64319454D01*
X138799000Y-64300500D01*
X140699999Y-64300500D01*
X140700000Y-64300500D01*
X140879048Y-64121451D01*
X140959827Y-64067478D01*
X141050322Y-64048570D01*
X141092021Y-64047768D01*
X141187601Y-64064866D01*
G37*
%TD.AperFunction*%
%TD*%
%TA.AperFunction,Conductor*%
%TO.N,Board_0-/VM*%
G36*
X140696288Y-42219454D02*
G01*
X140777070Y-42273430D01*
X140831046Y-42354212D01*
X140850000Y-42449500D01*
X140850000Y-43000500D01*
X140950000Y-43100500D01*
X145901000Y-43100500D01*
X145996288Y-43119454D01*
X146077070Y-43173430D01*
X146131046Y-43254212D01*
X146150000Y-43349500D01*
X146150000Y-45101500D01*
X146131046Y-45196788D01*
X146077070Y-45277570D01*
X145996288Y-45331546D01*
X145901000Y-45350500D01*
X139703140Y-45350500D01*
X139607852Y-45331546D01*
X139527070Y-45277570D01*
X138722930Y-44473430D01*
X138668954Y-44392648D01*
X138650000Y-44297360D01*
X138650000Y-42449500D01*
X138668954Y-42354212D01*
X138722930Y-42273430D01*
X138803712Y-42219454D01*
X138899000Y-42200500D01*
X140601000Y-42200500D01*
X140696288Y-42219454D01*
G37*
%TD.AperFunction*%
%TD*%
%TA.AperFunction,Conductor*%
%TO.N,Board_4-/OUT_A2*%
G36*
X146296288Y-92919454D02*
G01*
X146377070Y-92973430D01*
X146431046Y-93054212D01*
X146450000Y-93149500D01*
X146450000Y-94854339D01*
X146431046Y-94949627D01*
X146377070Y-95030409D01*
X146296288Y-95084385D01*
X146203856Y-95103323D01*
X141466481Y-95157670D01*
X141370982Y-95139810D01*
X141289587Y-95086764D01*
X141271810Y-95067457D01*
X141207185Y-94989382D01*
X141161027Y-94903892D01*
X141150000Y-94830611D01*
X141150000Y-94500501D01*
X141150000Y-94500500D01*
X141050000Y-94400500D01*
X141049999Y-94400500D01*
X139718498Y-94400500D01*
X139681006Y-94395947D01*
X139680901Y-94396816D01*
X139665952Y-94395000D01*
X139665949Y-94395000D01*
X139514051Y-94395000D01*
X139514047Y-94395000D01*
X139499099Y-94396816D01*
X139498993Y-94395947D01*
X139461502Y-94400500D01*
X138899000Y-94400500D01*
X138803712Y-94381546D01*
X138722930Y-94327570D01*
X138668954Y-94246788D01*
X138650000Y-94151500D01*
X138650000Y-93200680D01*
X138668954Y-93105392D01*
X138722930Y-93024610D01*
X138803712Y-92970634D01*
X138899000Y-92951680D01*
X138899943Y-92951682D01*
X139685977Y-92955400D01*
X139697000Y-92956339D01*
X139697032Y-92955699D01*
X139703133Y-92955999D01*
X139703140Y-92956000D01*
X139703147Y-92956000D01*
X139812079Y-92956000D01*
X139813257Y-92956003D01*
X143934650Y-92975500D01*
X143934650Y-92975499D01*
X143934651Y-92975500D01*
X143992189Y-92967126D01*
X144050804Y-92958595D01*
X144086663Y-92956000D01*
X145900997Y-92956000D01*
X145901000Y-92956000D01*
X145960600Y-92950130D01*
X146055888Y-92931176D01*
X146062791Y-92929720D01*
X146084182Y-92920569D01*
X146179245Y-92900517D01*
X146182118Y-92900500D01*
X146201000Y-92900500D01*
X146296288Y-92919454D01*
G37*
%TD.AperFunction*%
%TD*%
%TA.AperFunction,Conductor*%
%TO.N,Board_4-/OUT_A1*%
G36*
X146225243Y-95427553D02*
G01*
X146306638Y-95480599D01*
X146361466Y-95560589D01*
X146379866Y-95603521D01*
X146399981Y-95698570D01*
X146400000Y-95701609D01*
X146400000Y-97539689D01*
X146381046Y-97634977D01*
X146327070Y-97715759D01*
X146246288Y-97769735D01*
X146151000Y-97788689D01*
X146067094Y-97772503D01*
X146066917Y-97773100D01*
X146060868Y-97771303D01*
X146058385Y-97770824D01*
X146055889Y-97769824D01*
X145960595Y-97750869D01*
X145901003Y-97745000D01*
X145901000Y-97745000D01*
X141404500Y-97745000D01*
X141309212Y-97726046D01*
X141228430Y-97672070D01*
X141174454Y-97591288D01*
X141155500Y-97496000D01*
X141155500Y-97449503D01*
X141155500Y-97449500D01*
X141149630Y-97389900D01*
X141130676Y-97294612D01*
X141129220Y-97287709D01*
X141120068Y-97266315D01*
X141100017Y-97171251D01*
X141100000Y-97168381D01*
X141100000Y-97150501D01*
X141100000Y-97150500D01*
X140900000Y-96950500D01*
X140899999Y-96950500D01*
X140880471Y-96950500D01*
X140787846Y-96932631D01*
X140755886Y-96919823D01*
X140660595Y-96900869D01*
X140601003Y-96895000D01*
X140601000Y-96895000D01*
X138899000Y-96895000D01*
X138803712Y-96876046D01*
X138722930Y-96822070D01*
X138668954Y-96741288D01*
X138650000Y-96646000D01*
X138650000Y-95849500D01*
X138668954Y-95754212D01*
X138722930Y-95673430D01*
X138803712Y-95619454D01*
X138899000Y-95600500D01*
X139299217Y-95600500D01*
X139358807Y-95607736D01*
X139504560Y-95643660D01*
X139514051Y-95646000D01*
X139514055Y-95646000D01*
X139665945Y-95646000D01*
X139665949Y-95646000D01*
X139726212Y-95631146D01*
X139821193Y-95607736D01*
X139880783Y-95600500D01*
X140949999Y-95600500D01*
X140950000Y-95600500D01*
X140981005Y-95569494D01*
X141061783Y-95515520D01*
X141147498Y-95496750D01*
X142252052Y-95454267D01*
X142258624Y-95454102D01*
X146129746Y-95409693D01*
X146225243Y-95427553D01*
G37*
%TD.AperFunction*%
%TD*%
%TA.AperFunction,Conductor*%
%TO.N,Board_5-/OUT_B2*%
G36*
X166496288Y-85219454D02*
G01*
X166577070Y-85273430D01*
X166631046Y-85354212D01*
X166650000Y-85449500D01*
X166650000Y-87246610D01*
X166631046Y-87341898D01*
X166577070Y-87422680D01*
X166512350Y-87469324D01*
X166503776Y-87473611D01*
X166410073Y-87499267D01*
X166389867Y-87499880D01*
X161685174Y-87451388D01*
X161590086Y-87431453D01*
X161531810Y-87396532D01*
X161443070Y-87325254D01*
X161380649Y-87250805D01*
X161351469Y-87158135D01*
X161350000Y-87131123D01*
X161350000Y-86700500D01*
X161200000Y-86600500D01*
X159053890Y-86600500D01*
X158958602Y-86581546D01*
X158877820Y-86527570D01*
X158831178Y-86462856D01*
X158818821Y-86438142D01*
X158793159Y-86344437D01*
X158805311Y-86248045D01*
X158808705Y-86238514D01*
X158841785Y-86151291D01*
X158860094Y-86000500D01*
X158841785Y-85849709D01*
X158800611Y-85741143D01*
X158784545Y-85645329D01*
X158784772Y-85639829D01*
X158787547Y-85587095D01*
X158811484Y-85492938D01*
X158869632Y-85415106D01*
X158953139Y-85365450D01*
X159036924Y-85351188D01*
X164084650Y-85365850D01*
X164509555Y-85214870D01*
X164592924Y-85200500D01*
X166401000Y-85200500D01*
X166496288Y-85219454D01*
G37*
%TD.AperFunction*%
%TD*%
%TA.AperFunction,Conductor*%
%TO.N,Board_2-/OUT_B2*%
G36*
X146196288Y-61569454D02*
G01*
X146277070Y-61623430D01*
X146331046Y-61704212D01*
X146350000Y-61799500D01*
X146350000Y-63596610D01*
X146331046Y-63691898D01*
X146277070Y-63772680D01*
X146212350Y-63819324D01*
X146203776Y-63823611D01*
X146110073Y-63849267D01*
X146089867Y-63849880D01*
X141385174Y-63801388D01*
X141290086Y-63781453D01*
X141231810Y-63746532D01*
X141143070Y-63675254D01*
X141080649Y-63600805D01*
X141051469Y-63508135D01*
X141050000Y-63481123D01*
X141050000Y-63050500D01*
X140900000Y-62950500D01*
X138753890Y-62950500D01*
X138658602Y-62931546D01*
X138577820Y-62877570D01*
X138531178Y-62812856D01*
X138518821Y-62788142D01*
X138493159Y-62694437D01*
X138505311Y-62598045D01*
X138508705Y-62588514D01*
X138541785Y-62501291D01*
X138560094Y-62350500D01*
X138541785Y-62199709D01*
X138500611Y-62091143D01*
X138484545Y-61995329D01*
X138484772Y-61989829D01*
X138487547Y-61937095D01*
X138511484Y-61842938D01*
X138569632Y-61765106D01*
X138653139Y-61715450D01*
X138736924Y-61701188D01*
X143784650Y-61715850D01*
X144209555Y-61564870D01*
X144292924Y-61550500D01*
X146101000Y-61550500D01*
X146196288Y-61569454D01*
G37*
%TD.AperFunction*%
%TD*%
%TA.AperFunction,Conductor*%
%TO.N,Board_5-/OUT_A2*%
G36*
X166596288Y-92919454D02*
G01*
X166677070Y-92973430D01*
X166731046Y-93054212D01*
X166750000Y-93149500D01*
X166750000Y-94854339D01*
X166731046Y-94949627D01*
X166677070Y-95030409D01*
X166596288Y-95084385D01*
X166503856Y-95103323D01*
X161766481Y-95157670D01*
X161670982Y-95139810D01*
X161589587Y-95086764D01*
X161571810Y-95067457D01*
X161507185Y-94989382D01*
X161461027Y-94903892D01*
X161450000Y-94830611D01*
X161450000Y-94500501D01*
X161450000Y-94500500D01*
X161350000Y-94400500D01*
X161349999Y-94400500D01*
X160018498Y-94400500D01*
X159981006Y-94395947D01*
X159980901Y-94396816D01*
X159965952Y-94395000D01*
X159965949Y-94395000D01*
X159814051Y-94395000D01*
X159814047Y-94395000D01*
X159799099Y-94396816D01*
X159798993Y-94395947D01*
X159761502Y-94400500D01*
X159199000Y-94400500D01*
X159103712Y-94381546D01*
X159022930Y-94327570D01*
X158968954Y-94246788D01*
X158950000Y-94151500D01*
X158950000Y-93200680D01*
X158968954Y-93105392D01*
X159022930Y-93024610D01*
X159103712Y-92970634D01*
X159199000Y-92951680D01*
X159199943Y-92951682D01*
X159985977Y-92955400D01*
X159997000Y-92956339D01*
X159997032Y-92955699D01*
X160003133Y-92955999D01*
X160003140Y-92956000D01*
X160003147Y-92956000D01*
X160112079Y-92956000D01*
X160113257Y-92956003D01*
X164234650Y-92975500D01*
X164234650Y-92975499D01*
X164234651Y-92975500D01*
X164292189Y-92967126D01*
X164350804Y-92958595D01*
X164386663Y-92956000D01*
X166200997Y-92956000D01*
X166201000Y-92956000D01*
X166260600Y-92950130D01*
X166355888Y-92931176D01*
X166362791Y-92929720D01*
X166384182Y-92920569D01*
X166479245Y-92900517D01*
X166482118Y-92900500D01*
X166501000Y-92900500D01*
X166596288Y-92919454D01*
G37*
%TD.AperFunction*%
%TD*%
%TA.AperFunction,Conductor*%
%TO.N,Board_5-/VM*%
G36*
X160996288Y-89519454D02*
G01*
X161077070Y-89573430D01*
X161131046Y-89654212D01*
X161150000Y-89749500D01*
X161150000Y-90300500D01*
X161250000Y-90400500D01*
X166201000Y-90400500D01*
X166296288Y-90419454D01*
X166377070Y-90473430D01*
X166431046Y-90554212D01*
X166450000Y-90649500D01*
X166450000Y-92401500D01*
X166431046Y-92496788D01*
X166377070Y-92577570D01*
X166296288Y-92631546D01*
X166201000Y-92650500D01*
X160003140Y-92650500D01*
X159907852Y-92631546D01*
X159827070Y-92577570D01*
X159022930Y-91773430D01*
X158968954Y-91692648D01*
X158950000Y-91597360D01*
X158950000Y-89749500D01*
X158968954Y-89654212D01*
X159022930Y-89573430D01*
X159103712Y-89519454D01*
X159199000Y-89500500D01*
X160901000Y-89500500D01*
X160996288Y-89519454D01*
G37*
%TD.AperFunction*%
%TD*%
%TA.AperFunction,Conductor*%
%TO.N,Board_2-/OUT_A1*%
G36*
X146225243Y-71777553D02*
G01*
X146306638Y-71830599D01*
X146361466Y-71910589D01*
X146379866Y-71953521D01*
X146399981Y-72048570D01*
X146400000Y-72051609D01*
X146400000Y-73889689D01*
X146381046Y-73984977D01*
X146327070Y-74065759D01*
X146246288Y-74119735D01*
X146151000Y-74138689D01*
X146067094Y-74122503D01*
X146066917Y-74123100D01*
X146060868Y-74121303D01*
X146058385Y-74120824D01*
X146055889Y-74119824D01*
X145960595Y-74100869D01*
X145901003Y-74095000D01*
X145901000Y-74095000D01*
X141404500Y-74095000D01*
X141309212Y-74076046D01*
X141228430Y-74022070D01*
X141174454Y-73941288D01*
X141155500Y-73846000D01*
X141155500Y-73799503D01*
X141155500Y-73799500D01*
X141149630Y-73739900D01*
X141130676Y-73644612D01*
X141129220Y-73637709D01*
X141120068Y-73616315D01*
X141100017Y-73521251D01*
X141100000Y-73518381D01*
X141100000Y-73500501D01*
X141100000Y-73500500D01*
X140900000Y-73300500D01*
X140899999Y-73300500D01*
X140880471Y-73300500D01*
X140787846Y-73282631D01*
X140755886Y-73269823D01*
X140660595Y-73250869D01*
X140601003Y-73245000D01*
X140601000Y-73245000D01*
X138899000Y-73245000D01*
X138803712Y-73226046D01*
X138722930Y-73172070D01*
X138668954Y-73091288D01*
X138650000Y-72996000D01*
X138650000Y-72199500D01*
X138668954Y-72104212D01*
X138722930Y-72023430D01*
X138803712Y-71969454D01*
X138899000Y-71950500D01*
X139299217Y-71950500D01*
X139358807Y-71957736D01*
X139504560Y-71993660D01*
X139514051Y-71996000D01*
X139514055Y-71996000D01*
X139665945Y-71996000D01*
X139665949Y-71996000D01*
X139726212Y-71981146D01*
X139821193Y-71957736D01*
X139880783Y-71950500D01*
X140949999Y-71950500D01*
X140950000Y-71950500D01*
X140981005Y-71919494D01*
X141061783Y-71865520D01*
X141147498Y-71846750D01*
X142252052Y-71804267D01*
X142258624Y-71804102D01*
X146129746Y-71759693D01*
X146225243Y-71777553D01*
G37*
%TD.AperFunction*%
%TD*%
%TA.AperFunction,Conductor*%
%TO.N,Board_3-/VM*%
G36*
X160996288Y-65869454D02*
G01*
X161077070Y-65923430D01*
X161131046Y-66004212D01*
X161150000Y-66099500D01*
X161150000Y-66650500D01*
X161250000Y-66750500D01*
X166201000Y-66750500D01*
X166296288Y-66769454D01*
X166377070Y-66823430D01*
X166431046Y-66904212D01*
X166450000Y-66999500D01*
X166450000Y-68751500D01*
X166431046Y-68846788D01*
X166377070Y-68927570D01*
X166296288Y-68981546D01*
X166201000Y-69000500D01*
X160003140Y-69000500D01*
X159907852Y-68981546D01*
X159827070Y-68927570D01*
X159022930Y-68123430D01*
X158968954Y-68042648D01*
X158950000Y-67947360D01*
X158950000Y-66099500D01*
X158968954Y-66004212D01*
X159022930Y-65923430D01*
X159103712Y-65869454D01*
X159199000Y-65850500D01*
X160901000Y-65850500D01*
X160996288Y-65869454D01*
G37*
%TD.AperFunction*%
%TD*%
%TA.AperFunction,Conductor*%
%TO.N,Board_3-/OUT_A1*%
G36*
X166525243Y-71777553D02*
G01*
X166606638Y-71830599D01*
X166661466Y-71910589D01*
X166679866Y-71953521D01*
X166699981Y-72048570D01*
X166700000Y-72051609D01*
X166700000Y-73889689D01*
X166681046Y-73984977D01*
X166627070Y-74065759D01*
X166546288Y-74119735D01*
X166451000Y-74138689D01*
X166367094Y-74122503D01*
X166366917Y-74123100D01*
X166360868Y-74121303D01*
X166358385Y-74120824D01*
X166355889Y-74119824D01*
X166260595Y-74100869D01*
X166201003Y-74095000D01*
X166201000Y-74095000D01*
X161704500Y-74095000D01*
X161609212Y-74076046D01*
X161528430Y-74022070D01*
X161474454Y-73941288D01*
X161455500Y-73846000D01*
X161455500Y-73799503D01*
X161455500Y-73799500D01*
X161449630Y-73739900D01*
X161430676Y-73644612D01*
X161429220Y-73637709D01*
X161420068Y-73616315D01*
X161400017Y-73521251D01*
X161400000Y-73518381D01*
X161400000Y-73500501D01*
X161400000Y-73500500D01*
X161200000Y-73300500D01*
X161199999Y-73300500D01*
X161180471Y-73300500D01*
X161087846Y-73282631D01*
X161055886Y-73269823D01*
X160960595Y-73250869D01*
X160901003Y-73245000D01*
X160901000Y-73245000D01*
X159199000Y-73245000D01*
X159103712Y-73226046D01*
X159022930Y-73172070D01*
X158968954Y-73091288D01*
X158950000Y-72996000D01*
X158950000Y-72199500D01*
X158968954Y-72104212D01*
X159022930Y-72023430D01*
X159103712Y-71969454D01*
X159199000Y-71950500D01*
X159599217Y-71950500D01*
X159658807Y-71957736D01*
X159804560Y-71993660D01*
X159814051Y-71996000D01*
X159814055Y-71996000D01*
X159965945Y-71996000D01*
X159965949Y-71996000D01*
X160026212Y-71981146D01*
X160121193Y-71957736D01*
X160180783Y-71950500D01*
X161249999Y-71950500D01*
X161250000Y-71950500D01*
X161281005Y-71919494D01*
X161361783Y-71865520D01*
X161447498Y-71846750D01*
X162552052Y-71804267D01*
X162558624Y-71804102D01*
X166429746Y-71759693D01*
X166525243Y-71777553D01*
G37*
%TD.AperFunction*%
%TD*%
%TA.AperFunction,Conductor*%
%TO.N,Board_1-/OUT_A1*%
G36*
X166525243Y-48127553D02*
G01*
X166606638Y-48180599D01*
X166661466Y-48260589D01*
X166679866Y-48303521D01*
X166699981Y-48398570D01*
X166700000Y-48401609D01*
X166700000Y-50239689D01*
X166681046Y-50334977D01*
X166627070Y-50415759D01*
X166546288Y-50469735D01*
X166451000Y-50488689D01*
X166367094Y-50472503D01*
X166366917Y-50473100D01*
X166360868Y-50471303D01*
X166358385Y-50470824D01*
X166355889Y-50469824D01*
X166260595Y-50450869D01*
X166201003Y-50445000D01*
X166201000Y-50445000D01*
X161704500Y-50445000D01*
X161609212Y-50426046D01*
X161528430Y-50372070D01*
X161474454Y-50291288D01*
X161455500Y-50196000D01*
X161455500Y-50149503D01*
X161455500Y-50149500D01*
X161449630Y-50089900D01*
X161430676Y-49994612D01*
X161429220Y-49987709D01*
X161420068Y-49966315D01*
X161400017Y-49871251D01*
X161400000Y-49868381D01*
X161400000Y-49850501D01*
X161400000Y-49850500D01*
X161200000Y-49650500D01*
X161199999Y-49650500D01*
X161180471Y-49650500D01*
X161087846Y-49632631D01*
X161055886Y-49619823D01*
X160960595Y-49600869D01*
X160901003Y-49595000D01*
X160901000Y-49595000D01*
X159199000Y-49595000D01*
X159103712Y-49576046D01*
X159022930Y-49522070D01*
X158968954Y-49441288D01*
X158950000Y-49346000D01*
X158950000Y-48549500D01*
X158968954Y-48454212D01*
X159022930Y-48373430D01*
X159103712Y-48319454D01*
X159199000Y-48300500D01*
X159599217Y-48300500D01*
X159658807Y-48307736D01*
X159804560Y-48343660D01*
X159814051Y-48346000D01*
X159814055Y-48346000D01*
X159965945Y-48346000D01*
X159965949Y-48346000D01*
X160026212Y-48331146D01*
X160121193Y-48307736D01*
X160180783Y-48300500D01*
X161249999Y-48300500D01*
X161250000Y-48300500D01*
X161281005Y-48269494D01*
X161361783Y-48215520D01*
X161447498Y-48196750D01*
X162552052Y-48154267D01*
X162558624Y-48154102D01*
X166429746Y-48109693D01*
X166525243Y-48127553D01*
G37*
%TD.AperFunction*%
%TD*%
%TA.AperFunction,Conductor*%
%TO.N,Board_0-/OUT_B1*%
G36*
X141187601Y-40414866D02*
G01*
X141227401Y-40430453D01*
X141227404Y-40430453D01*
X141227405Y-40430454D01*
X141248085Y-40434789D01*
X141322489Y-40450388D01*
X141382025Y-40456872D01*
X146053567Y-40505022D01*
X146148654Y-40524957D01*
X146228875Y-40579763D01*
X146282016Y-40661097D01*
X146300000Y-40754009D01*
X146300000Y-42547360D01*
X146281046Y-42642648D01*
X146227070Y-42723430D01*
X146212379Y-42738121D01*
X146131597Y-42792097D01*
X146036309Y-42811051D01*
X145987734Y-42806267D01*
X145960597Y-42800869D01*
X145901003Y-42795000D01*
X145901000Y-42795000D01*
X141404500Y-42795000D01*
X141309212Y-42776046D01*
X141228430Y-42722070D01*
X141174454Y-42641288D01*
X141155500Y-42546000D01*
X141155500Y-42449503D01*
X141155500Y-42449500D01*
X141149630Y-42389900D01*
X141130676Y-42294612D01*
X141129220Y-42287709D01*
X141085061Y-42184487D01*
X141031085Y-42103705D01*
X141027095Y-42097880D01*
X141027092Y-42097877D01*
X141022876Y-42091722D01*
X141001172Y-42051673D01*
X141000000Y-42050501D01*
X141000000Y-42050500D01*
X140800000Y-41850500D01*
X140799999Y-41850500D01*
X138799000Y-41850500D01*
X138703712Y-41831546D01*
X138622930Y-41777570D01*
X138568954Y-41696788D01*
X138550000Y-41601500D01*
X138550000Y-41523697D01*
X138551815Y-41493685D01*
X138551838Y-41493493D01*
X138560094Y-41425500D01*
X138551815Y-41357312D01*
X138550000Y-41327301D01*
X138550000Y-40899500D01*
X138568954Y-40804212D01*
X138622930Y-40723430D01*
X138703712Y-40669454D01*
X138799000Y-40650500D01*
X140699999Y-40650500D01*
X140700000Y-40650500D01*
X140879048Y-40471451D01*
X140959827Y-40417478D01*
X141050322Y-40398570D01*
X141092021Y-40397768D01*
X141187601Y-40414866D01*
G37*
%TD.AperFunction*%
%TD*%
%TA.AperFunction,Conductor*%
%TO.N,Board_1-/OUT_A2*%
G36*
X166596288Y-45619454D02*
G01*
X166677070Y-45673430D01*
X166731046Y-45754212D01*
X166750000Y-45849500D01*
X166750000Y-47554339D01*
X166731046Y-47649627D01*
X166677070Y-47730409D01*
X166596288Y-47784385D01*
X166503856Y-47803323D01*
X161766481Y-47857670D01*
X161670982Y-47839810D01*
X161589587Y-47786764D01*
X161571810Y-47767457D01*
X161507185Y-47689382D01*
X161461027Y-47603892D01*
X161450000Y-47530611D01*
X161450000Y-47200501D01*
X161450000Y-47200500D01*
X161350000Y-47100500D01*
X161349999Y-47100500D01*
X160018498Y-47100500D01*
X159981006Y-47095947D01*
X159980901Y-47096816D01*
X159965952Y-47095000D01*
X159965949Y-47095000D01*
X159814051Y-47095000D01*
X159814047Y-47095000D01*
X159799099Y-47096816D01*
X159798993Y-47095947D01*
X159761502Y-47100500D01*
X159199000Y-47100500D01*
X159103712Y-47081546D01*
X159022930Y-47027570D01*
X158968954Y-46946788D01*
X158950000Y-46851500D01*
X158950000Y-45900680D01*
X158968954Y-45805392D01*
X159022930Y-45724610D01*
X159103712Y-45670634D01*
X159199000Y-45651680D01*
X159199943Y-45651682D01*
X159985977Y-45655400D01*
X159997000Y-45656339D01*
X159997032Y-45655699D01*
X160003133Y-45655999D01*
X160003140Y-45656000D01*
X160003147Y-45656000D01*
X160112079Y-45656000D01*
X160113257Y-45656003D01*
X164234650Y-45675500D01*
X164234650Y-45675499D01*
X164234651Y-45675500D01*
X164292189Y-45667126D01*
X164350804Y-45658595D01*
X164386663Y-45656000D01*
X166200997Y-45656000D01*
X166201000Y-45656000D01*
X166260600Y-45650130D01*
X166355888Y-45631176D01*
X166362791Y-45629720D01*
X166384182Y-45620569D01*
X166479245Y-45600517D01*
X166482118Y-45600500D01*
X166501000Y-45600500D01*
X166596288Y-45619454D01*
G37*
%TD.AperFunction*%
%TD*%
%TA.AperFunction,Conductor*%
%TO.N,Board_2-/VM*%
G36*
X140696288Y-73569454D02*
G01*
X140777070Y-73623430D01*
X140831046Y-73704212D01*
X140850000Y-73799500D01*
X140850000Y-74250500D01*
X141000000Y-74400500D01*
X145901000Y-74400500D01*
X145996288Y-74419454D01*
X146077070Y-74473430D01*
X146131046Y-74554212D01*
X146150000Y-74649500D01*
X146150000Y-76301500D01*
X146131046Y-76396788D01*
X146077070Y-76477570D01*
X145996288Y-76531546D01*
X145901000Y-76550500D01*
X139653140Y-76550500D01*
X139557852Y-76531546D01*
X139477070Y-76477570D01*
X138722930Y-75723430D01*
X138668954Y-75642648D01*
X138650000Y-75547360D01*
X138650000Y-73799500D01*
X138668954Y-73704212D01*
X138722930Y-73623430D01*
X138803712Y-73569454D01*
X138899000Y-73550500D01*
X140601000Y-73550500D01*
X140696288Y-73569454D01*
G37*
%TD.AperFunction*%
%TD*%
%TA.AperFunction,Conductor*%
%TO.N,Board_1-/VM*%
G36*
X160996288Y-42219454D02*
G01*
X161077070Y-42273430D01*
X161131046Y-42354212D01*
X161150000Y-42449500D01*
X161150000Y-43000500D01*
X161250000Y-43100500D01*
X166201000Y-43100500D01*
X166296288Y-43119454D01*
X166377070Y-43173430D01*
X166431046Y-43254212D01*
X166450000Y-43349500D01*
X166450000Y-45101500D01*
X166431046Y-45196788D01*
X166377070Y-45277570D01*
X166296288Y-45331546D01*
X166201000Y-45350500D01*
X160003140Y-45350500D01*
X159907852Y-45331546D01*
X159827070Y-45277570D01*
X159022930Y-44473430D01*
X158968954Y-44392648D01*
X158950000Y-44297360D01*
X158950000Y-42449500D01*
X158968954Y-42354212D01*
X159022930Y-42273430D01*
X159103712Y-42219454D01*
X159199000Y-42200500D01*
X160901000Y-42200500D01*
X160996288Y-42219454D01*
G37*
%TD.AperFunction*%
%TD*%
%TA.AperFunction,Conductor*%
%TO.N,Board_0-/OUT_A1*%
G36*
X146225243Y-48127553D02*
G01*
X146306638Y-48180599D01*
X146361466Y-48260589D01*
X146379866Y-48303521D01*
X146399981Y-48398570D01*
X146400000Y-48401609D01*
X146400000Y-50239689D01*
X146381046Y-50334977D01*
X146327070Y-50415759D01*
X146246288Y-50469735D01*
X146151000Y-50488689D01*
X146067094Y-50472503D01*
X146066917Y-50473100D01*
X146060868Y-50471303D01*
X146058385Y-50470824D01*
X146055889Y-50469824D01*
X145960595Y-50450869D01*
X145901003Y-50445000D01*
X145901000Y-50445000D01*
X141404500Y-50445000D01*
X141309212Y-50426046D01*
X141228430Y-50372070D01*
X141174454Y-50291288D01*
X141155500Y-50196000D01*
X141155500Y-50149503D01*
X141155500Y-50149500D01*
X141149630Y-50089900D01*
X141130676Y-49994612D01*
X141129220Y-49987709D01*
X141120068Y-49966315D01*
X141100017Y-49871251D01*
X141100000Y-49868381D01*
X141100000Y-49850501D01*
X141100000Y-49850500D01*
X140900000Y-49650500D01*
X140899999Y-49650500D01*
X140880471Y-49650500D01*
X140787846Y-49632631D01*
X140755886Y-49619823D01*
X140660595Y-49600869D01*
X140601003Y-49595000D01*
X140601000Y-49595000D01*
X138899000Y-49595000D01*
X138803712Y-49576046D01*
X138722930Y-49522070D01*
X138668954Y-49441288D01*
X138650000Y-49346000D01*
X138650000Y-48549500D01*
X138668954Y-48454212D01*
X138722930Y-48373430D01*
X138803712Y-48319454D01*
X138899000Y-48300500D01*
X139299217Y-48300500D01*
X139358807Y-48307736D01*
X139504560Y-48343660D01*
X139514051Y-48346000D01*
X139514055Y-48346000D01*
X139665945Y-48346000D01*
X139665949Y-48346000D01*
X139726212Y-48331146D01*
X139821193Y-48307736D01*
X139880783Y-48300500D01*
X140949999Y-48300500D01*
X140950000Y-48300500D01*
X140981005Y-48269494D01*
X141061783Y-48215520D01*
X141147498Y-48196750D01*
X142252052Y-48154267D01*
X142258624Y-48154102D01*
X146129746Y-48109693D01*
X146225243Y-48127553D01*
G37*
%TD.AperFunction*%
%TD*%
%TA.AperFunction,Conductor*%
%TO.N,Board_0-/OUT_B2*%
G36*
X146196288Y-37919454D02*
G01*
X146277070Y-37973430D01*
X146331046Y-38054212D01*
X146350000Y-38149500D01*
X146350000Y-39946610D01*
X146331046Y-40041898D01*
X146277070Y-40122680D01*
X146212350Y-40169324D01*
X146203776Y-40173611D01*
X146110073Y-40199267D01*
X146089867Y-40199880D01*
X141385174Y-40151388D01*
X141290086Y-40131453D01*
X141231810Y-40096532D01*
X141143070Y-40025254D01*
X141080649Y-39950805D01*
X141051469Y-39858135D01*
X141050000Y-39831123D01*
X141050000Y-39400500D01*
X140900000Y-39300500D01*
X138753890Y-39300500D01*
X138658602Y-39281546D01*
X138577820Y-39227570D01*
X138531178Y-39162856D01*
X138518821Y-39138142D01*
X138493159Y-39044437D01*
X138505311Y-38948045D01*
X138508705Y-38938514D01*
X138541785Y-38851291D01*
X138560094Y-38700500D01*
X138541785Y-38549709D01*
X138500611Y-38441143D01*
X138484545Y-38345329D01*
X138484772Y-38339829D01*
X138487547Y-38287095D01*
X138511484Y-38192938D01*
X138569632Y-38115106D01*
X138653139Y-38065450D01*
X138736924Y-38051188D01*
X143784650Y-38065850D01*
X144209555Y-37914870D01*
X144292924Y-37900500D01*
X146101000Y-37900500D01*
X146196288Y-37919454D01*
G37*
%TD.AperFunction*%
%TD*%
%TA.AperFunction,Conductor*%
%TO.N,Board_0-GND*%
G36*
X146443039Y-34670185D02*
G01*
X146488794Y-34722989D01*
X146500000Y-34774500D01*
X146500000Y-37534372D01*
X146480315Y-37601411D01*
X146427511Y-37647166D01*
X146358353Y-37657110D01*
X146329873Y-37649473D01*
X146255889Y-37619824D01*
X146255883Y-37619822D01*
X146160598Y-37600869D01*
X146112738Y-37596156D01*
X146101000Y-37595000D01*
X144292924Y-37595000D01*
X144241031Y-37599440D01*
X144157662Y-37613810D01*
X144157660Y-37613810D01*
X144157651Y-37613812D01*
X144157650Y-37613812D01*
X144107272Y-37627001D01*
X143752734Y-37752977D01*
X143710857Y-37760133D01*
X138737814Y-37745688D01*
X138685663Y-37750019D01*
X138652588Y-37755649D01*
X138601874Y-37764282D01*
X138601871Y-37764282D01*
X138601871Y-37764283D01*
X138496997Y-37802866D01*
X138413520Y-37852504D01*
X138407469Y-37856198D01*
X138324892Y-37932260D01*
X138324885Y-37932268D01*
X138266754Y-38010077D01*
X138262587Y-38015792D01*
X138215402Y-38117667D01*
X138215398Y-38117677D01*
X138191469Y-38211807D01*
X138191465Y-38211824D01*
X138191463Y-38211836D01*
X138191462Y-38211842D01*
X138182469Y-38271031D01*
X138182469Y-38271038D01*
X138179693Y-38323790D01*
X138179526Y-38327348D01*
X138179304Y-38332725D01*
X138179305Y-38332738D01*
X138183249Y-38395830D01*
X138183250Y-38395844D01*
X138183250Y-38395849D01*
X138183251Y-38395850D01*
X138186807Y-38417060D01*
X138199319Y-38491675D01*
X138214959Y-38549460D01*
X138214962Y-38549470D01*
X138237644Y-38609278D01*
X138244797Y-38638302D01*
X138250534Y-38685553D01*
X138250534Y-38715445D01*
X138244797Y-38762695D01*
X138237644Y-38791717D01*
X138223063Y-38830165D01*
X138220898Y-38836056D01*
X138217514Y-38845555D01*
X138202209Y-38909836D01*
X138190060Y-39006201D01*
X138189256Y-39013238D01*
X138189256Y-39013247D01*
X138198507Y-39125124D01*
X138198509Y-39125135D01*
X138224169Y-39218831D01*
X138224172Y-39218842D01*
X138245569Y-39274757D01*
X138245571Y-39274761D01*
X138245573Y-39274766D01*
X138245574Y-39274766D01*
X138245574Y-39274767D01*
X138257931Y-39299483D01*
X138283340Y-39341481D01*
X138283341Y-39341482D01*
X138329983Y-39406196D01*
X138408095Y-39481585D01*
X138434097Y-39498959D01*
X138488843Y-39535539D01*
X138488877Y-39535561D01*
X138494788Y-39539412D01*
X138599002Y-39581176D01*
X138599004Y-39581176D01*
X138599006Y-39581177D01*
X138644499Y-39590226D01*
X138694290Y-39600130D01*
X138753890Y-39606000D01*
X140620500Y-39606000D01*
X140687539Y-39625685D01*
X140733294Y-39678489D01*
X140744500Y-39730000D01*
X140744500Y-39831126D01*
X140744951Y-39847712D01*
X140746419Y-39874713D01*
X140746420Y-39874724D01*
X140760074Y-39949893D01*
X140789256Y-40042569D01*
X140792604Y-40052786D01*
X140794770Y-40122622D01*
X140758835Y-40182543D01*
X140743657Y-40194495D01*
X140709321Y-40217436D01*
X140663020Y-40255434D01*
X140609776Y-40308680D01*
X140548453Y-40342166D01*
X140522094Y-40345000D01*
X138799000Y-40345000D01*
X138787262Y-40346156D01*
X138739402Y-40350869D01*
X138739400Y-40350869D01*
X138644119Y-40369822D01*
X138637211Y-40371279D01*
X138533987Y-40415438D01*
X138453152Y-40469450D01*
X138447382Y-40473402D01*
X138447378Y-40473405D01*
X138368913Y-40553706D01*
X138314921Y-40634513D01*
X138311090Y-40640394D01*
X138311087Y-40640400D01*
X138269324Y-40744610D01*
X138269322Y-40744616D01*
X138250369Y-40839900D01*
X138250369Y-40839902D01*
X138244500Y-40899502D01*
X138244500Y-41327317D01*
X138245055Y-41345723D01*
X138246872Y-41375765D01*
X138248542Y-41394141D01*
X138250535Y-41410558D01*
X138250535Y-41440442D01*
X138248565Y-41456668D01*
X138248566Y-41456669D01*
X138248495Y-41457255D01*
X138248487Y-41457318D01*
X138246871Y-41475255D01*
X138245055Y-41505274D01*
X138244500Y-41523680D01*
X138244500Y-41601497D01*
X138250369Y-41661097D01*
X138250369Y-41661099D01*
X138269322Y-41756380D01*
X138270779Y-41763288D01*
X138314939Y-41866512D01*
X138314938Y-41866512D01*
X138368950Y-41947347D01*
X138372902Y-41953117D01*
X138372905Y-41953121D01*
X138418216Y-41997396D01*
X138452408Y-42058328D01*
X138448229Y-42128073D01*
X138434659Y-42154972D01*
X138414922Y-42184512D01*
X138411090Y-42190394D01*
X138411087Y-42190400D01*
X138369324Y-42294610D01*
X138369322Y-42294616D01*
X138350369Y-42389900D01*
X138350369Y-42389902D01*
X138344500Y-42449502D01*
X138344500Y-44297357D01*
X138350369Y-44356957D01*
X138350369Y-44356959D01*
X138369322Y-44452240D01*
X138370779Y-44459148D01*
X138414939Y-44562372D01*
X138414939Y-44562374D01*
X138451169Y-44616596D01*
X138467609Y-44641201D01*
X138468918Y-44643159D01*
X138506913Y-44689456D01*
X138954562Y-45137105D01*
X138988047Y-45198428D01*
X138983063Y-45268120D01*
X138941191Y-45324053D01*
X138878906Y-45348201D01*
X138839400Y-45352050D01*
X138839390Y-45352051D01*
X138839385Y-45352052D01*
X138744102Y-45371005D01*
X138737211Y-45372459D01*
X138633987Y-45416618D01*
X138553152Y-45470630D01*
X138547382Y-45474582D01*
X138547378Y-45474585D01*
X138468913Y-45554886D01*
X138414921Y-45635693D01*
X138411090Y-45641574D01*
X138411087Y-45641580D01*
X138369324Y-45745790D01*
X138369322Y-45745796D01*
X138350369Y-45841080D01*
X138350369Y-45841082D01*
X138344500Y-45900682D01*
X138344500Y-46851497D01*
X138350369Y-46911097D01*
X138350369Y-46911099D01*
X138369322Y-47006380D01*
X138370779Y-47013288D01*
X138414939Y-47116512D01*
X138414938Y-47116512D01*
X138414939Y-47116513D01*
X138458161Y-47181201D01*
X138468950Y-47197347D01*
X138472902Y-47203117D01*
X138472905Y-47203121D01*
X138518470Y-47247644D01*
X138553205Y-47281585D01*
X138633987Y-47335561D01*
X138639898Y-47339412D01*
X138744112Y-47381176D01*
X138744114Y-47381176D01*
X138744116Y-47381177D01*
X138792400Y-47390781D01*
X138839400Y-47400130D01*
X138899000Y-47406000D01*
X138899002Y-47406000D01*
X139461491Y-47406000D01*
X139461502Y-47406000D01*
X139498332Y-47403772D01*
X139514418Y-47401818D01*
X139517833Y-47401404D01*
X139532778Y-47400500D01*
X139645005Y-47400500D01*
X139654201Y-47400842D01*
X139656018Y-47400977D01*
X139659978Y-47401272D01*
X139665655Y-47401826D01*
X139681669Y-47403772D01*
X139681680Y-47403772D01*
X139681683Y-47403773D01*
X139691960Y-47404394D01*
X139718498Y-47406000D01*
X140720500Y-47406000D01*
X140787539Y-47425685D01*
X140833294Y-47478489D01*
X140844130Y-47528303D01*
X140844413Y-47528293D01*
X140844472Y-47529871D01*
X140844500Y-47530000D01*
X140844500Y-47530611D01*
X140846080Y-47551730D01*
X140847900Y-47576067D01*
X140858928Y-47649351D01*
X140878917Y-47709227D01*
X140892207Y-47749034D01*
X140910429Y-47782784D01*
X140922851Y-47805790D01*
X140937380Y-47874133D01*
X140912654Y-47939481D01*
X140882638Y-47967799D01*
X140877102Y-47971498D01*
X140873212Y-47974097D01*
X140806538Y-47994980D01*
X140804315Y-47995000D01*
X139880776Y-47995000D01*
X139843956Y-47997227D01*
X139784382Y-48004462D01*
X139784360Y-48004465D01*
X139748078Y-48011114D01*
X139653097Y-48034524D01*
X139653096Y-48034523D01*
X139643473Y-48036896D01*
X139613796Y-48040500D01*
X139566203Y-48040500D01*
X139536529Y-48036897D01*
X139431924Y-48011115D01*
X139431907Y-48011111D01*
X139395645Y-48004466D01*
X139395640Y-48004465D01*
X139395633Y-48004464D01*
X139395617Y-48004462D01*
X139336043Y-47997227D01*
X139299223Y-47995000D01*
X139299217Y-47995000D01*
X138899000Y-47995000D01*
X138887262Y-47996156D01*
X138839402Y-48000869D01*
X138839400Y-48000869D01*
X138744119Y-48019822D01*
X138737211Y-48021279D01*
X138633987Y-48065438D01*
X138553152Y-48119450D01*
X138547382Y-48123402D01*
X138547378Y-48123405D01*
X138468913Y-48203706D01*
X138414921Y-48284513D01*
X138411090Y-48290394D01*
X138411087Y-48290400D01*
X138369324Y-48394610D01*
X138369322Y-48394616D01*
X138350369Y-48489900D01*
X138350369Y-48489902D01*
X138344500Y-48549502D01*
X138344500Y-49345997D01*
X138350369Y-49405597D01*
X138350369Y-49405599D01*
X138369322Y-49500880D01*
X138370779Y-49507788D01*
X138414938Y-49611012D01*
X138460272Y-49678859D01*
X138481149Y-49745536D01*
X138462664Y-49812916D01*
X138460273Y-49816638D01*
X138414908Y-49884533D01*
X138411090Y-49890394D01*
X138411087Y-49890400D01*
X138369324Y-49994610D01*
X138369322Y-49994616D01*
X138350369Y-50089900D01*
X138350369Y-50089902D01*
X138344500Y-50149502D01*
X138344500Y-51897357D01*
X138350369Y-51956957D01*
X138350369Y-51956959D01*
X138369322Y-52052240D01*
X138369911Y-52055034D01*
X138370780Y-52059151D01*
X138372938Y-52064196D01*
X138414939Y-52162372D01*
X138414939Y-52162374D01*
X138468918Y-52243159D01*
X138506913Y-52289456D01*
X139261043Y-53043586D01*
X139261048Y-53043590D01*
X139261049Y-53043591D01*
X139280650Y-53059677D01*
X139302485Y-53077597D01*
X139307345Y-53081585D01*
X139388127Y-53135561D01*
X139394038Y-53139412D01*
X139498252Y-53181176D01*
X139498254Y-53181176D01*
X139498256Y-53181177D01*
X139546540Y-53190781D01*
X139593540Y-53200130D01*
X139653140Y-53206000D01*
X140157332Y-53206000D01*
X140224371Y-53225685D01*
X140232062Y-53231048D01*
X140233955Y-53232477D01*
X140233959Y-53232481D01*
X140407363Y-53339848D01*
X140590701Y-53410873D01*
X140646102Y-53453446D01*
X140669693Y-53519213D01*
X140653982Y-53587293D01*
X140603958Y-53636072D01*
X140545907Y-53650500D01*
X130324000Y-53650500D01*
X130256961Y-53630815D01*
X130211206Y-53578011D01*
X130200000Y-53526500D01*
X130200000Y-49843939D01*
X130219685Y-49776900D01*
X130272489Y-49731145D01*
X130341647Y-49721201D01*
X130405203Y-49750226D01*
X130434485Y-49787644D01*
X130487715Y-49892114D01*
X130608028Y-50057713D01*
X130752786Y-50202471D01*
X130907749Y-50315056D01*
X130918390Y-50322787D01*
X131034607Y-50382003D01*
X131100776Y-50415718D01*
X131100778Y-50415718D01*
X131100781Y-50415720D01*
X131205137Y-50449627D01*
X131295465Y-50478977D01*
X131396557Y-50494988D01*
X131497648Y-50511000D01*
X131497649Y-50511000D01*
X131902351Y-50511000D01*
X131902352Y-50511000D01*
X132104534Y-50478977D01*
X132147221Y-50465106D01*
X132217059Y-50463112D01*
X132276892Y-50499192D01*
X132307721Y-50561892D01*
X132308633Y-50568091D01*
X132314859Y-50619368D01*
X132314860Y-50619374D01*
X132375182Y-50778431D01*
X132420864Y-50844612D01*
X132471817Y-50918429D01*
X132563328Y-50999500D01*
X132599150Y-51031236D01*
X132749773Y-51110289D01*
X132749775Y-51110290D01*
X132914944Y-51151000D01*
X133085056Y-51151000D01*
X133250225Y-51110290D01*
X133329692Y-51068581D01*
X133400849Y-51031236D01*
X133400850Y-51031234D01*
X133400852Y-51031234D01*
X133528183Y-50918429D01*
X133624818Y-50778430D01*
X133685140Y-50619372D01*
X133705645Y-50450500D01*
X133703669Y-50434227D01*
X133703757Y-50418255D01*
X133702900Y-50418255D01*
X133702900Y-50282747D01*
X133703008Y-50282747D01*
X133703008Y-50268253D01*
X133702900Y-50268253D01*
X133702900Y-43127105D01*
X133710957Y-43083136D01*
X133735140Y-43019372D01*
X133755645Y-42850500D01*
X133735140Y-42681628D01*
X133674818Y-42522570D01*
X133578183Y-42382571D01*
X133478895Y-42294610D01*
X133450849Y-42269763D01*
X133300226Y-42190710D01*
X133127773Y-42148205D01*
X133128467Y-42145389D01*
X133076611Y-42123040D01*
X133037584Y-42065087D01*
X133036083Y-41995233D01*
X133037844Y-41989310D01*
X133068477Y-41895034D01*
X133100500Y-41692852D01*
X133100500Y-41488148D01*
X133077942Y-41345723D01*
X133068477Y-41285965D01*
X133005218Y-41091276D01*
X132965515Y-41013355D01*
X132912287Y-40908890D01*
X132862165Y-40839902D01*
X132791971Y-40743286D01*
X132647213Y-40598528D01*
X132481614Y-40478215D01*
X132464343Y-40469415D01*
X132388917Y-40430983D01*
X132338123Y-40383011D01*
X132321328Y-40315190D01*
X132343865Y-40249055D01*
X132388917Y-40210016D01*
X132481610Y-40162787D01*
X132633015Y-40052786D01*
X132647213Y-40042471D01*
X132647215Y-40042468D01*
X132647219Y-40042466D01*
X132791966Y-39897719D01*
X132791968Y-39897715D01*
X132791971Y-39897713D01*
X132844732Y-39825090D01*
X132912287Y-39732110D01*
X133005220Y-39549719D01*
X133068477Y-39355034D01*
X133100500Y-39152852D01*
X133100500Y-38948148D01*
X133068477Y-38745966D01*
X133005220Y-38551281D01*
X133005218Y-38551278D01*
X133005218Y-38551276D01*
X132965515Y-38473355D01*
X132912287Y-38368890D01*
X132882020Y-38327231D01*
X132791971Y-38203286D01*
X132647213Y-38058528D01*
X132481613Y-37938215D01*
X132481612Y-37938214D01*
X132481610Y-37938213D01*
X132424653Y-37909191D01*
X132299223Y-37845281D01*
X132104534Y-37782022D01*
X131929995Y-37754378D01*
X131902352Y-37750000D01*
X131497648Y-37750000D01*
X131478852Y-37752977D01*
X131295465Y-37782022D01*
X131100776Y-37845281D01*
X130918386Y-37938215D01*
X130752786Y-38058528D01*
X130608028Y-38203286D01*
X130487715Y-38368886D01*
X130434485Y-38473355D01*
X130386510Y-38524151D01*
X130318689Y-38540946D01*
X130252554Y-38518408D01*
X130209103Y-38463693D01*
X130200000Y-38417060D01*
X130200000Y-34774500D01*
X130219685Y-34707461D01*
X130272489Y-34661706D01*
X130324000Y-34650500D01*
X146376000Y-34650500D01*
X146443039Y-34670185D01*
G37*
%TD.AperFunction*%
%TD*%
%TA.AperFunction,Conductor*%
%TO.N,Board_4-/OUT_B2*%
G36*
X146196288Y-85219454D02*
G01*
X146277070Y-85273430D01*
X146331046Y-85354212D01*
X146350000Y-85449500D01*
X146350000Y-87246610D01*
X146331046Y-87341898D01*
X146277070Y-87422680D01*
X146212350Y-87469324D01*
X146203776Y-87473611D01*
X146110073Y-87499267D01*
X146089867Y-87499880D01*
X141385174Y-87451388D01*
X141290086Y-87431453D01*
X141231810Y-87396532D01*
X141143070Y-87325254D01*
X141080649Y-87250805D01*
X141051469Y-87158135D01*
X141050000Y-87131123D01*
X141050000Y-86700500D01*
X140900000Y-86600500D01*
X138753890Y-86600500D01*
X138658602Y-86581546D01*
X138577820Y-86527570D01*
X138531178Y-86462856D01*
X138518821Y-86438142D01*
X138493159Y-86344437D01*
X138505311Y-86248045D01*
X138508705Y-86238514D01*
X138541785Y-86151291D01*
X138560094Y-86000500D01*
X138541785Y-85849709D01*
X138500611Y-85741143D01*
X138484545Y-85645329D01*
X138484772Y-85639829D01*
X138487547Y-85587095D01*
X138511484Y-85492938D01*
X138569632Y-85415106D01*
X138653139Y-85365450D01*
X138736924Y-85351188D01*
X143784650Y-85365850D01*
X144209555Y-85214870D01*
X144292924Y-85200500D01*
X146101000Y-85200500D01*
X146196288Y-85219454D01*
G37*
%TD.AperFunction*%
%TD*%
%TA.AperFunction,Conductor*%
%TO.N,Board_0-/VM*%
G36*
X140696288Y-49919454D02*
G01*
X140777070Y-49973430D01*
X140831046Y-50054212D01*
X140850000Y-50149500D01*
X140850000Y-50600500D01*
X141000000Y-50750500D01*
X145901000Y-50750500D01*
X145996288Y-50769454D01*
X146077070Y-50823430D01*
X146131046Y-50904212D01*
X146150000Y-50999500D01*
X146150000Y-52651500D01*
X146131046Y-52746788D01*
X146077070Y-52827570D01*
X145996288Y-52881546D01*
X145901000Y-52900500D01*
X139653140Y-52900500D01*
X139557852Y-52881546D01*
X139477070Y-52827570D01*
X138722930Y-52073430D01*
X138668954Y-51992648D01*
X138650000Y-51897360D01*
X138650000Y-50149500D01*
X138668954Y-50054212D01*
X138722930Y-49973430D01*
X138803712Y-49919454D01*
X138899000Y-49900500D01*
X140601000Y-49900500D01*
X140696288Y-49919454D01*
G37*
%TD.AperFunction*%
%TD*%
%TA.AperFunction,Conductor*%
%TO.N,Board_4-/VM*%
G36*
X140696288Y-97219454D02*
G01*
X140777070Y-97273430D01*
X140831046Y-97354212D01*
X140850000Y-97449500D01*
X140850000Y-97900500D01*
X141000000Y-98050500D01*
X145901000Y-98050500D01*
X145996288Y-98069454D01*
X146077070Y-98123430D01*
X146131046Y-98204212D01*
X146150000Y-98299500D01*
X146150000Y-99951500D01*
X146131046Y-100046788D01*
X146077070Y-100127570D01*
X145996288Y-100181546D01*
X145901000Y-100200500D01*
X139653140Y-100200500D01*
X139557852Y-100181546D01*
X139477070Y-100127570D01*
X138722930Y-99373430D01*
X138668954Y-99292648D01*
X138650000Y-99197360D01*
X138650000Y-97449500D01*
X138668954Y-97354212D01*
X138722930Y-97273430D01*
X138803712Y-97219454D01*
X138899000Y-97200500D01*
X140601000Y-97200500D01*
X140696288Y-97219454D01*
G37*
%TD.AperFunction*%
%TD*%
%TA.AperFunction,Conductor*%
%TO.N,Board_3-/VM*%
G36*
X160996288Y-73569454D02*
G01*
X161077070Y-73623430D01*
X161131046Y-73704212D01*
X161150000Y-73799500D01*
X161150000Y-74250500D01*
X161300000Y-74400500D01*
X166201000Y-74400500D01*
X166296288Y-74419454D01*
X166377070Y-74473430D01*
X166431046Y-74554212D01*
X166450000Y-74649500D01*
X166450000Y-76301500D01*
X166431046Y-76396788D01*
X166377070Y-76477570D01*
X166296288Y-76531546D01*
X166201000Y-76550500D01*
X159953140Y-76550500D01*
X159857852Y-76531546D01*
X159777070Y-76477570D01*
X159022930Y-75723430D01*
X158968954Y-75642648D01*
X158950000Y-75547360D01*
X158950000Y-73799500D01*
X158968954Y-73704212D01*
X159022930Y-73623430D01*
X159103712Y-73569454D01*
X159199000Y-73550500D01*
X160901000Y-73550500D01*
X160996288Y-73569454D01*
G37*
%TD.AperFunction*%
%TD*%
%TA.AperFunction,Conductor*%
%TO.N,Board_5-/OUT_B1*%
G36*
X161487601Y-87714866D02*
G01*
X161527401Y-87730453D01*
X161527404Y-87730453D01*
X161527405Y-87730454D01*
X161548085Y-87734789D01*
X161622489Y-87750388D01*
X161682025Y-87756872D01*
X166353567Y-87805022D01*
X166448654Y-87824957D01*
X166528875Y-87879763D01*
X166582016Y-87961097D01*
X166600000Y-88054009D01*
X166600000Y-89847360D01*
X166581046Y-89942648D01*
X166527070Y-90023430D01*
X166512379Y-90038121D01*
X166431597Y-90092097D01*
X166336309Y-90111051D01*
X166287734Y-90106267D01*
X166260597Y-90100869D01*
X166201003Y-90095000D01*
X166201000Y-90095000D01*
X161704500Y-90095000D01*
X161609212Y-90076046D01*
X161528430Y-90022070D01*
X161474454Y-89941288D01*
X161455500Y-89846000D01*
X161455500Y-89749503D01*
X161455500Y-89749500D01*
X161449630Y-89689900D01*
X161430676Y-89594612D01*
X161429220Y-89587709D01*
X161385061Y-89484487D01*
X161331085Y-89403705D01*
X161327095Y-89397880D01*
X161327092Y-89397877D01*
X161322876Y-89391722D01*
X161301172Y-89351673D01*
X161300000Y-89350501D01*
X161300000Y-89350500D01*
X161100000Y-89150500D01*
X161099999Y-89150500D01*
X159099000Y-89150500D01*
X159003712Y-89131546D01*
X158922930Y-89077570D01*
X158868954Y-88996788D01*
X158850000Y-88901500D01*
X158850000Y-88823697D01*
X158851815Y-88793685D01*
X158851838Y-88793493D01*
X158860094Y-88725500D01*
X158851815Y-88657312D01*
X158850000Y-88627301D01*
X158850000Y-88199500D01*
X158868954Y-88104212D01*
X158922930Y-88023430D01*
X159003712Y-87969454D01*
X159099000Y-87950500D01*
X160999999Y-87950500D01*
X161000000Y-87950500D01*
X161179048Y-87771451D01*
X161259827Y-87717478D01*
X161350322Y-87698570D01*
X161392021Y-87697768D01*
X161487601Y-87714866D01*
G37*
%TD.AperFunction*%
%TD*%
%TA.AperFunction,Conductor*%
%TO.N,Board_5-/OUT_A1*%
G36*
X166525243Y-95427553D02*
G01*
X166606638Y-95480599D01*
X166661466Y-95560589D01*
X166679866Y-95603521D01*
X166699981Y-95698570D01*
X166700000Y-95701609D01*
X166700000Y-97539689D01*
X166681046Y-97634977D01*
X166627070Y-97715759D01*
X166546288Y-97769735D01*
X166451000Y-97788689D01*
X166367094Y-97772503D01*
X166366917Y-97773100D01*
X166360868Y-97771303D01*
X166358385Y-97770824D01*
X166355889Y-97769824D01*
X166260595Y-97750869D01*
X166201003Y-97745000D01*
X166201000Y-97745000D01*
X161704500Y-97745000D01*
X161609212Y-97726046D01*
X161528430Y-97672070D01*
X161474454Y-97591288D01*
X161455500Y-97496000D01*
X161455500Y-97449503D01*
X161455500Y-97449500D01*
X161449630Y-97389900D01*
X161430676Y-97294612D01*
X161429220Y-97287709D01*
X161420068Y-97266315D01*
X161400017Y-97171251D01*
X161400000Y-97168381D01*
X161400000Y-97150501D01*
X161400000Y-97150500D01*
X161200000Y-96950500D01*
X161199999Y-96950500D01*
X161180471Y-96950500D01*
X161087846Y-96932631D01*
X161055886Y-96919823D01*
X160960595Y-96900869D01*
X160901003Y-96895000D01*
X160901000Y-96895000D01*
X159199000Y-96895000D01*
X159103712Y-96876046D01*
X159022930Y-96822070D01*
X158968954Y-96741288D01*
X158950000Y-96646000D01*
X158950000Y-95849500D01*
X158968954Y-95754212D01*
X159022930Y-95673430D01*
X159103712Y-95619454D01*
X159199000Y-95600500D01*
X159599217Y-95600500D01*
X159658807Y-95607736D01*
X159804560Y-95643660D01*
X159814051Y-95646000D01*
X159814055Y-95646000D01*
X159965945Y-95646000D01*
X159965949Y-95646000D01*
X160026212Y-95631146D01*
X160121193Y-95607736D01*
X160180783Y-95600500D01*
X161249999Y-95600500D01*
X161250000Y-95600500D01*
X161281005Y-95569494D01*
X161361783Y-95515520D01*
X161447498Y-95496750D01*
X162552052Y-95454267D01*
X162558624Y-95454102D01*
X166429746Y-95409693D01*
X166525243Y-95427553D01*
G37*
%TD.AperFunction*%
%TD*%
%TA.AperFunction,Conductor*%
%TO.N,Board_5-/VM*%
G36*
X160996288Y-97219454D02*
G01*
X161077070Y-97273430D01*
X161131046Y-97354212D01*
X161150000Y-97449500D01*
X161150000Y-97900500D01*
X161300000Y-98050500D01*
X166201000Y-98050500D01*
X166296288Y-98069454D01*
X166377070Y-98123430D01*
X166431046Y-98204212D01*
X166450000Y-98299500D01*
X166450000Y-99951500D01*
X166431046Y-100046788D01*
X166377070Y-100127570D01*
X166296288Y-100181546D01*
X166201000Y-100200500D01*
X159953140Y-100200500D01*
X159857852Y-100181546D01*
X159777070Y-100127570D01*
X159022930Y-99373430D01*
X158968954Y-99292648D01*
X158950000Y-99197360D01*
X158950000Y-97449500D01*
X158968954Y-97354212D01*
X159022930Y-97273430D01*
X159103712Y-97219454D01*
X159199000Y-97200500D01*
X160901000Y-97200500D01*
X160996288Y-97219454D01*
G37*
%TD.AperFunction*%
%TD*%
%TA.AperFunction,Conductor*%
%TO.N,Board_1-/VM*%
G36*
X160996288Y-49919454D02*
G01*
X161077070Y-49973430D01*
X161131046Y-50054212D01*
X161150000Y-50149500D01*
X161150000Y-50600500D01*
X161300000Y-50750500D01*
X166201000Y-50750500D01*
X166296288Y-50769454D01*
X166377070Y-50823430D01*
X166431046Y-50904212D01*
X166450000Y-50999500D01*
X166450000Y-52651500D01*
X166431046Y-52746788D01*
X166377070Y-52827570D01*
X166296288Y-52881546D01*
X166201000Y-52900500D01*
X159953140Y-52900500D01*
X159857852Y-52881546D01*
X159777070Y-52827570D01*
X159022930Y-52073430D01*
X158968954Y-51992648D01*
X158950000Y-51897360D01*
X158950000Y-50149500D01*
X158968954Y-50054212D01*
X159022930Y-49973430D01*
X159103712Y-49919454D01*
X159199000Y-49900500D01*
X160901000Y-49900500D01*
X160996288Y-49919454D01*
G37*
%TD.AperFunction*%
%TD*%
%TA.AperFunction,Conductor*%
%TO.N,Board_1-GND*%
G36*
X166743039Y-34670185D02*
G01*
X166788794Y-34722989D01*
X166800000Y-34774500D01*
X166800000Y-37534372D01*
X166780315Y-37601411D01*
X166727511Y-37647166D01*
X166658353Y-37657110D01*
X166629873Y-37649473D01*
X166555889Y-37619824D01*
X166555883Y-37619822D01*
X166460598Y-37600869D01*
X166412738Y-37596156D01*
X166401000Y-37595000D01*
X164592924Y-37595000D01*
X164541031Y-37599440D01*
X164457662Y-37613810D01*
X164457660Y-37613810D01*
X164457651Y-37613812D01*
X164457650Y-37613812D01*
X164407272Y-37627001D01*
X164052734Y-37752977D01*
X164010857Y-37760133D01*
X159037814Y-37745688D01*
X158985663Y-37750019D01*
X158952588Y-37755649D01*
X158901874Y-37764282D01*
X158901871Y-37764282D01*
X158901871Y-37764283D01*
X158796997Y-37802866D01*
X158713520Y-37852504D01*
X158707469Y-37856198D01*
X158624892Y-37932260D01*
X158624885Y-37932268D01*
X158566754Y-38010077D01*
X158562587Y-38015792D01*
X158515402Y-38117667D01*
X158515398Y-38117677D01*
X158491469Y-38211807D01*
X158491465Y-38211824D01*
X158491463Y-38211836D01*
X158491462Y-38211842D01*
X158482469Y-38271031D01*
X158482469Y-38271038D01*
X158479693Y-38323790D01*
X158479526Y-38327348D01*
X158479304Y-38332725D01*
X158479305Y-38332738D01*
X158483249Y-38395830D01*
X158483250Y-38395844D01*
X158483250Y-38395849D01*
X158483251Y-38395850D01*
X158486807Y-38417060D01*
X158499319Y-38491675D01*
X158514959Y-38549460D01*
X158514962Y-38549470D01*
X158537644Y-38609278D01*
X158544797Y-38638302D01*
X158550534Y-38685553D01*
X158550534Y-38715445D01*
X158544797Y-38762695D01*
X158537644Y-38791717D01*
X158523063Y-38830165D01*
X158520898Y-38836056D01*
X158517514Y-38845555D01*
X158502209Y-38909836D01*
X158490060Y-39006201D01*
X158489256Y-39013238D01*
X158489256Y-39013247D01*
X158498507Y-39125124D01*
X158498509Y-39125135D01*
X158524169Y-39218831D01*
X158524172Y-39218842D01*
X158545569Y-39274757D01*
X158545571Y-39274761D01*
X158545573Y-39274766D01*
X158545574Y-39274766D01*
X158545574Y-39274767D01*
X158557931Y-39299483D01*
X158583340Y-39341481D01*
X158583341Y-39341482D01*
X158629983Y-39406196D01*
X158708095Y-39481585D01*
X158734097Y-39498959D01*
X158788843Y-39535539D01*
X158788877Y-39535561D01*
X158794788Y-39539412D01*
X158899002Y-39581176D01*
X158899004Y-39581176D01*
X158899006Y-39581177D01*
X158944499Y-39590226D01*
X158994290Y-39600130D01*
X159053890Y-39606000D01*
X160920500Y-39606000D01*
X160987539Y-39625685D01*
X161033294Y-39678489D01*
X161044500Y-39730000D01*
X161044500Y-39831126D01*
X161044951Y-39847712D01*
X161046419Y-39874713D01*
X161046420Y-39874724D01*
X161060074Y-39949893D01*
X161089256Y-40042569D01*
X161092604Y-40052786D01*
X161094770Y-40122622D01*
X161058835Y-40182543D01*
X161043657Y-40194495D01*
X161009321Y-40217436D01*
X160963020Y-40255434D01*
X160909776Y-40308680D01*
X160848453Y-40342166D01*
X160822094Y-40345000D01*
X159099000Y-40345000D01*
X159087262Y-40346156D01*
X159039402Y-40350869D01*
X159039400Y-40350869D01*
X158944119Y-40369822D01*
X158937211Y-40371279D01*
X158833987Y-40415438D01*
X158753152Y-40469450D01*
X158747382Y-40473402D01*
X158747378Y-40473405D01*
X158668913Y-40553706D01*
X158614921Y-40634513D01*
X158611090Y-40640394D01*
X158611087Y-40640400D01*
X158569324Y-40744610D01*
X158569322Y-40744616D01*
X158550369Y-40839900D01*
X158550369Y-40839902D01*
X158544500Y-40899502D01*
X158544500Y-41327317D01*
X158545055Y-41345723D01*
X158546872Y-41375765D01*
X158548542Y-41394141D01*
X158550535Y-41410558D01*
X158550535Y-41440442D01*
X158548565Y-41456668D01*
X158548566Y-41456669D01*
X158548495Y-41457255D01*
X158548487Y-41457318D01*
X158546871Y-41475255D01*
X158545055Y-41505274D01*
X158544500Y-41523680D01*
X158544500Y-41601497D01*
X158550369Y-41661097D01*
X158550369Y-41661099D01*
X158569322Y-41756380D01*
X158570779Y-41763288D01*
X158614939Y-41866512D01*
X158614938Y-41866512D01*
X158668950Y-41947347D01*
X158672902Y-41953117D01*
X158672905Y-41953121D01*
X158718216Y-41997396D01*
X158752408Y-42058328D01*
X158748229Y-42128073D01*
X158734659Y-42154972D01*
X158714922Y-42184512D01*
X158711090Y-42190394D01*
X158711087Y-42190400D01*
X158669324Y-42294610D01*
X158669322Y-42294616D01*
X158650369Y-42389900D01*
X158650369Y-42389902D01*
X158644500Y-42449502D01*
X158644500Y-44297357D01*
X158650369Y-44356957D01*
X158650369Y-44356959D01*
X158669322Y-44452240D01*
X158670779Y-44459148D01*
X158714939Y-44562372D01*
X158714939Y-44562374D01*
X158751169Y-44616596D01*
X158767609Y-44641201D01*
X158768918Y-44643159D01*
X158806913Y-44689456D01*
X159254562Y-45137105D01*
X159288047Y-45198428D01*
X159283063Y-45268120D01*
X159241191Y-45324053D01*
X159178906Y-45348201D01*
X159139400Y-45352050D01*
X159139390Y-45352051D01*
X159139385Y-45352052D01*
X159044102Y-45371005D01*
X159037211Y-45372459D01*
X158933987Y-45416618D01*
X158853152Y-45470630D01*
X158847382Y-45474582D01*
X158847378Y-45474585D01*
X158768913Y-45554886D01*
X158714921Y-45635693D01*
X158711090Y-45641574D01*
X158711087Y-45641580D01*
X158669324Y-45745790D01*
X158669322Y-45745796D01*
X158650369Y-45841080D01*
X158650369Y-45841082D01*
X158644500Y-45900682D01*
X158644500Y-46851497D01*
X158650369Y-46911097D01*
X158650369Y-46911099D01*
X158669322Y-47006380D01*
X158670779Y-47013288D01*
X158714939Y-47116512D01*
X158714938Y-47116512D01*
X158714939Y-47116513D01*
X158758161Y-47181201D01*
X158768950Y-47197347D01*
X158772902Y-47203117D01*
X158772905Y-47203121D01*
X158818470Y-47247644D01*
X158853205Y-47281585D01*
X158933987Y-47335561D01*
X158939898Y-47339412D01*
X159044112Y-47381176D01*
X159044114Y-47381176D01*
X159044116Y-47381177D01*
X159092400Y-47390781D01*
X159139400Y-47400130D01*
X159199000Y-47406000D01*
X159199002Y-47406000D01*
X159761491Y-47406000D01*
X159761502Y-47406000D01*
X159798332Y-47403772D01*
X159814418Y-47401818D01*
X159817833Y-47401404D01*
X159832778Y-47400500D01*
X159945005Y-47400500D01*
X159954201Y-47400842D01*
X159956018Y-47400977D01*
X159959978Y-47401272D01*
X159965655Y-47401826D01*
X159981669Y-47403772D01*
X159981680Y-47403772D01*
X159981683Y-47403773D01*
X159991960Y-47404394D01*
X160018498Y-47406000D01*
X161020500Y-47406000D01*
X161087539Y-47425685D01*
X161133294Y-47478489D01*
X161144130Y-47528303D01*
X161144413Y-47528293D01*
X161144472Y-47529871D01*
X161144500Y-47530000D01*
X161144500Y-47530611D01*
X161146080Y-47551730D01*
X161147900Y-47576067D01*
X161158928Y-47649351D01*
X161178917Y-47709227D01*
X161192207Y-47749034D01*
X161210429Y-47782784D01*
X161222851Y-47805790D01*
X161237380Y-47874133D01*
X161212654Y-47939481D01*
X161182638Y-47967799D01*
X161177102Y-47971498D01*
X161173212Y-47974097D01*
X161106538Y-47994980D01*
X161104315Y-47995000D01*
X160180776Y-47995000D01*
X160143956Y-47997227D01*
X160084382Y-48004462D01*
X160084360Y-48004465D01*
X160048078Y-48011114D01*
X159953097Y-48034524D01*
X159953096Y-48034523D01*
X159943473Y-48036896D01*
X159913796Y-48040500D01*
X159866203Y-48040500D01*
X159836529Y-48036897D01*
X159731924Y-48011115D01*
X159731907Y-48011111D01*
X159695645Y-48004466D01*
X159695640Y-48004465D01*
X159695633Y-48004464D01*
X159695617Y-48004462D01*
X159636043Y-47997227D01*
X159599223Y-47995000D01*
X159599217Y-47995000D01*
X159199000Y-47995000D01*
X159187262Y-47996156D01*
X159139402Y-48000869D01*
X159139400Y-48000869D01*
X159044119Y-48019822D01*
X159037211Y-48021279D01*
X158933987Y-48065438D01*
X158853152Y-48119450D01*
X158847382Y-48123402D01*
X158847378Y-48123405D01*
X158768913Y-48203706D01*
X158714921Y-48284513D01*
X158711090Y-48290394D01*
X158711087Y-48290400D01*
X158669324Y-48394610D01*
X158669322Y-48394616D01*
X158650369Y-48489900D01*
X158650369Y-48489902D01*
X158644500Y-48549502D01*
X158644500Y-49345997D01*
X158650369Y-49405597D01*
X158650369Y-49405599D01*
X158669322Y-49500880D01*
X158670779Y-49507788D01*
X158714938Y-49611012D01*
X158760272Y-49678859D01*
X158781149Y-49745536D01*
X158762664Y-49812916D01*
X158760273Y-49816638D01*
X158714908Y-49884533D01*
X158711090Y-49890394D01*
X158711087Y-49890400D01*
X158669324Y-49994610D01*
X158669322Y-49994616D01*
X158650369Y-50089900D01*
X158650369Y-50089902D01*
X158644500Y-50149502D01*
X158644500Y-51897357D01*
X158650369Y-51956957D01*
X158650369Y-51956959D01*
X158669322Y-52052240D01*
X158669911Y-52055034D01*
X158670780Y-52059151D01*
X158672938Y-52064196D01*
X158714939Y-52162372D01*
X158714939Y-52162374D01*
X158768918Y-52243159D01*
X158806913Y-52289456D01*
X159561043Y-53043586D01*
X159561048Y-53043590D01*
X159561049Y-53043591D01*
X159580650Y-53059677D01*
X159602485Y-53077597D01*
X159607345Y-53081585D01*
X159688127Y-53135561D01*
X159694038Y-53139412D01*
X159798252Y-53181176D01*
X159798254Y-53181176D01*
X159798256Y-53181177D01*
X159846540Y-53190781D01*
X159893540Y-53200130D01*
X159953140Y-53206000D01*
X160457332Y-53206000D01*
X160524371Y-53225685D01*
X160532062Y-53231048D01*
X160533955Y-53232477D01*
X160533959Y-53232481D01*
X160707363Y-53339848D01*
X160890701Y-53410873D01*
X160946102Y-53453446D01*
X160969693Y-53519213D01*
X160953982Y-53587293D01*
X160903958Y-53636072D01*
X160845907Y-53650500D01*
X150624000Y-53650500D01*
X150556961Y-53630815D01*
X150511206Y-53578011D01*
X150500000Y-53526500D01*
X150500000Y-49843939D01*
X150519685Y-49776900D01*
X150572489Y-49731145D01*
X150641647Y-49721201D01*
X150705203Y-49750226D01*
X150734485Y-49787644D01*
X150787715Y-49892114D01*
X150908028Y-50057713D01*
X151052786Y-50202471D01*
X151207749Y-50315056D01*
X151218390Y-50322787D01*
X151334607Y-50382003D01*
X151400776Y-50415718D01*
X151400778Y-50415718D01*
X151400781Y-50415720D01*
X151505137Y-50449627D01*
X151595465Y-50478977D01*
X151696557Y-50494988D01*
X151797648Y-50511000D01*
X151797649Y-50511000D01*
X152202351Y-50511000D01*
X152202352Y-50511000D01*
X152404534Y-50478977D01*
X152447221Y-50465106D01*
X152517059Y-50463112D01*
X152576892Y-50499192D01*
X152607721Y-50561892D01*
X152608633Y-50568091D01*
X152614859Y-50619368D01*
X152614860Y-50619374D01*
X152675182Y-50778431D01*
X152720864Y-50844612D01*
X152771817Y-50918429D01*
X152863328Y-50999500D01*
X152899150Y-51031236D01*
X153049773Y-51110289D01*
X153049775Y-51110290D01*
X153214944Y-51151000D01*
X153385056Y-51151000D01*
X153550225Y-51110290D01*
X153629692Y-51068581D01*
X153700849Y-51031236D01*
X153700850Y-51031234D01*
X153700852Y-51031234D01*
X153828183Y-50918429D01*
X153924818Y-50778430D01*
X153985140Y-50619372D01*
X154005645Y-50450500D01*
X154003669Y-50434227D01*
X154003757Y-50418255D01*
X154002900Y-50418255D01*
X154002900Y-50282747D01*
X154003008Y-50282747D01*
X154003008Y-50268253D01*
X154002900Y-50268253D01*
X154002900Y-43127105D01*
X154010957Y-43083136D01*
X154035140Y-43019372D01*
X154055645Y-42850500D01*
X154035140Y-42681628D01*
X153974818Y-42522570D01*
X153878183Y-42382571D01*
X153778895Y-42294610D01*
X153750849Y-42269763D01*
X153600226Y-42190710D01*
X153427773Y-42148205D01*
X153428467Y-42145389D01*
X153376611Y-42123040D01*
X153337584Y-42065087D01*
X153336083Y-41995233D01*
X153337844Y-41989310D01*
X153368477Y-41895034D01*
X153400500Y-41692852D01*
X153400500Y-41488148D01*
X153377942Y-41345723D01*
X153368477Y-41285965D01*
X153305218Y-41091276D01*
X153265515Y-41013355D01*
X153212287Y-40908890D01*
X153162165Y-40839902D01*
X153091971Y-40743286D01*
X152947213Y-40598528D01*
X152781614Y-40478215D01*
X152764343Y-40469415D01*
X152688917Y-40430983D01*
X152638123Y-40383011D01*
X152621328Y-40315190D01*
X152643865Y-40249055D01*
X152688917Y-40210016D01*
X152781610Y-40162787D01*
X152933015Y-40052786D01*
X152947213Y-40042471D01*
X152947215Y-40042468D01*
X152947219Y-40042466D01*
X153091966Y-39897719D01*
X153091968Y-39897715D01*
X153091971Y-39897713D01*
X153144732Y-39825090D01*
X153212287Y-39732110D01*
X153305220Y-39549719D01*
X153368477Y-39355034D01*
X153400500Y-39152852D01*
X153400500Y-38948148D01*
X153368477Y-38745966D01*
X153305220Y-38551281D01*
X153305218Y-38551278D01*
X153305218Y-38551276D01*
X153265515Y-38473355D01*
X153212287Y-38368890D01*
X153182020Y-38327231D01*
X153091971Y-38203286D01*
X152947213Y-38058528D01*
X152781613Y-37938215D01*
X152781612Y-37938214D01*
X152781610Y-37938213D01*
X152724653Y-37909191D01*
X152599223Y-37845281D01*
X152404534Y-37782022D01*
X152229995Y-37754378D01*
X152202352Y-37750000D01*
X151797648Y-37750000D01*
X151778852Y-37752977D01*
X151595465Y-37782022D01*
X151400776Y-37845281D01*
X151218386Y-37938215D01*
X151052786Y-38058528D01*
X150908028Y-38203286D01*
X150787715Y-38368886D01*
X150734485Y-38473355D01*
X150686510Y-38524151D01*
X150618689Y-38540946D01*
X150552554Y-38518408D01*
X150509103Y-38463693D01*
X150500000Y-38417060D01*
X150500000Y-34774500D01*
X150519685Y-34707461D01*
X150572489Y-34661706D01*
X150624000Y-34650500D01*
X166676000Y-34650500D01*
X166743039Y-34670185D01*
G37*
%TD.AperFunction*%
%TD*%
%TA.AperFunction,Conductor*%
%TO.N,Board_2-GND*%
G36*
X146443039Y-58320185D02*
G01*
X146488794Y-58372989D01*
X146500000Y-58424500D01*
X146500000Y-61184372D01*
X146480315Y-61251411D01*
X146427511Y-61297166D01*
X146358353Y-61307110D01*
X146329873Y-61299473D01*
X146255889Y-61269824D01*
X146255883Y-61269822D01*
X146160598Y-61250869D01*
X146112738Y-61246156D01*
X146101000Y-61245000D01*
X144292924Y-61245000D01*
X144241031Y-61249440D01*
X144157662Y-61263810D01*
X144157660Y-61263810D01*
X144157651Y-61263812D01*
X144157650Y-61263812D01*
X144107272Y-61277001D01*
X143752734Y-61402977D01*
X143710857Y-61410133D01*
X138737814Y-61395688D01*
X138685663Y-61400019D01*
X138652588Y-61405649D01*
X138601874Y-61414282D01*
X138601871Y-61414282D01*
X138601871Y-61414283D01*
X138496997Y-61452866D01*
X138413520Y-61502504D01*
X138407469Y-61506198D01*
X138324892Y-61582260D01*
X138324885Y-61582268D01*
X138266754Y-61660077D01*
X138262587Y-61665792D01*
X138215402Y-61767667D01*
X138215398Y-61767677D01*
X138191469Y-61861807D01*
X138191465Y-61861824D01*
X138191463Y-61861836D01*
X138191462Y-61861842D01*
X138182469Y-61921031D01*
X138182469Y-61921038D01*
X138179693Y-61973790D01*
X138179526Y-61977348D01*
X138179304Y-61982725D01*
X138179305Y-61982738D01*
X138183249Y-62045830D01*
X138183250Y-62045844D01*
X138183250Y-62045849D01*
X138183251Y-62045850D01*
X138186807Y-62067060D01*
X138199319Y-62141675D01*
X138214959Y-62199460D01*
X138214962Y-62199470D01*
X138237644Y-62259278D01*
X138244797Y-62288302D01*
X138250534Y-62335553D01*
X138250534Y-62365445D01*
X138244797Y-62412695D01*
X138237644Y-62441717D01*
X138223063Y-62480165D01*
X138220898Y-62486056D01*
X138217514Y-62495555D01*
X138202209Y-62559836D01*
X138190060Y-62656201D01*
X138189256Y-62663238D01*
X138189256Y-62663247D01*
X138198507Y-62775124D01*
X138198509Y-62775135D01*
X138224169Y-62868831D01*
X138224172Y-62868842D01*
X138245569Y-62924757D01*
X138245571Y-62924761D01*
X138245573Y-62924766D01*
X138245574Y-62924766D01*
X138245574Y-62924767D01*
X138257931Y-62949483D01*
X138283340Y-62991481D01*
X138283341Y-62991482D01*
X138329983Y-63056196D01*
X138408095Y-63131585D01*
X138434097Y-63148959D01*
X138488843Y-63185539D01*
X138488877Y-63185561D01*
X138494788Y-63189412D01*
X138599002Y-63231176D01*
X138599004Y-63231176D01*
X138599006Y-63231177D01*
X138644499Y-63240226D01*
X138694290Y-63250130D01*
X138753890Y-63256000D01*
X140620500Y-63256000D01*
X140687539Y-63275685D01*
X140733294Y-63328489D01*
X140744500Y-63380000D01*
X140744500Y-63481126D01*
X140744951Y-63497712D01*
X140746419Y-63524713D01*
X140746420Y-63524724D01*
X140760074Y-63599893D01*
X140789256Y-63692569D01*
X140792604Y-63702786D01*
X140794770Y-63772622D01*
X140758835Y-63832543D01*
X140743657Y-63844495D01*
X140709321Y-63867436D01*
X140663020Y-63905434D01*
X140609776Y-63958680D01*
X140548453Y-63992166D01*
X140522094Y-63995000D01*
X138799000Y-63995000D01*
X138787262Y-63996156D01*
X138739402Y-64000869D01*
X138739400Y-64000869D01*
X138644119Y-64019822D01*
X138637211Y-64021279D01*
X138533987Y-64065438D01*
X138453152Y-64119450D01*
X138447382Y-64123402D01*
X138447378Y-64123405D01*
X138368913Y-64203706D01*
X138314921Y-64284513D01*
X138311090Y-64290394D01*
X138311087Y-64290400D01*
X138269324Y-64394610D01*
X138269322Y-64394616D01*
X138250369Y-64489900D01*
X138250369Y-64489902D01*
X138244500Y-64549502D01*
X138244500Y-64977317D01*
X138245055Y-64995723D01*
X138246872Y-65025765D01*
X138248542Y-65044141D01*
X138250535Y-65060558D01*
X138250535Y-65090442D01*
X138248565Y-65106668D01*
X138248566Y-65106669D01*
X138248495Y-65107255D01*
X138248487Y-65107318D01*
X138246871Y-65125255D01*
X138245055Y-65155274D01*
X138244500Y-65173680D01*
X138244500Y-65251497D01*
X138250369Y-65311097D01*
X138250369Y-65311099D01*
X138269322Y-65406380D01*
X138270779Y-65413288D01*
X138314939Y-65516512D01*
X138314938Y-65516512D01*
X138368950Y-65597347D01*
X138372902Y-65603117D01*
X138372905Y-65603121D01*
X138418216Y-65647396D01*
X138452408Y-65708328D01*
X138448229Y-65778073D01*
X138434659Y-65804972D01*
X138414922Y-65834512D01*
X138411090Y-65840394D01*
X138411087Y-65840400D01*
X138369324Y-65944610D01*
X138369322Y-65944616D01*
X138350369Y-66039900D01*
X138350369Y-66039902D01*
X138344500Y-66099502D01*
X138344500Y-67947357D01*
X138350369Y-68006957D01*
X138350369Y-68006959D01*
X138369322Y-68102240D01*
X138370779Y-68109148D01*
X138414939Y-68212372D01*
X138414939Y-68212374D01*
X138451169Y-68266596D01*
X138467609Y-68291201D01*
X138468918Y-68293159D01*
X138506913Y-68339456D01*
X138954562Y-68787105D01*
X138988047Y-68848428D01*
X138983063Y-68918120D01*
X138941191Y-68974053D01*
X138878906Y-68998201D01*
X138839400Y-69002050D01*
X138839390Y-69002051D01*
X138839385Y-69002052D01*
X138744102Y-69021005D01*
X138737211Y-69022459D01*
X138633987Y-69066618D01*
X138553152Y-69120630D01*
X138547382Y-69124582D01*
X138547378Y-69124585D01*
X138468913Y-69204886D01*
X138414921Y-69285693D01*
X138411090Y-69291574D01*
X138411087Y-69291580D01*
X138369324Y-69395790D01*
X138369322Y-69395796D01*
X138350369Y-69491080D01*
X138350369Y-69491082D01*
X138344500Y-69550682D01*
X138344500Y-70501497D01*
X138350369Y-70561097D01*
X138350369Y-70561099D01*
X138369322Y-70656380D01*
X138370779Y-70663288D01*
X138414939Y-70766512D01*
X138414938Y-70766512D01*
X138414939Y-70766513D01*
X138458161Y-70831201D01*
X138468950Y-70847347D01*
X138472902Y-70853117D01*
X138472905Y-70853121D01*
X138518470Y-70897644D01*
X138553205Y-70931585D01*
X138633987Y-70985561D01*
X138639898Y-70989412D01*
X138744112Y-71031176D01*
X138744114Y-71031176D01*
X138744116Y-71031177D01*
X138792400Y-71040781D01*
X138839400Y-71050130D01*
X138899000Y-71056000D01*
X138899002Y-71056000D01*
X139461491Y-71056000D01*
X139461502Y-71056000D01*
X139498332Y-71053772D01*
X139514418Y-71051818D01*
X139517833Y-71051404D01*
X139532778Y-71050500D01*
X139645005Y-71050500D01*
X139654201Y-71050842D01*
X139656018Y-71050977D01*
X139659978Y-71051272D01*
X139665655Y-71051826D01*
X139681669Y-71053772D01*
X139681680Y-71053772D01*
X139681683Y-71053773D01*
X139691960Y-71054394D01*
X139718498Y-71056000D01*
X140720500Y-71056000D01*
X140787539Y-71075685D01*
X140833294Y-71128489D01*
X140844130Y-71178303D01*
X140844413Y-71178293D01*
X140844472Y-71179871D01*
X140844500Y-71180000D01*
X140844500Y-71180611D01*
X140846080Y-71201730D01*
X140847900Y-71226067D01*
X140858928Y-71299351D01*
X140878917Y-71359227D01*
X140892207Y-71399034D01*
X140910429Y-71432784D01*
X140922851Y-71455790D01*
X140937380Y-71524133D01*
X140912654Y-71589481D01*
X140882638Y-71617799D01*
X140877102Y-71621498D01*
X140873212Y-71624097D01*
X140806538Y-71644980D01*
X140804315Y-71645000D01*
X139880776Y-71645000D01*
X139843956Y-71647227D01*
X139784382Y-71654462D01*
X139784360Y-71654465D01*
X139748078Y-71661114D01*
X139653097Y-71684524D01*
X139653096Y-71684523D01*
X139643473Y-71686896D01*
X139613796Y-71690500D01*
X139566203Y-71690500D01*
X139536529Y-71686897D01*
X139431924Y-71661115D01*
X139431907Y-71661111D01*
X139395645Y-71654466D01*
X139395640Y-71654465D01*
X139395633Y-71654464D01*
X139395617Y-71654462D01*
X139336043Y-71647227D01*
X139299223Y-71645000D01*
X139299217Y-71645000D01*
X138899000Y-71645000D01*
X138887262Y-71646156D01*
X138839402Y-71650869D01*
X138839400Y-71650869D01*
X138744119Y-71669822D01*
X138737211Y-71671279D01*
X138633987Y-71715438D01*
X138553152Y-71769450D01*
X138547382Y-71773402D01*
X138547378Y-71773405D01*
X138468913Y-71853706D01*
X138414921Y-71934513D01*
X138411090Y-71940394D01*
X138411087Y-71940400D01*
X138369324Y-72044610D01*
X138369322Y-72044616D01*
X138350369Y-72139900D01*
X138350369Y-72139902D01*
X138344500Y-72199502D01*
X138344500Y-72995997D01*
X138350369Y-73055597D01*
X138350369Y-73055599D01*
X138369322Y-73150880D01*
X138370779Y-73157788D01*
X138414938Y-73261012D01*
X138460272Y-73328859D01*
X138481149Y-73395536D01*
X138462664Y-73462916D01*
X138460273Y-73466638D01*
X138414908Y-73534533D01*
X138411090Y-73540394D01*
X138411087Y-73540400D01*
X138369324Y-73644610D01*
X138369322Y-73644616D01*
X138350369Y-73739900D01*
X138350369Y-73739902D01*
X138344500Y-73799502D01*
X138344500Y-75547357D01*
X138350369Y-75606957D01*
X138350369Y-75606959D01*
X138369322Y-75702240D01*
X138369911Y-75705034D01*
X138370780Y-75709151D01*
X138372938Y-75714196D01*
X138414939Y-75812372D01*
X138414939Y-75812374D01*
X138468918Y-75893159D01*
X138506913Y-75939456D01*
X139261043Y-76693586D01*
X139261048Y-76693590D01*
X139261049Y-76693591D01*
X139280650Y-76709677D01*
X139302485Y-76727597D01*
X139307345Y-76731585D01*
X139388127Y-76785561D01*
X139394038Y-76789412D01*
X139498252Y-76831176D01*
X139498254Y-76831176D01*
X139498256Y-76831177D01*
X139546540Y-76840781D01*
X139593540Y-76850130D01*
X139653140Y-76856000D01*
X140157332Y-76856000D01*
X140224371Y-76875685D01*
X140232062Y-76881048D01*
X140233955Y-76882477D01*
X140233959Y-76882481D01*
X140407363Y-76989848D01*
X140590701Y-77060873D01*
X140646102Y-77103446D01*
X140669693Y-77169213D01*
X140653982Y-77237293D01*
X140603958Y-77286072D01*
X140545907Y-77300500D01*
X130324000Y-77300500D01*
X130256961Y-77280815D01*
X130211206Y-77228011D01*
X130200000Y-77176500D01*
X130200000Y-73493939D01*
X130219685Y-73426900D01*
X130272489Y-73381145D01*
X130341647Y-73371201D01*
X130405203Y-73400226D01*
X130434485Y-73437644D01*
X130487715Y-73542114D01*
X130608028Y-73707713D01*
X130752786Y-73852471D01*
X130907749Y-73965056D01*
X130918390Y-73972787D01*
X131034607Y-74032003D01*
X131100776Y-74065718D01*
X131100778Y-74065718D01*
X131100781Y-74065720D01*
X131205137Y-74099627D01*
X131295465Y-74128977D01*
X131396557Y-74144988D01*
X131497648Y-74161000D01*
X131497649Y-74161000D01*
X131902351Y-74161000D01*
X131902352Y-74161000D01*
X132104534Y-74128977D01*
X132147221Y-74115106D01*
X132217059Y-74113112D01*
X132276892Y-74149192D01*
X132307721Y-74211892D01*
X132308633Y-74218091D01*
X132314859Y-74269368D01*
X132314860Y-74269374D01*
X132375182Y-74428431D01*
X132420864Y-74494612D01*
X132471817Y-74568429D01*
X132563328Y-74649500D01*
X132599150Y-74681236D01*
X132749773Y-74760289D01*
X132749775Y-74760290D01*
X132914944Y-74801000D01*
X133085056Y-74801000D01*
X133250225Y-74760290D01*
X133329692Y-74718581D01*
X133400849Y-74681236D01*
X133400850Y-74681234D01*
X133400852Y-74681234D01*
X133528183Y-74568429D01*
X133624818Y-74428430D01*
X133685140Y-74269372D01*
X133705645Y-74100500D01*
X133703669Y-74084227D01*
X133703757Y-74068255D01*
X133702900Y-74068255D01*
X133702900Y-73932747D01*
X133703008Y-73932747D01*
X133703008Y-73918253D01*
X133702900Y-73918253D01*
X133702900Y-66777105D01*
X133710957Y-66733136D01*
X133735140Y-66669372D01*
X133755645Y-66500500D01*
X133735140Y-66331628D01*
X133674818Y-66172570D01*
X133578183Y-66032571D01*
X133478895Y-65944610D01*
X133450849Y-65919763D01*
X133300226Y-65840710D01*
X133127773Y-65798205D01*
X133128467Y-65795389D01*
X133076611Y-65773040D01*
X133037584Y-65715087D01*
X133036083Y-65645233D01*
X133037844Y-65639310D01*
X133068477Y-65545034D01*
X133100500Y-65342852D01*
X133100500Y-65138148D01*
X133077942Y-64995723D01*
X133068477Y-64935965D01*
X133005218Y-64741276D01*
X132965515Y-64663355D01*
X132912287Y-64558890D01*
X132862165Y-64489902D01*
X132791971Y-64393286D01*
X132647213Y-64248528D01*
X132481614Y-64128215D01*
X132464343Y-64119415D01*
X132388917Y-64080983D01*
X132338123Y-64033011D01*
X132321328Y-63965190D01*
X132343865Y-63899055D01*
X132388917Y-63860016D01*
X132481610Y-63812787D01*
X132633015Y-63702786D01*
X132647213Y-63692471D01*
X132647215Y-63692468D01*
X132647219Y-63692466D01*
X132791966Y-63547719D01*
X132791968Y-63547715D01*
X132791971Y-63547713D01*
X132844732Y-63475090D01*
X132912287Y-63382110D01*
X133005220Y-63199719D01*
X133068477Y-63005034D01*
X133100500Y-62802852D01*
X133100500Y-62598148D01*
X133068477Y-62395966D01*
X133005220Y-62201281D01*
X133005218Y-62201278D01*
X133005218Y-62201276D01*
X132965515Y-62123355D01*
X132912287Y-62018890D01*
X132882020Y-61977231D01*
X132791971Y-61853286D01*
X132647213Y-61708528D01*
X132481613Y-61588215D01*
X132481612Y-61588214D01*
X132481610Y-61588213D01*
X132424653Y-61559191D01*
X132299223Y-61495281D01*
X132104534Y-61432022D01*
X131929995Y-61404378D01*
X131902352Y-61400000D01*
X131497648Y-61400000D01*
X131478852Y-61402977D01*
X131295465Y-61432022D01*
X131100776Y-61495281D01*
X130918386Y-61588215D01*
X130752786Y-61708528D01*
X130608028Y-61853286D01*
X130487715Y-62018886D01*
X130434485Y-62123355D01*
X130386510Y-62174151D01*
X130318689Y-62190946D01*
X130252554Y-62168408D01*
X130209103Y-62113693D01*
X130200000Y-62067060D01*
X130200000Y-58424500D01*
X130219685Y-58357461D01*
X130272489Y-58311706D01*
X130324000Y-58300500D01*
X146376000Y-58300500D01*
X146443039Y-58320185D01*
G37*
%TD.AperFunction*%
%TD*%
%TA.AperFunction,Conductor*%
%TO.N,Board_3-GND*%
G36*
X166743039Y-58320185D02*
G01*
X166788794Y-58372989D01*
X166800000Y-58424500D01*
X166800000Y-61184372D01*
X166780315Y-61251411D01*
X166727511Y-61297166D01*
X166658353Y-61307110D01*
X166629873Y-61299473D01*
X166555889Y-61269824D01*
X166555883Y-61269822D01*
X166460598Y-61250869D01*
X166412738Y-61246156D01*
X166401000Y-61245000D01*
X164592924Y-61245000D01*
X164541031Y-61249440D01*
X164457662Y-61263810D01*
X164457660Y-61263810D01*
X164457651Y-61263812D01*
X164457650Y-61263812D01*
X164407272Y-61277001D01*
X164052734Y-61402977D01*
X164010857Y-61410133D01*
X159037814Y-61395688D01*
X158985663Y-61400019D01*
X158952588Y-61405649D01*
X158901874Y-61414282D01*
X158901871Y-61414282D01*
X158901871Y-61414283D01*
X158796997Y-61452866D01*
X158713520Y-61502504D01*
X158707469Y-61506198D01*
X158624892Y-61582260D01*
X158624885Y-61582268D01*
X158566754Y-61660077D01*
X158562587Y-61665792D01*
X158515402Y-61767667D01*
X158515398Y-61767677D01*
X158491469Y-61861807D01*
X158491465Y-61861824D01*
X158491463Y-61861836D01*
X158491462Y-61861842D01*
X158482469Y-61921031D01*
X158482469Y-61921038D01*
X158479693Y-61973790D01*
X158479526Y-61977348D01*
X158479304Y-61982725D01*
X158479305Y-61982738D01*
X158483249Y-62045830D01*
X158483250Y-62045844D01*
X158483250Y-62045849D01*
X158483251Y-62045850D01*
X158486807Y-62067060D01*
X158499319Y-62141675D01*
X158514959Y-62199460D01*
X158514962Y-62199470D01*
X158537644Y-62259278D01*
X158544797Y-62288302D01*
X158550534Y-62335553D01*
X158550534Y-62365445D01*
X158544797Y-62412695D01*
X158537644Y-62441717D01*
X158523063Y-62480165D01*
X158520898Y-62486056D01*
X158517514Y-62495555D01*
X158502209Y-62559836D01*
X158490060Y-62656201D01*
X158489256Y-62663238D01*
X158489256Y-62663247D01*
X158498507Y-62775124D01*
X158498509Y-62775135D01*
X158524169Y-62868831D01*
X158524172Y-62868842D01*
X158545569Y-62924757D01*
X158545571Y-62924761D01*
X158545573Y-62924766D01*
X158545574Y-62924766D01*
X158545574Y-62924767D01*
X158557931Y-62949483D01*
X158583340Y-62991481D01*
X158583341Y-62991482D01*
X158629983Y-63056196D01*
X158708095Y-63131585D01*
X158734097Y-63148959D01*
X158788843Y-63185539D01*
X158788877Y-63185561D01*
X158794788Y-63189412D01*
X158899002Y-63231176D01*
X158899004Y-63231176D01*
X158899006Y-63231177D01*
X158944499Y-63240226D01*
X158994290Y-63250130D01*
X159053890Y-63256000D01*
X160920500Y-63256000D01*
X160987539Y-63275685D01*
X161033294Y-63328489D01*
X161044500Y-63380000D01*
X161044500Y-63481126D01*
X161044951Y-63497712D01*
X161046419Y-63524713D01*
X161046420Y-63524724D01*
X161060074Y-63599893D01*
X161089256Y-63692569D01*
X161092604Y-63702786D01*
X161094770Y-63772622D01*
X161058835Y-63832543D01*
X161043657Y-63844495D01*
X161009321Y-63867436D01*
X160963020Y-63905434D01*
X160909776Y-63958680D01*
X160848453Y-63992166D01*
X160822094Y-63995000D01*
X159099000Y-63995000D01*
X159087262Y-63996156D01*
X159039402Y-64000869D01*
X159039400Y-64000869D01*
X158944119Y-64019822D01*
X158937211Y-64021279D01*
X158833987Y-64065438D01*
X158753152Y-64119450D01*
X158747382Y-64123402D01*
X158747378Y-64123405D01*
X158668913Y-64203706D01*
X158614921Y-64284513D01*
X158611090Y-64290394D01*
X158611087Y-64290400D01*
X158569324Y-64394610D01*
X158569322Y-64394616D01*
X158550369Y-64489900D01*
X158550369Y-64489902D01*
X158544500Y-64549502D01*
X158544500Y-64977317D01*
X158545055Y-64995723D01*
X158546872Y-65025765D01*
X158548542Y-65044141D01*
X158550535Y-65060558D01*
X158550535Y-65090442D01*
X158548565Y-65106668D01*
X158548566Y-65106669D01*
X158548495Y-65107255D01*
X158548487Y-65107318D01*
X158546871Y-65125255D01*
X158545055Y-65155274D01*
X158544500Y-65173680D01*
X158544500Y-65251497D01*
X158550369Y-65311097D01*
X158550369Y-65311099D01*
X158569322Y-65406380D01*
X158570779Y-65413288D01*
X158614939Y-65516512D01*
X158614938Y-65516512D01*
X158668950Y-65597347D01*
X158672902Y-65603117D01*
X158672905Y-65603121D01*
X158718216Y-65647396D01*
X158752408Y-65708328D01*
X158748229Y-65778073D01*
X158734659Y-65804972D01*
X158714922Y-65834512D01*
X158711090Y-65840394D01*
X158711087Y-65840400D01*
X158669324Y-65944610D01*
X158669322Y-65944616D01*
X158650369Y-66039900D01*
X158650369Y-66039902D01*
X158644500Y-66099502D01*
X158644500Y-67947357D01*
X158650369Y-68006957D01*
X158650369Y-68006959D01*
X158669322Y-68102240D01*
X158670779Y-68109148D01*
X158714939Y-68212372D01*
X158714939Y-68212374D01*
X158751169Y-68266596D01*
X158767609Y-68291201D01*
X158768918Y-68293159D01*
X158806913Y-68339456D01*
X159254562Y-68787105D01*
X159288047Y-68848428D01*
X159283063Y-68918120D01*
X159241191Y-68974053D01*
X159178906Y-68998201D01*
X159139400Y-69002050D01*
X159139390Y-69002051D01*
X159139385Y-69002052D01*
X159044102Y-69021005D01*
X159037211Y-69022459D01*
X158933987Y-69066618D01*
X158853152Y-69120630D01*
X158847382Y-69124582D01*
X158847378Y-69124585D01*
X158768913Y-69204886D01*
X158714921Y-69285693D01*
X158711090Y-69291574D01*
X158711087Y-69291580D01*
X158669324Y-69395790D01*
X158669322Y-69395796D01*
X158650369Y-69491080D01*
X158650369Y-69491082D01*
X158644500Y-69550682D01*
X158644500Y-70501497D01*
X158650369Y-70561097D01*
X158650369Y-70561099D01*
X158669322Y-70656380D01*
X158670779Y-70663288D01*
X158714939Y-70766512D01*
X158714938Y-70766512D01*
X158714939Y-70766513D01*
X158758161Y-70831201D01*
X158768950Y-70847347D01*
X158772902Y-70853117D01*
X158772905Y-70853121D01*
X158818470Y-70897644D01*
X158853205Y-70931585D01*
X158933987Y-70985561D01*
X158939898Y-70989412D01*
X159044112Y-71031176D01*
X159044114Y-71031176D01*
X159044116Y-71031177D01*
X159092400Y-71040781D01*
X159139400Y-71050130D01*
X159199000Y-71056000D01*
X159199002Y-71056000D01*
X159761491Y-71056000D01*
X159761502Y-71056000D01*
X159798332Y-71053772D01*
X159814418Y-71051818D01*
X159817833Y-71051404D01*
X159832778Y-71050500D01*
X159945005Y-71050500D01*
X159954201Y-71050842D01*
X159956018Y-71050977D01*
X159959978Y-71051272D01*
X159965655Y-71051826D01*
X159981669Y-71053772D01*
X159981680Y-71053772D01*
X159981683Y-71053773D01*
X159991960Y-71054394D01*
X160018498Y-71056000D01*
X161020500Y-71056000D01*
X161087539Y-71075685D01*
X161133294Y-71128489D01*
X161144130Y-71178303D01*
X161144413Y-71178293D01*
X161144472Y-71179871D01*
X161144500Y-71180000D01*
X161144500Y-71180611D01*
X161146080Y-71201730D01*
X161147900Y-71226067D01*
X161158928Y-71299351D01*
X161178917Y-71359227D01*
X161192207Y-71399034D01*
X161210429Y-71432784D01*
X161222851Y-71455790D01*
X161237380Y-71524133D01*
X161212654Y-71589481D01*
X161182638Y-71617799D01*
X161177102Y-71621498D01*
X161173212Y-71624097D01*
X161106538Y-71644980D01*
X161104315Y-71645000D01*
X160180776Y-71645000D01*
X160143956Y-71647227D01*
X160084382Y-71654462D01*
X160084360Y-71654465D01*
X160048078Y-71661114D01*
X159953097Y-71684524D01*
X159953096Y-71684523D01*
X159943473Y-71686896D01*
X159913796Y-71690500D01*
X159866203Y-71690500D01*
X159836529Y-71686897D01*
X159731924Y-71661115D01*
X159731907Y-71661111D01*
X159695645Y-71654466D01*
X159695640Y-71654465D01*
X159695633Y-71654464D01*
X159695617Y-71654462D01*
X159636043Y-71647227D01*
X159599223Y-71645000D01*
X159599217Y-71645000D01*
X159199000Y-71645000D01*
X159187262Y-71646156D01*
X159139402Y-71650869D01*
X159139400Y-71650869D01*
X159044119Y-71669822D01*
X159037211Y-71671279D01*
X158933987Y-71715438D01*
X158853152Y-71769450D01*
X158847382Y-71773402D01*
X158847378Y-71773405D01*
X158768913Y-71853706D01*
X158714921Y-71934513D01*
X158711090Y-71940394D01*
X158711087Y-71940400D01*
X158669324Y-72044610D01*
X158669322Y-72044616D01*
X158650369Y-72139900D01*
X158650369Y-72139902D01*
X158644500Y-72199502D01*
X158644500Y-72995997D01*
X158650369Y-73055597D01*
X158650369Y-73055599D01*
X158669322Y-73150880D01*
X158670779Y-73157788D01*
X158714938Y-73261012D01*
X158760272Y-73328859D01*
X158781149Y-73395536D01*
X158762664Y-73462916D01*
X158760273Y-73466638D01*
X158714908Y-73534533D01*
X158711090Y-73540394D01*
X158711087Y-73540400D01*
X158669324Y-73644610D01*
X158669322Y-73644616D01*
X158650369Y-73739900D01*
X158650369Y-73739902D01*
X158644500Y-73799502D01*
X158644500Y-75547357D01*
X158650369Y-75606957D01*
X158650369Y-75606959D01*
X158669322Y-75702240D01*
X158669911Y-75705034D01*
X158670780Y-75709151D01*
X158672938Y-75714196D01*
X158714939Y-75812372D01*
X158714939Y-75812374D01*
X158768918Y-75893159D01*
X158806913Y-75939456D01*
X159561043Y-76693586D01*
X159561048Y-76693590D01*
X159561049Y-76693591D01*
X159580650Y-76709677D01*
X159602485Y-76727597D01*
X159607345Y-76731585D01*
X159688127Y-76785561D01*
X159694038Y-76789412D01*
X159798252Y-76831176D01*
X159798254Y-76831176D01*
X159798256Y-76831177D01*
X159846540Y-76840781D01*
X159893540Y-76850130D01*
X159953140Y-76856000D01*
X160457332Y-76856000D01*
X160524371Y-76875685D01*
X160532062Y-76881048D01*
X160533955Y-76882477D01*
X160533959Y-76882481D01*
X160707363Y-76989848D01*
X160890701Y-77060873D01*
X160946102Y-77103446D01*
X160969693Y-77169213D01*
X160953982Y-77237293D01*
X160903958Y-77286072D01*
X160845907Y-77300500D01*
X150624000Y-77300500D01*
X150556961Y-77280815D01*
X150511206Y-77228011D01*
X150500000Y-77176500D01*
X150500000Y-73493939D01*
X150519685Y-73426900D01*
X150572489Y-73381145D01*
X150641647Y-73371201D01*
X150705203Y-73400226D01*
X150734485Y-73437644D01*
X150787715Y-73542114D01*
X150908028Y-73707713D01*
X151052786Y-73852471D01*
X151207749Y-73965056D01*
X151218390Y-73972787D01*
X151334607Y-74032003D01*
X151400776Y-74065718D01*
X151400778Y-74065718D01*
X151400781Y-74065720D01*
X151505137Y-74099627D01*
X151595465Y-74128977D01*
X151696557Y-74144988D01*
X151797648Y-74161000D01*
X151797649Y-74161000D01*
X152202351Y-74161000D01*
X152202352Y-74161000D01*
X152404534Y-74128977D01*
X152447221Y-74115106D01*
X152517059Y-74113112D01*
X152576892Y-74149192D01*
X152607721Y-74211892D01*
X152608633Y-74218091D01*
X152614859Y-74269368D01*
X152614860Y-74269374D01*
X152675182Y-74428431D01*
X152720864Y-74494612D01*
X152771817Y-74568429D01*
X152863328Y-74649500D01*
X152899150Y-74681236D01*
X153049773Y-74760289D01*
X153049775Y-74760290D01*
X153214944Y-74801000D01*
X153385056Y-74801000D01*
X153550225Y-74760290D01*
X153629692Y-74718581D01*
X153700849Y-74681236D01*
X153700850Y-74681234D01*
X153700852Y-74681234D01*
X153828183Y-74568429D01*
X153924818Y-74428430D01*
X153985140Y-74269372D01*
X154005645Y-74100500D01*
X154003669Y-74084227D01*
X154003757Y-74068255D01*
X154002900Y-74068255D01*
X154002900Y-73932747D01*
X154003008Y-73932747D01*
X154003008Y-73918253D01*
X154002900Y-73918253D01*
X154002900Y-66777105D01*
X154010957Y-66733136D01*
X154035140Y-66669372D01*
X154055645Y-66500500D01*
X154035140Y-66331628D01*
X153974818Y-66172570D01*
X153878183Y-66032571D01*
X153778895Y-65944610D01*
X153750849Y-65919763D01*
X153600226Y-65840710D01*
X153427773Y-65798205D01*
X153428467Y-65795389D01*
X153376611Y-65773040D01*
X153337584Y-65715087D01*
X153336083Y-65645233D01*
X153337844Y-65639310D01*
X153368477Y-65545034D01*
X153400500Y-65342852D01*
X153400500Y-65138148D01*
X153377942Y-64995723D01*
X153368477Y-64935965D01*
X153305218Y-64741276D01*
X153265515Y-64663355D01*
X153212287Y-64558890D01*
X153162165Y-64489902D01*
X153091971Y-64393286D01*
X152947213Y-64248528D01*
X152781614Y-64128215D01*
X152764343Y-64119415D01*
X152688917Y-64080983D01*
X152638123Y-64033011D01*
X152621328Y-63965190D01*
X152643865Y-63899055D01*
X152688917Y-63860016D01*
X152781610Y-63812787D01*
X152933015Y-63702786D01*
X152947213Y-63692471D01*
X152947215Y-63692468D01*
X152947219Y-63692466D01*
X153091966Y-63547719D01*
X153091968Y-63547715D01*
X153091971Y-63547713D01*
X153144732Y-63475090D01*
X153212287Y-63382110D01*
X153305220Y-63199719D01*
X153368477Y-63005034D01*
X153400500Y-62802852D01*
X153400500Y-62598148D01*
X153368477Y-62395966D01*
X153305220Y-62201281D01*
X153305218Y-62201278D01*
X153305218Y-62201276D01*
X153265515Y-62123355D01*
X153212287Y-62018890D01*
X153182020Y-61977231D01*
X153091971Y-61853286D01*
X152947213Y-61708528D01*
X152781613Y-61588215D01*
X152781612Y-61588214D01*
X152781610Y-61588213D01*
X152724653Y-61559191D01*
X152599223Y-61495281D01*
X152404534Y-61432022D01*
X152229995Y-61404378D01*
X152202352Y-61400000D01*
X151797648Y-61400000D01*
X151778852Y-61402977D01*
X151595465Y-61432022D01*
X151400776Y-61495281D01*
X151218386Y-61588215D01*
X151052786Y-61708528D01*
X150908028Y-61853286D01*
X150787715Y-62018886D01*
X150734485Y-62123355D01*
X150686510Y-62174151D01*
X150618689Y-62190946D01*
X150552554Y-62168408D01*
X150509103Y-62113693D01*
X150500000Y-62067060D01*
X150500000Y-58424500D01*
X150519685Y-58357461D01*
X150572489Y-58311706D01*
X150624000Y-58300500D01*
X166676000Y-58300500D01*
X166743039Y-58320185D01*
G37*
%TD.AperFunction*%
%TD*%
%TA.AperFunction,Conductor*%
%TO.N,Board_4-GND*%
G36*
X146443039Y-81970185D02*
G01*
X146488794Y-82022989D01*
X146500000Y-82074500D01*
X146500000Y-84834372D01*
X146480315Y-84901411D01*
X146427511Y-84947166D01*
X146358353Y-84957110D01*
X146329873Y-84949473D01*
X146255889Y-84919824D01*
X146255883Y-84919822D01*
X146160598Y-84900869D01*
X146112738Y-84896156D01*
X146101000Y-84895000D01*
X144292924Y-84895000D01*
X144241031Y-84899440D01*
X144157662Y-84913810D01*
X144157660Y-84913810D01*
X144157651Y-84913812D01*
X144157650Y-84913812D01*
X144107272Y-84927001D01*
X143752734Y-85052977D01*
X143710857Y-85060133D01*
X138737814Y-85045688D01*
X138685663Y-85050019D01*
X138652588Y-85055649D01*
X138601874Y-85064282D01*
X138601871Y-85064282D01*
X138601871Y-85064283D01*
X138496997Y-85102866D01*
X138413520Y-85152504D01*
X138407469Y-85156198D01*
X138324892Y-85232260D01*
X138324885Y-85232268D01*
X138266754Y-85310077D01*
X138262587Y-85315792D01*
X138215402Y-85417667D01*
X138215398Y-85417677D01*
X138191469Y-85511807D01*
X138191465Y-85511824D01*
X138191463Y-85511836D01*
X138191462Y-85511842D01*
X138182469Y-85571031D01*
X138182469Y-85571038D01*
X138179693Y-85623790D01*
X138179526Y-85627348D01*
X138179304Y-85632725D01*
X138179305Y-85632738D01*
X138183249Y-85695830D01*
X138183250Y-85695844D01*
X138183250Y-85695849D01*
X138183251Y-85695850D01*
X138186807Y-85717060D01*
X138199319Y-85791675D01*
X138214959Y-85849460D01*
X138214962Y-85849470D01*
X138237644Y-85909278D01*
X138244797Y-85938302D01*
X138250534Y-85985553D01*
X138250534Y-86015445D01*
X138244797Y-86062695D01*
X138237644Y-86091717D01*
X138223063Y-86130165D01*
X138220898Y-86136056D01*
X138217514Y-86145555D01*
X138202209Y-86209836D01*
X138190060Y-86306201D01*
X138189256Y-86313238D01*
X138189256Y-86313247D01*
X138198507Y-86425124D01*
X138198509Y-86425135D01*
X138224169Y-86518831D01*
X138224172Y-86518842D01*
X138245569Y-86574757D01*
X138245571Y-86574761D01*
X138245573Y-86574766D01*
X138245574Y-86574766D01*
X138245574Y-86574767D01*
X138257931Y-86599483D01*
X138283340Y-86641481D01*
X138283341Y-86641482D01*
X138329983Y-86706196D01*
X138408095Y-86781585D01*
X138434097Y-86798959D01*
X138488843Y-86835539D01*
X138488877Y-86835561D01*
X138494788Y-86839412D01*
X138599002Y-86881176D01*
X138599004Y-86881176D01*
X138599006Y-86881177D01*
X138644499Y-86890226D01*
X138694290Y-86900130D01*
X138753890Y-86906000D01*
X140620500Y-86906000D01*
X140687539Y-86925685D01*
X140733294Y-86978489D01*
X140744500Y-87030000D01*
X140744500Y-87131126D01*
X140744951Y-87147712D01*
X140746419Y-87174713D01*
X140746420Y-87174724D01*
X140760074Y-87249893D01*
X140789256Y-87342569D01*
X140792604Y-87352786D01*
X140794770Y-87422622D01*
X140758835Y-87482543D01*
X140743657Y-87494495D01*
X140709321Y-87517436D01*
X140663020Y-87555434D01*
X140609776Y-87608680D01*
X140548453Y-87642166D01*
X140522094Y-87645000D01*
X138799000Y-87645000D01*
X138787262Y-87646156D01*
X138739402Y-87650869D01*
X138739400Y-87650869D01*
X138644119Y-87669822D01*
X138637211Y-87671279D01*
X138533987Y-87715438D01*
X138453152Y-87769450D01*
X138447382Y-87773402D01*
X138447378Y-87773405D01*
X138368913Y-87853706D01*
X138314921Y-87934513D01*
X138311090Y-87940394D01*
X138311087Y-87940400D01*
X138269324Y-88044610D01*
X138269322Y-88044616D01*
X138250369Y-88139900D01*
X138250369Y-88139902D01*
X138244500Y-88199502D01*
X138244500Y-88627317D01*
X138245055Y-88645723D01*
X138246872Y-88675765D01*
X138248542Y-88694141D01*
X138250535Y-88710558D01*
X138250535Y-88740442D01*
X138248565Y-88756668D01*
X138248566Y-88756669D01*
X138248495Y-88757255D01*
X138248487Y-88757318D01*
X138246871Y-88775255D01*
X138245055Y-88805274D01*
X138244500Y-88823680D01*
X138244500Y-88901497D01*
X138250369Y-88961097D01*
X138250369Y-88961099D01*
X138269322Y-89056380D01*
X138270779Y-89063288D01*
X138314939Y-89166512D01*
X138314938Y-89166512D01*
X138368950Y-89247347D01*
X138372902Y-89253117D01*
X138372905Y-89253121D01*
X138418216Y-89297396D01*
X138452408Y-89358328D01*
X138448229Y-89428073D01*
X138434659Y-89454972D01*
X138414922Y-89484512D01*
X138411090Y-89490394D01*
X138411087Y-89490400D01*
X138369324Y-89594610D01*
X138369322Y-89594616D01*
X138350369Y-89689900D01*
X138350369Y-89689902D01*
X138344500Y-89749502D01*
X138344500Y-91597357D01*
X138350369Y-91656957D01*
X138350369Y-91656959D01*
X138369322Y-91752240D01*
X138370779Y-91759148D01*
X138414939Y-91862372D01*
X138414939Y-91862374D01*
X138451169Y-91916596D01*
X138467609Y-91941201D01*
X138468918Y-91943159D01*
X138506913Y-91989456D01*
X138954562Y-92437105D01*
X138988047Y-92498428D01*
X138983063Y-92568120D01*
X138941191Y-92624053D01*
X138878906Y-92648201D01*
X138839400Y-92652050D01*
X138839390Y-92652051D01*
X138839385Y-92652052D01*
X138744102Y-92671005D01*
X138737211Y-92672459D01*
X138633987Y-92716618D01*
X138553152Y-92770630D01*
X138547382Y-92774582D01*
X138547378Y-92774585D01*
X138468913Y-92854886D01*
X138414921Y-92935693D01*
X138411090Y-92941574D01*
X138411087Y-92941580D01*
X138369324Y-93045790D01*
X138369322Y-93045796D01*
X138350369Y-93141080D01*
X138350369Y-93141082D01*
X138344500Y-93200682D01*
X138344500Y-94151497D01*
X138350369Y-94211097D01*
X138350369Y-94211099D01*
X138369322Y-94306380D01*
X138370779Y-94313288D01*
X138414939Y-94416512D01*
X138414938Y-94416512D01*
X138414939Y-94416513D01*
X138458161Y-94481201D01*
X138468950Y-94497347D01*
X138472902Y-94503117D01*
X138472905Y-94503121D01*
X138518470Y-94547644D01*
X138553205Y-94581585D01*
X138633987Y-94635561D01*
X138639898Y-94639412D01*
X138744112Y-94681176D01*
X138744114Y-94681176D01*
X138744116Y-94681177D01*
X138792400Y-94690781D01*
X138839400Y-94700130D01*
X138899000Y-94706000D01*
X138899002Y-94706000D01*
X139461491Y-94706000D01*
X139461502Y-94706000D01*
X139498332Y-94703772D01*
X139514418Y-94701818D01*
X139517833Y-94701404D01*
X139532778Y-94700500D01*
X139645005Y-94700500D01*
X139654201Y-94700842D01*
X139656018Y-94700977D01*
X139659978Y-94701272D01*
X139665655Y-94701826D01*
X139681669Y-94703772D01*
X139681680Y-94703772D01*
X139681683Y-94703773D01*
X139691960Y-94704394D01*
X139718498Y-94706000D01*
X140720500Y-94706000D01*
X140787539Y-94725685D01*
X140833294Y-94778489D01*
X140844130Y-94828303D01*
X140844413Y-94828293D01*
X140844472Y-94829871D01*
X140844500Y-94830000D01*
X140844500Y-94830611D01*
X140846080Y-94851730D01*
X140847900Y-94876067D01*
X140858928Y-94949351D01*
X140878917Y-95009227D01*
X140892207Y-95049034D01*
X140910429Y-95082784D01*
X140922851Y-95105790D01*
X140937380Y-95174133D01*
X140912654Y-95239481D01*
X140882638Y-95267799D01*
X140877102Y-95271498D01*
X140873212Y-95274097D01*
X140806538Y-95294980D01*
X140804315Y-95295000D01*
X139880776Y-95295000D01*
X139843956Y-95297227D01*
X139784382Y-95304462D01*
X139784360Y-95304465D01*
X139748078Y-95311114D01*
X139653097Y-95334524D01*
X139653096Y-95334523D01*
X139643473Y-95336896D01*
X139613796Y-95340500D01*
X139566203Y-95340500D01*
X139536529Y-95336897D01*
X139431924Y-95311115D01*
X139431907Y-95311111D01*
X139395645Y-95304466D01*
X139395640Y-95304465D01*
X139395633Y-95304464D01*
X139395617Y-95304462D01*
X139336043Y-95297227D01*
X139299223Y-95295000D01*
X139299217Y-95295000D01*
X138899000Y-95295000D01*
X138887262Y-95296156D01*
X138839402Y-95300869D01*
X138839400Y-95300869D01*
X138744119Y-95319822D01*
X138737211Y-95321279D01*
X138633987Y-95365438D01*
X138553152Y-95419450D01*
X138547382Y-95423402D01*
X138547378Y-95423405D01*
X138468913Y-95503706D01*
X138414921Y-95584513D01*
X138411090Y-95590394D01*
X138411087Y-95590400D01*
X138369324Y-95694610D01*
X138369322Y-95694616D01*
X138350369Y-95789900D01*
X138350369Y-95789902D01*
X138344500Y-95849502D01*
X138344500Y-96645997D01*
X138350369Y-96705597D01*
X138350369Y-96705599D01*
X138369322Y-96800880D01*
X138370779Y-96807788D01*
X138414938Y-96911012D01*
X138460272Y-96978859D01*
X138481149Y-97045536D01*
X138462664Y-97112916D01*
X138460273Y-97116638D01*
X138414908Y-97184533D01*
X138411090Y-97190394D01*
X138411087Y-97190400D01*
X138369324Y-97294610D01*
X138369322Y-97294616D01*
X138350369Y-97389900D01*
X138350369Y-97389902D01*
X138344500Y-97449502D01*
X138344500Y-99197357D01*
X138350369Y-99256957D01*
X138350369Y-99256959D01*
X138369322Y-99352240D01*
X138369911Y-99355034D01*
X138370780Y-99359151D01*
X138372938Y-99364196D01*
X138414939Y-99462372D01*
X138414939Y-99462374D01*
X138468918Y-99543159D01*
X138506913Y-99589456D01*
X139261043Y-100343586D01*
X139261048Y-100343590D01*
X139261049Y-100343591D01*
X139280650Y-100359677D01*
X139302485Y-100377597D01*
X139307345Y-100381585D01*
X139388127Y-100435561D01*
X139394038Y-100439412D01*
X139498252Y-100481176D01*
X139498254Y-100481176D01*
X139498256Y-100481177D01*
X139546540Y-100490781D01*
X139593540Y-100500130D01*
X139653140Y-100506000D01*
X140157332Y-100506000D01*
X140224371Y-100525685D01*
X140232062Y-100531048D01*
X140233955Y-100532477D01*
X140233959Y-100532481D01*
X140407363Y-100639848D01*
X140590701Y-100710873D01*
X140646102Y-100753446D01*
X140669693Y-100819213D01*
X140653982Y-100887293D01*
X140603958Y-100936072D01*
X140545907Y-100950500D01*
X130324000Y-100950500D01*
X130256961Y-100930815D01*
X130211206Y-100878011D01*
X130200000Y-100826500D01*
X130200000Y-97143939D01*
X130219685Y-97076900D01*
X130272489Y-97031145D01*
X130341647Y-97021201D01*
X130405203Y-97050226D01*
X130434485Y-97087644D01*
X130487715Y-97192114D01*
X130608028Y-97357713D01*
X130752786Y-97502471D01*
X130907749Y-97615056D01*
X130918390Y-97622787D01*
X131034607Y-97682003D01*
X131100776Y-97715718D01*
X131100778Y-97715718D01*
X131100781Y-97715720D01*
X131205137Y-97749627D01*
X131295465Y-97778977D01*
X131396557Y-97794988D01*
X131497648Y-97811000D01*
X131497649Y-97811000D01*
X131902351Y-97811000D01*
X131902352Y-97811000D01*
X132104534Y-97778977D01*
X132147221Y-97765106D01*
X132217059Y-97763112D01*
X132276892Y-97799192D01*
X132307721Y-97861892D01*
X132308633Y-97868091D01*
X132314859Y-97919368D01*
X132314860Y-97919374D01*
X132375182Y-98078431D01*
X132420864Y-98144612D01*
X132471817Y-98218429D01*
X132563328Y-98299500D01*
X132599150Y-98331236D01*
X132749773Y-98410289D01*
X132749775Y-98410290D01*
X132914944Y-98451000D01*
X133085056Y-98451000D01*
X133250225Y-98410290D01*
X133329692Y-98368581D01*
X133400849Y-98331236D01*
X133400850Y-98331234D01*
X133400852Y-98331234D01*
X133528183Y-98218429D01*
X133624818Y-98078430D01*
X133685140Y-97919372D01*
X133705645Y-97750500D01*
X133703669Y-97734227D01*
X133703757Y-97718255D01*
X133702900Y-97718255D01*
X133702900Y-97582747D01*
X133703008Y-97582747D01*
X133703008Y-97568253D01*
X133702900Y-97568253D01*
X133702900Y-90427105D01*
X133710957Y-90383136D01*
X133735140Y-90319372D01*
X133755645Y-90150500D01*
X133735140Y-89981628D01*
X133674818Y-89822570D01*
X133578183Y-89682571D01*
X133478895Y-89594610D01*
X133450849Y-89569763D01*
X133300226Y-89490710D01*
X133127773Y-89448205D01*
X133128467Y-89445389D01*
X133076611Y-89423040D01*
X133037584Y-89365087D01*
X133036083Y-89295233D01*
X133037844Y-89289310D01*
X133068477Y-89195034D01*
X133100500Y-88992852D01*
X133100500Y-88788148D01*
X133077942Y-88645723D01*
X133068477Y-88585965D01*
X133005218Y-88391276D01*
X132965515Y-88313355D01*
X132912287Y-88208890D01*
X132862165Y-88139902D01*
X132791971Y-88043286D01*
X132647213Y-87898528D01*
X132481614Y-87778215D01*
X132464343Y-87769415D01*
X132388917Y-87730983D01*
X132338123Y-87683011D01*
X132321328Y-87615190D01*
X132343865Y-87549055D01*
X132388917Y-87510016D01*
X132481610Y-87462787D01*
X132633015Y-87352786D01*
X132647213Y-87342471D01*
X132647215Y-87342468D01*
X132647219Y-87342466D01*
X132791966Y-87197719D01*
X132791968Y-87197715D01*
X132791971Y-87197713D01*
X132844732Y-87125090D01*
X132912287Y-87032110D01*
X133005220Y-86849719D01*
X133068477Y-86655034D01*
X133100500Y-86452852D01*
X133100500Y-86248148D01*
X133068477Y-86045966D01*
X133005220Y-85851281D01*
X133005218Y-85851278D01*
X133005218Y-85851276D01*
X132965515Y-85773355D01*
X132912287Y-85668890D01*
X132882020Y-85627231D01*
X132791971Y-85503286D01*
X132647213Y-85358528D01*
X132481613Y-85238215D01*
X132481612Y-85238214D01*
X132481610Y-85238213D01*
X132424653Y-85209191D01*
X132299223Y-85145281D01*
X132104534Y-85082022D01*
X131929995Y-85054378D01*
X131902352Y-85050000D01*
X131497648Y-85050000D01*
X131478852Y-85052977D01*
X131295465Y-85082022D01*
X131100776Y-85145281D01*
X130918386Y-85238215D01*
X130752786Y-85358528D01*
X130608028Y-85503286D01*
X130487715Y-85668886D01*
X130434485Y-85773355D01*
X130386510Y-85824151D01*
X130318689Y-85840946D01*
X130252554Y-85818408D01*
X130209103Y-85763693D01*
X130200000Y-85717060D01*
X130200000Y-82074500D01*
X130219685Y-82007461D01*
X130272489Y-81961706D01*
X130324000Y-81950500D01*
X146376000Y-81950500D01*
X146443039Y-81970185D01*
G37*
%TD.AperFunction*%
%TD*%
%TA.AperFunction,Conductor*%
%TO.N,Board_5-GND*%
G36*
X166743039Y-81970185D02*
G01*
X166788794Y-82022989D01*
X166800000Y-82074500D01*
X166800000Y-84834372D01*
X166780315Y-84901411D01*
X166727511Y-84947166D01*
X166658353Y-84957110D01*
X166629873Y-84949473D01*
X166555889Y-84919824D01*
X166555883Y-84919822D01*
X166460598Y-84900869D01*
X166412738Y-84896156D01*
X166401000Y-84895000D01*
X164592924Y-84895000D01*
X164541031Y-84899440D01*
X164457662Y-84913810D01*
X164457660Y-84913810D01*
X164457651Y-84913812D01*
X164457650Y-84913812D01*
X164407272Y-84927001D01*
X164052734Y-85052977D01*
X164010857Y-85060133D01*
X159037814Y-85045688D01*
X158985663Y-85050019D01*
X158952588Y-85055649D01*
X158901874Y-85064282D01*
X158901871Y-85064282D01*
X158901871Y-85064283D01*
X158796997Y-85102866D01*
X158713520Y-85152504D01*
X158707469Y-85156198D01*
X158624892Y-85232260D01*
X158624885Y-85232268D01*
X158566754Y-85310077D01*
X158562587Y-85315792D01*
X158515402Y-85417667D01*
X158515398Y-85417677D01*
X158491469Y-85511807D01*
X158491465Y-85511824D01*
X158491463Y-85511836D01*
X158491462Y-85511842D01*
X158482469Y-85571031D01*
X158482469Y-85571038D01*
X158479693Y-85623790D01*
X158479526Y-85627348D01*
X158479304Y-85632725D01*
X158479305Y-85632738D01*
X158483249Y-85695830D01*
X158483250Y-85695844D01*
X158483250Y-85695849D01*
X158483251Y-85695850D01*
X158486807Y-85717060D01*
X158499319Y-85791675D01*
X158514959Y-85849460D01*
X158514962Y-85849470D01*
X158537644Y-85909278D01*
X158544797Y-85938302D01*
X158550534Y-85985553D01*
X158550534Y-86015445D01*
X158544797Y-86062695D01*
X158537644Y-86091717D01*
X158523063Y-86130165D01*
X158520898Y-86136056D01*
X158517514Y-86145555D01*
X158502209Y-86209836D01*
X158490060Y-86306201D01*
X158489256Y-86313238D01*
X158489256Y-86313247D01*
X158498507Y-86425124D01*
X158498509Y-86425135D01*
X158524169Y-86518831D01*
X158524172Y-86518842D01*
X158545569Y-86574757D01*
X158545571Y-86574761D01*
X158545573Y-86574766D01*
X158545574Y-86574766D01*
X158545574Y-86574767D01*
X158557931Y-86599483D01*
X158583340Y-86641481D01*
X158583341Y-86641482D01*
X158629983Y-86706196D01*
X158708095Y-86781585D01*
X158734097Y-86798959D01*
X158788843Y-86835539D01*
X158788877Y-86835561D01*
X158794788Y-86839412D01*
X158899002Y-86881176D01*
X158899004Y-86881176D01*
X158899006Y-86881177D01*
X158944499Y-86890226D01*
X158994290Y-86900130D01*
X159053890Y-86906000D01*
X160920500Y-86906000D01*
X160987539Y-86925685D01*
X161033294Y-86978489D01*
X161044500Y-87030000D01*
X161044500Y-87131126D01*
X161044951Y-87147712D01*
X161046419Y-87174713D01*
X161046420Y-87174724D01*
X161060074Y-87249893D01*
X161089256Y-87342569D01*
X161092604Y-87352786D01*
X161094770Y-87422622D01*
X161058835Y-87482543D01*
X161043657Y-87494495D01*
X161009321Y-87517436D01*
X160963020Y-87555434D01*
X160909776Y-87608680D01*
X160848453Y-87642166D01*
X160822094Y-87645000D01*
X159099000Y-87645000D01*
X159087262Y-87646156D01*
X159039402Y-87650869D01*
X159039400Y-87650869D01*
X158944119Y-87669822D01*
X158937211Y-87671279D01*
X158833987Y-87715438D01*
X158753152Y-87769450D01*
X158747382Y-87773402D01*
X158747378Y-87773405D01*
X158668913Y-87853706D01*
X158614921Y-87934513D01*
X158611090Y-87940394D01*
X158611087Y-87940400D01*
X158569324Y-88044610D01*
X158569322Y-88044616D01*
X158550369Y-88139900D01*
X158550369Y-88139902D01*
X158544500Y-88199502D01*
X158544500Y-88627317D01*
X158545055Y-88645723D01*
X158546872Y-88675765D01*
X158548542Y-88694141D01*
X158550535Y-88710558D01*
X158550535Y-88740442D01*
X158548565Y-88756668D01*
X158548566Y-88756669D01*
X158548495Y-88757255D01*
X158548487Y-88757318D01*
X158546871Y-88775255D01*
X158545055Y-88805274D01*
X158544500Y-88823680D01*
X158544500Y-88901497D01*
X158550369Y-88961097D01*
X158550369Y-88961099D01*
X158569322Y-89056380D01*
X158570779Y-89063288D01*
X158614939Y-89166512D01*
X158614938Y-89166512D01*
X158668950Y-89247347D01*
X158672902Y-89253117D01*
X158672905Y-89253121D01*
X158718216Y-89297396D01*
X158752408Y-89358328D01*
X158748229Y-89428073D01*
X158734659Y-89454972D01*
X158714922Y-89484512D01*
X158711090Y-89490394D01*
X158711087Y-89490400D01*
X158669324Y-89594610D01*
X158669322Y-89594616D01*
X158650369Y-89689900D01*
X158650369Y-89689902D01*
X158644500Y-89749502D01*
X158644500Y-91597357D01*
X158650369Y-91656957D01*
X158650369Y-91656959D01*
X158669322Y-91752240D01*
X158670779Y-91759148D01*
X158714939Y-91862372D01*
X158714939Y-91862374D01*
X158751169Y-91916596D01*
X158767609Y-91941201D01*
X158768918Y-91943159D01*
X158806913Y-91989456D01*
X159254562Y-92437105D01*
X159288047Y-92498428D01*
X159283063Y-92568120D01*
X159241191Y-92624053D01*
X159178906Y-92648201D01*
X159139400Y-92652050D01*
X159139390Y-92652051D01*
X159139385Y-92652052D01*
X159044102Y-92671005D01*
X159037211Y-92672459D01*
X158933987Y-92716618D01*
X158853152Y-92770630D01*
X158847382Y-92774582D01*
X158847378Y-92774585D01*
X158768913Y-92854886D01*
X158714921Y-92935693D01*
X158711090Y-92941574D01*
X158711087Y-92941580D01*
X158669324Y-93045790D01*
X158669322Y-93045796D01*
X158650369Y-93141080D01*
X158650369Y-93141082D01*
X158644500Y-93200682D01*
X158644500Y-94151497D01*
X158650369Y-94211097D01*
X158650369Y-94211099D01*
X158669322Y-94306380D01*
X158670779Y-94313288D01*
X158714939Y-94416512D01*
X158714938Y-94416512D01*
X158714939Y-94416513D01*
X158758161Y-94481201D01*
X158768950Y-94497347D01*
X158772902Y-94503117D01*
X158772905Y-94503121D01*
X158818470Y-94547644D01*
X158853205Y-94581585D01*
X158933987Y-94635561D01*
X158939898Y-94639412D01*
X159044112Y-94681176D01*
X159044114Y-94681176D01*
X159044116Y-94681177D01*
X159092400Y-94690781D01*
X159139400Y-94700130D01*
X159199000Y-94706000D01*
X159199002Y-94706000D01*
X159761491Y-94706000D01*
X159761502Y-94706000D01*
X159798332Y-94703772D01*
X159814418Y-94701818D01*
X159817833Y-94701404D01*
X159832778Y-94700500D01*
X159945005Y-94700500D01*
X159954201Y-94700842D01*
X159956018Y-94700977D01*
X159959978Y-94701272D01*
X159965655Y-94701826D01*
X159981669Y-94703772D01*
X159981680Y-94703772D01*
X159981683Y-94703773D01*
X159991960Y-94704394D01*
X160018498Y-94706000D01*
X161020500Y-94706000D01*
X161087539Y-94725685D01*
X161133294Y-94778489D01*
X161144130Y-94828303D01*
X161144413Y-94828293D01*
X161144472Y-94829871D01*
X161144500Y-94830000D01*
X161144500Y-94830611D01*
X161146080Y-94851730D01*
X161147900Y-94876067D01*
X161158928Y-94949351D01*
X161178917Y-95009227D01*
X161192207Y-95049034D01*
X161210429Y-95082784D01*
X161222851Y-95105790D01*
X161237380Y-95174133D01*
X161212654Y-95239481D01*
X161182638Y-95267799D01*
X161177102Y-95271498D01*
X161173212Y-95274097D01*
X161106538Y-95294980D01*
X161104315Y-95295000D01*
X160180776Y-95295000D01*
X160143956Y-95297227D01*
X160084382Y-95304462D01*
X160084360Y-95304465D01*
X160048078Y-95311114D01*
X159953097Y-95334524D01*
X159953096Y-95334523D01*
X159943473Y-95336896D01*
X159913796Y-95340500D01*
X159866203Y-95340500D01*
X159836529Y-95336897D01*
X159731924Y-95311115D01*
X159731907Y-95311111D01*
X159695645Y-95304466D01*
X159695640Y-95304465D01*
X159695633Y-95304464D01*
X159695617Y-95304462D01*
X159636043Y-95297227D01*
X159599223Y-95295000D01*
X159599217Y-95295000D01*
X159199000Y-95295000D01*
X159187262Y-95296156D01*
X159139402Y-95300869D01*
X159139400Y-95300869D01*
X159044119Y-95319822D01*
X159037211Y-95321279D01*
X158933987Y-95365438D01*
X158853152Y-95419450D01*
X158847382Y-95423402D01*
X158847378Y-95423405D01*
X158768913Y-95503706D01*
X158714921Y-95584513D01*
X158711090Y-95590394D01*
X158711087Y-95590400D01*
X158669324Y-95694610D01*
X158669322Y-95694616D01*
X158650369Y-95789900D01*
X158650369Y-95789902D01*
X158644500Y-95849502D01*
X158644500Y-96645997D01*
X158650369Y-96705597D01*
X158650369Y-96705599D01*
X158669322Y-96800880D01*
X158670779Y-96807788D01*
X158714938Y-96911012D01*
X158760272Y-96978859D01*
X158781149Y-97045536D01*
X158762664Y-97112916D01*
X158760273Y-97116638D01*
X158714908Y-97184533D01*
X158711090Y-97190394D01*
X158711087Y-97190400D01*
X158669324Y-97294610D01*
X158669322Y-97294616D01*
X158650369Y-97389900D01*
X158650369Y-97389902D01*
X158644500Y-97449502D01*
X158644500Y-99197357D01*
X158650369Y-99256957D01*
X158650369Y-99256959D01*
X158669322Y-99352240D01*
X158669911Y-99355034D01*
X158670780Y-99359151D01*
X158672938Y-99364196D01*
X158714939Y-99462372D01*
X158714939Y-99462374D01*
X158768918Y-99543159D01*
X158806913Y-99589456D01*
X159561043Y-100343586D01*
X159561048Y-100343590D01*
X159561049Y-100343591D01*
X159580650Y-100359677D01*
X159602485Y-100377597D01*
X159607345Y-100381585D01*
X159688127Y-100435561D01*
X159694038Y-100439412D01*
X159798252Y-100481176D01*
X159798254Y-100481176D01*
X159798256Y-100481177D01*
X159846540Y-100490781D01*
X159893540Y-100500130D01*
X159953140Y-100506000D01*
X160457332Y-100506000D01*
X160524371Y-100525685D01*
X160532062Y-100531048D01*
X160533955Y-100532477D01*
X160533959Y-100532481D01*
X160707363Y-100639848D01*
X160890701Y-100710873D01*
X160946102Y-100753446D01*
X160969693Y-100819213D01*
X160953982Y-100887293D01*
X160903958Y-100936072D01*
X160845907Y-100950500D01*
X150624000Y-100950500D01*
X150556961Y-100930815D01*
X150511206Y-100878011D01*
X150500000Y-100826500D01*
X150500000Y-97143939D01*
X150519685Y-97076900D01*
X150572489Y-97031145D01*
X150641647Y-97021201D01*
X150705203Y-97050226D01*
X150734485Y-97087644D01*
X150787715Y-97192114D01*
X150908028Y-97357713D01*
X151052786Y-97502471D01*
X151207749Y-97615056D01*
X151218390Y-97622787D01*
X151334607Y-97682003D01*
X151400776Y-97715718D01*
X151400778Y-97715718D01*
X151400781Y-97715720D01*
X151505137Y-97749627D01*
X151595465Y-97778977D01*
X151696557Y-97794988D01*
X151797648Y-97811000D01*
X151797649Y-97811000D01*
X152202351Y-97811000D01*
X152202352Y-97811000D01*
X152404534Y-97778977D01*
X152447221Y-97765106D01*
X152517059Y-97763112D01*
X152576892Y-97799192D01*
X152607721Y-97861892D01*
X152608633Y-97868091D01*
X152614859Y-97919368D01*
X152614860Y-97919374D01*
X152675182Y-98078431D01*
X152720864Y-98144612D01*
X152771817Y-98218429D01*
X152863328Y-98299500D01*
X152899150Y-98331236D01*
X153049773Y-98410289D01*
X153049775Y-98410290D01*
X153214944Y-98451000D01*
X153385056Y-98451000D01*
X153550225Y-98410290D01*
X153629692Y-98368581D01*
X153700849Y-98331236D01*
X153700850Y-98331234D01*
X153700852Y-98331234D01*
X153828183Y-98218429D01*
X153924818Y-98078430D01*
X153985140Y-97919372D01*
X154005645Y-97750500D01*
X154003669Y-97734227D01*
X154003757Y-97718255D01*
X154002900Y-97718255D01*
X154002900Y-97582747D01*
X154003008Y-97582747D01*
X154003008Y-97568253D01*
X154002900Y-97568253D01*
X154002900Y-90427105D01*
X154010957Y-90383136D01*
X154035140Y-90319372D01*
X154055645Y-90150500D01*
X154035140Y-89981628D01*
X153974818Y-89822570D01*
X153878183Y-89682571D01*
X153778895Y-89594610D01*
X153750849Y-89569763D01*
X153600226Y-89490710D01*
X153427773Y-89448205D01*
X153428467Y-89445389D01*
X153376611Y-89423040D01*
X153337584Y-89365087D01*
X153336083Y-89295233D01*
X153337844Y-89289310D01*
X153368477Y-89195034D01*
X153400500Y-88992852D01*
X153400500Y-88788148D01*
X153377942Y-88645723D01*
X153368477Y-88585965D01*
X153305218Y-88391276D01*
X153265515Y-88313355D01*
X153212287Y-88208890D01*
X153162165Y-88139902D01*
X153091971Y-88043286D01*
X152947213Y-87898528D01*
X152781614Y-87778215D01*
X152764343Y-87769415D01*
X152688917Y-87730983D01*
X152638123Y-87683011D01*
X152621328Y-87615190D01*
X152643865Y-87549055D01*
X152688917Y-87510016D01*
X152781610Y-87462787D01*
X152933015Y-87352786D01*
X152947213Y-87342471D01*
X152947215Y-87342468D01*
X152947219Y-87342466D01*
X153091966Y-87197719D01*
X153091968Y-87197715D01*
X153091971Y-87197713D01*
X153144732Y-87125090D01*
X153212287Y-87032110D01*
X153305220Y-86849719D01*
X153368477Y-86655034D01*
X153400500Y-86452852D01*
X153400500Y-86248148D01*
X153368477Y-86045966D01*
X153305220Y-85851281D01*
X153305218Y-85851278D01*
X153305218Y-85851276D01*
X153265515Y-85773355D01*
X153212287Y-85668890D01*
X153182020Y-85627231D01*
X153091971Y-85503286D01*
X152947213Y-85358528D01*
X152781613Y-85238215D01*
X152781612Y-85238214D01*
X152781610Y-85238213D01*
X152724653Y-85209191D01*
X152599223Y-85145281D01*
X152404534Y-85082022D01*
X152229995Y-85054378D01*
X152202352Y-85050000D01*
X151797648Y-85050000D01*
X151778852Y-85052977D01*
X151595465Y-85082022D01*
X151400776Y-85145281D01*
X151218386Y-85238215D01*
X151052786Y-85358528D01*
X150908028Y-85503286D01*
X150787715Y-85668886D01*
X150734485Y-85773355D01*
X150686510Y-85824151D01*
X150618689Y-85840946D01*
X150552554Y-85818408D01*
X150509103Y-85763693D01*
X150500000Y-85717060D01*
X150500000Y-82074500D01*
X150519685Y-82007461D01*
X150572489Y-81961706D01*
X150624000Y-81950500D01*
X166676000Y-81950500D01*
X166743039Y-81970185D01*
G37*
%TD.AperFunction*%
%TD*%
%TA.AperFunction,Conductor*%
%TO.N,Board_2-/OUT_A2*%
G36*
X146296288Y-69269454D02*
G01*
X146377070Y-69323430D01*
X146431046Y-69404212D01*
X146450000Y-69499500D01*
X146450000Y-71204339D01*
X146431046Y-71299627D01*
X146377070Y-71380409D01*
X146296288Y-71434385D01*
X146203856Y-71453323D01*
X141466481Y-71507670D01*
X141370982Y-71489810D01*
X141289587Y-71436764D01*
X141271810Y-71417457D01*
X141207185Y-71339382D01*
X141161027Y-71253892D01*
X141150000Y-71180611D01*
X141150000Y-70850501D01*
X141150000Y-70850500D01*
X141050000Y-70750500D01*
X141049999Y-70750500D01*
X139718498Y-70750500D01*
X139681006Y-70745947D01*
X139680901Y-70746816D01*
X139665952Y-70745000D01*
X139665949Y-70745000D01*
X139514051Y-70745000D01*
X139514047Y-70745000D01*
X139499099Y-70746816D01*
X139498993Y-70745947D01*
X139461502Y-70750500D01*
X138899000Y-70750500D01*
X138803712Y-70731546D01*
X138722930Y-70677570D01*
X138668954Y-70596788D01*
X138650000Y-70501500D01*
X138650000Y-69550680D01*
X138668954Y-69455392D01*
X138722930Y-69374610D01*
X138803712Y-69320634D01*
X138899000Y-69301680D01*
X138899943Y-69301682D01*
X139685977Y-69305400D01*
X139697000Y-69306339D01*
X139697032Y-69305699D01*
X139703133Y-69305999D01*
X139703140Y-69306000D01*
X139703147Y-69306000D01*
X139812079Y-69306000D01*
X139813257Y-69306003D01*
X143934650Y-69325500D01*
X143934650Y-69325499D01*
X143934651Y-69325500D01*
X143992189Y-69317126D01*
X144050804Y-69308595D01*
X144086663Y-69306000D01*
X145900997Y-69306000D01*
X145901000Y-69306000D01*
X145960600Y-69300130D01*
X146055888Y-69281176D01*
X146062791Y-69279720D01*
X146084182Y-69270569D01*
X146179245Y-69250517D01*
X146182118Y-69250500D01*
X146201000Y-69250500D01*
X146296288Y-69269454D01*
G37*
%TD.AperFunction*%
%TD*%
%TA.AperFunction,Conductor*%
%TO.N,Board_4-/OUT_B1*%
G36*
X141187601Y-87714866D02*
G01*
X141227401Y-87730453D01*
X141227404Y-87730453D01*
X141227405Y-87730454D01*
X141248085Y-87734789D01*
X141322489Y-87750388D01*
X141382025Y-87756872D01*
X146053567Y-87805022D01*
X146148654Y-87824957D01*
X146228875Y-87879763D01*
X146282016Y-87961097D01*
X146300000Y-88054009D01*
X146300000Y-89847360D01*
X146281046Y-89942648D01*
X146227070Y-90023430D01*
X146212379Y-90038121D01*
X146131597Y-90092097D01*
X146036309Y-90111051D01*
X145987734Y-90106267D01*
X145960597Y-90100869D01*
X145901003Y-90095000D01*
X145901000Y-90095000D01*
X141404500Y-90095000D01*
X141309212Y-90076046D01*
X141228430Y-90022070D01*
X141174454Y-89941288D01*
X141155500Y-89846000D01*
X141155500Y-89749503D01*
X141155500Y-89749500D01*
X141149630Y-89689900D01*
X141130676Y-89594612D01*
X141129220Y-89587709D01*
X141085061Y-89484487D01*
X141031085Y-89403705D01*
X141027095Y-89397880D01*
X141027092Y-89397877D01*
X141022876Y-89391722D01*
X141001172Y-89351673D01*
X141000000Y-89350501D01*
X141000000Y-89350500D01*
X140800000Y-89150500D01*
X140799999Y-89150500D01*
X138799000Y-89150500D01*
X138703712Y-89131546D01*
X138622930Y-89077570D01*
X138568954Y-88996788D01*
X138550000Y-88901500D01*
X138550000Y-88823697D01*
X138551815Y-88793685D01*
X138551838Y-88793493D01*
X138560094Y-88725500D01*
X138551815Y-88657312D01*
X138550000Y-88627301D01*
X138550000Y-88199500D01*
X138568954Y-88104212D01*
X138622930Y-88023430D01*
X138703712Y-87969454D01*
X138799000Y-87950500D01*
X140699999Y-87950500D01*
X140700000Y-87950500D01*
X140879048Y-87771451D01*
X140959827Y-87717478D01*
X141050322Y-87698570D01*
X141092021Y-87697768D01*
X141187601Y-87714866D01*
G37*
%TD.AperFunction*%
%TD*%
%TA.AperFunction,Conductor*%
%TO.N,Board_1-/OUT_B1*%
G36*
X161487601Y-40414866D02*
G01*
X161527401Y-40430453D01*
X161527404Y-40430453D01*
X161527405Y-40430454D01*
X161548085Y-40434789D01*
X161622489Y-40450388D01*
X161682025Y-40456872D01*
X166353567Y-40505022D01*
X166448654Y-40524957D01*
X166528875Y-40579763D01*
X166582016Y-40661097D01*
X166600000Y-40754009D01*
X166600000Y-42547360D01*
X166581046Y-42642648D01*
X166527070Y-42723430D01*
X166512379Y-42738121D01*
X166431597Y-42792097D01*
X166336309Y-42811051D01*
X166287734Y-42806267D01*
X166260597Y-42800869D01*
X166201003Y-42795000D01*
X166201000Y-42795000D01*
X161704500Y-42795000D01*
X161609212Y-42776046D01*
X161528430Y-42722070D01*
X161474454Y-42641288D01*
X161455500Y-42546000D01*
X161455500Y-42449503D01*
X161455500Y-42449500D01*
X161449630Y-42389900D01*
X161430676Y-42294612D01*
X161429220Y-42287709D01*
X161385061Y-42184487D01*
X161331085Y-42103705D01*
X161327095Y-42097880D01*
X161327092Y-42097877D01*
X161322876Y-42091722D01*
X161301172Y-42051673D01*
X161300000Y-42050501D01*
X161300000Y-42050500D01*
X161100000Y-41850500D01*
X161099999Y-41850500D01*
X159099000Y-41850500D01*
X159003712Y-41831546D01*
X158922930Y-41777570D01*
X158868954Y-41696788D01*
X158850000Y-41601500D01*
X158850000Y-41523697D01*
X158851815Y-41493685D01*
X158851838Y-41493493D01*
X158860094Y-41425500D01*
X158851815Y-41357312D01*
X158850000Y-41327301D01*
X158850000Y-40899500D01*
X158868954Y-40804212D01*
X158922930Y-40723430D01*
X159003712Y-40669454D01*
X159099000Y-40650500D01*
X160999999Y-40650500D01*
X161000000Y-40650500D01*
X161179048Y-40471451D01*
X161259827Y-40417478D01*
X161350322Y-40398570D01*
X161392021Y-40397768D01*
X161487601Y-40414866D01*
G37*
%TD.AperFunction*%
%TD*%
%TA.AperFunction,Conductor*%
%TO.N,Board_3-/OUT_B2*%
G36*
X166496288Y-61569454D02*
G01*
X166577070Y-61623430D01*
X166631046Y-61704212D01*
X166650000Y-61799500D01*
X166650000Y-63596610D01*
X166631046Y-63691898D01*
X166577070Y-63772680D01*
X166512350Y-63819324D01*
X166503776Y-63823611D01*
X166410073Y-63849267D01*
X166389867Y-63849880D01*
X161685174Y-63801388D01*
X161590086Y-63781453D01*
X161531810Y-63746532D01*
X161443070Y-63675254D01*
X161380649Y-63600805D01*
X161351469Y-63508135D01*
X161350000Y-63481123D01*
X161350000Y-63050500D01*
X161200000Y-62950500D01*
X159053890Y-62950500D01*
X158958602Y-62931546D01*
X158877820Y-62877570D01*
X158831178Y-62812856D01*
X158818821Y-62788142D01*
X158793159Y-62694437D01*
X158805311Y-62598045D01*
X158808705Y-62588514D01*
X158841785Y-62501291D01*
X158860094Y-62350500D01*
X158841785Y-62199709D01*
X158800611Y-62091143D01*
X158784545Y-61995329D01*
X158784772Y-61989829D01*
X158787547Y-61937095D01*
X158811484Y-61842938D01*
X158869632Y-61765106D01*
X158953139Y-61715450D01*
X159036924Y-61701188D01*
X164084650Y-61715850D01*
X164509555Y-61564870D01*
X164592924Y-61550500D01*
X166401000Y-61550500D01*
X166496288Y-61569454D01*
G37*
%TD.AperFunction*%
%TD*%
%TA.AperFunction,Conductor*%
%TO.N,Board_0-/OUT_A2*%
G36*
X146296288Y-45619454D02*
G01*
X146377070Y-45673430D01*
X146431046Y-45754212D01*
X146450000Y-45849500D01*
X146450000Y-47554339D01*
X146431046Y-47649627D01*
X146377070Y-47730409D01*
X146296288Y-47784385D01*
X146203856Y-47803323D01*
X141466481Y-47857670D01*
X141370982Y-47839810D01*
X141289587Y-47786764D01*
X141271810Y-47767457D01*
X141207185Y-47689382D01*
X141161027Y-47603892D01*
X141150000Y-47530611D01*
X141150000Y-47200501D01*
X141150000Y-47200500D01*
X141050000Y-47100500D01*
X141049999Y-47100500D01*
X139718498Y-47100500D01*
X139681006Y-47095947D01*
X139680901Y-47096816D01*
X139665952Y-47095000D01*
X139665949Y-47095000D01*
X139514051Y-47095000D01*
X139514047Y-47095000D01*
X139499099Y-47096816D01*
X139498993Y-47095947D01*
X139461502Y-47100500D01*
X138899000Y-47100500D01*
X138803712Y-47081546D01*
X138722930Y-47027570D01*
X138668954Y-46946788D01*
X138650000Y-46851500D01*
X138650000Y-45900680D01*
X138668954Y-45805392D01*
X138722930Y-45724610D01*
X138803712Y-45670634D01*
X138899000Y-45651680D01*
X138899943Y-45651682D01*
X139685977Y-45655400D01*
X139697000Y-45656339D01*
X139697032Y-45655699D01*
X139703133Y-45655999D01*
X139703140Y-45656000D01*
X139703147Y-45656000D01*
X139812079Y-45656000D01*
X139813257Y-45656003D01*
X143934650Y-45675500D01*
X143934650Y-45675499D01*
X143934651Y-45675500D01*
X143992189Y-45667126D01*
X144050804Y-45658595D01*
X144086663Y-45656000D01*
X145900997Y-45656000D01*
X145901000Y-45656000D01*
X145960600Y-45650130D01*
X146055888Y-45631176D01*
X146062791Y-45629720D01*
X146084182Y-45620569D01*
X146179245Y-45600517D01*
X146182118Y-45600500D01*
X146201000Y-45600500D01*
X146296288Y-45619454D01*
G37*
%TD.AperFunction*%
%TD*%
M02*
