%TF.GenerationSoftware,KiCad,Pcbnew,8.0.4*%
%TF.CreationDate,2024-09-15T23:07:02-03:00*%
%TF.ProjectId,panelized_TB67,70616e65-6c69-47a6-9564-5f544236372e,rev?*%
%TF.SameCoordinates,Original*%
%TF.FileFunction,Profile,NP*%
%FSLAX46Y46*%
G04 Gerber Fmt 4.6, Leading zero omitted, Abs format (unit mm)*
G04 Created by KiCad (PCBNEW 8.0.4) date 2024-09-15 23:07:02*
%MOMM*%
%LPD*%
G01*
G04 APERTURE LIST*
%TA.AperFunction,Profile*%
%ADD10C,0.100000*%
%TD*%
G04 APERTURE END LIST*
D10*
X166800000Y-100950500D02*
X166800000Y-81950500D01*
X161150000Y-100950500D02*
X166800000Y-100950500D01*
X150500000Y-63133833D02*
X148501000Y-63133833D01*
X161150000Y-79624500D02*
X161150000Y-77300500D01*
X130200000Y-81950500D02*
X130200000Y-100950500D01*
X135850000Y-34650500D02*
X130200000Y-34650500D01*
X130200000Y-77300500D02*
X135850000Y-77300500D01*
X148499000Y-45817166D02*
X146500000Y-45817166D01*
X135850000Y-79626500D02*
X135850000Y-81950500D01*
X148501000Y-63133833D02*
X148499000Y-63133833D01*
X146500000Y-39483833D02*
X146500000Y-34650500D01*
X146500000Y-48817166D02*
X148499000Y-48817166D01*
X156150000Y-34650500D02*
X150500000Y-34650500D01*
X148501000Y-66133833D02*
X150500000Y-66133833D01*
X140850000Y-55974500D02*
X140850000Y-53650500D01*
X146500000Y-63133833D02*
X146500000Y-58300500D01*
X166800000Y-105601500D02*
X161150000Y-105601500D01*
X148501000Y-89783833D02*
X150500000Y-89783833D01*
X156150000Y-79626500D02*
X156150000Y-81950500D01*
X148501000Y-45817166D02*
X148499000Y-45817166D01*
X148501000Y-39483833D02*
X148499000Y-39483833D01*
X148499000Y-96117166D02*
X148501000Y-96117166D01*
X135850000Y-77300500D02*
X135850000Y-79624500D01*
X130200000Y-100950500D02*
X135850000Y-100950500D01*
X148501000Y-69467166D02*
X148499000Y-69467166D01*
X146500000Y-34650500D02*
X140850000Y-34650500D01*
X148499000Y-93117166D02*
X146500000Y-93117166D01*
X150500000Y-72467166D02*
X150500000Y-77300500D01*
X148501000Y-96117166D02*
X150500000Y-96117166D01*
X166800000Y-20000000D02*
X130200000Y-20000000D01*
X135850000Y-30000000D02*
X135850000Y-34650500D01*
X148499000Y-66133833D02*
X148501000Y-66133833D01*
X148501000Y-93117166D02*
X148499000Y-93117166D01*
X148499000Y-86783833D02*
X146500000Y-86783833D01*
X150500000Y-45817166D02*
X148501000Y-45817166D01*
X150500000Y-77300500D02*
X156150000Y-77300500D01*
X150500000Y-81950500D02*
X150500000Y-86783833D01*
X166800000Y-53650500D02*
X166800000Y-34650500D01*
X166800000Y-81950500D02*
X161150000Y-81950500D01*
X135850000Y-55974500D02*
X135850000Y-55976500D01*
X140850000Y-105601500D02*
X140850000Y-100950500D01*
X130200000Y-20000000D02*
X130200000Y-30000000D01*
X156150000Y-105601500D02*
X140850000Y-105601500D01*
X146500000Y-89783833D02*
X148499000Y-89783833D01*
X156150000Y-53650500D02*
X156150000Y-55974500D01*
X156150000Y-79624500D02*
X156150000Y-79626500D01*
X161150000Y-58300500D02*
X161150000Y-55976500D01*
X150500000Y-93117166D02*
X148501000Y-93117166D01*
X166800000Y-34650500D02*
X161150000Y-34650500D01*
X156150000Y-77300500D02*
X156150000Y-79624500D01*
X150500000Y-89783833D02*
X150500000Y-93117166D01*
X166800000Y-77300500D02*
X166800000Y-58300500D01*
X150500000Y-42483833D02*
X150500000Y-45817166D01*
X146500000Y-66133833D02*
X148499000Y-66133833D01*
X146500000Y-96117166D02*
X148499000Y-96117166D01*
X156150000Y-100950500D02*
X156150000Y-105601500D01*
X148499000Y-42483833D02*
X148501000Y-42483833D01*
X148499000Y-72467166D02*
X148501000Y-72467166D01*
X135850000Y-53650500D02*
X135850000Y-55974500D01*
X146500000Y-77300500D02*
X146500000Y-72467166D01*
X146500000Y-58300500D02*
X140850000Y-58300500D01*
X166800000Y-58300500D02*
X161150000Y-58300500D01*
X146500000Y-86783833D02*
X146500000Y-81950500D01*
X130200000Y-58300500D02*
X130200000Y-77300500D01*
X135850000Y-105601500D02*
X130200000Y-105601500D01*
X150500000Y-58300500D02*
X150500000Y-63133833D01*
X150500000Y-96117166D02*
X150500000Y-100950500D01*
X140850000Y-53650500D02*
X146500000Y-53650500D01*
X140850000Y-79626500D02*
X140850000Y-79624500D01*
X161150000Y-105601500D02*
X161150000Y-100950500D01*
X146500000Y-45817166D02*
X146500000Y-42483833D01*
X146500000Y-42483833D02*
X148499000Y-42483833D01*
X148501000Y-86783833D02*
X148499000Y-86783833D01*
X146500000Y-53650500D02*
X146500000Y-48817166D01*
X148501000Y-72467166D02*
X150500000Y-72467166D01*
X150500000Y-34650500D02*
X150500000Y-39483833D01*
X130200000Y-105601500D02*
X130200000Y-115601500D01*
X161150000Y-30000000D02*
X166800000Y-30000000D01*
X148501000Y-42483833D02*
X150500000Y-42483833D01*
X161150000Y-81950500D02*
X161150000Y-79626500D01*
X156150000Y-81950500D02*
X150500000Y-81950500D01*
X150500000Y-86783833D02*
X148501000Y-86783833D01*
X140850000Y-30000000D02*
X156150000Y-30000000D01*
X150500000Y-39483833D02*
X148501000Y-39483833D01*
X156150000Y-55974500D02*
X156150000Y-55976500D01*
X140850000Y-100950500D02*
X146500000Y-100950500D01*
X146500000Y-81950500D02*
X140850000Y-81950500D01*
X146500000Y-69467166D02*
X146500000Y-66133833D01*
X150500000Y-69467166D02*
X148501000Y-69467166D01*
X161150000Y-34650500D02*
X161150000Y-30000000D01*
X156150000Y-55976500D02*
X156150000Y-58300500D01*
X146500000Y-72467166D02*
X148499000Y-72467166D01*
X130200000Y-115601500D02*
X166800000Y-115601500D01*
X161150000Y-77300500D02*
X166800000Y-77300500D01*
X140850000Y-58300500D02*
X140850000Y-55976500D01*
X130200000Y-30000000D02*
X135850000Y-30000000D01*
X130200000Y-53650500D02*
X135850000Y-53650500D01*
X148499000Y-63133833D02*
X146500000Y-63133833D01*
X146500000Y-100950500D02*
X146500000Y-96117166D01*
X156150000Y-30000000D02*
X156150000Y-34650500D01*
X148499000Y-39483833D02*
X146500000Y-39483833D01*
X161150000Y-55974500D02*
X161150000Y-53650500D01*
X135850000Y-100950500D02*
X135850000Y-105601500D01*
X161150000Y-79626500D02*
X161150000Y-79624500D01*
X140850000Y-34650500D02*
X140850000Y-30000000D01*
X135850000Y-81950500D02*
X130200000Y-81950500D01*
X150500000Y-66133833D02*
X150500000Y-69467166D01*
X166800000Y-115601500D02*
X166800000Y-105601500D01*
X135850000Y-55976500D02*
X135850000Y-58300500D01*
X140850000Y-79624500D02*
X140850000Y-77300500D01*
X150500000Y-53650500D02*
X156150000Y-53650500D01*
X146500000Y-93117166D02*
X146500000Y-89783833D01*
X161150000Y-55976500D02*
X161150000Y-55974500D01*
X148499000Y-69467166D02*
X146500000Y-69467166D01*
X148499000Y-89783833D02*
X148501000Y-89783833D01*
X156150000Y-58300500D02*
X150500000Y-58300500D01*
X140850000Y-55976500D02*
X140850000Y-55974500D01*
X135850000Y-58300500D02*
X130200000Y-58300500D01*
X150500000Y-48817166D02*
X150500000Y-53650500D01*
X166800000Y-30000000D02*
X166800000Y-20000000D01*
X140850000Y-77300500D02*
X146500000Y-77300500D01*
X161150000Y-53650500D02*
X166800000Y-53650500D01*
X148501000Y-48817166D02*
X150500000Y-48817166D01*
X130200000Y-34650500D02*
X130200000Y-53650500D01*
X140850000Y-81950500D02*
X140850000Y-79626500D01*
X150500000Y-100950500D02*
X156150000Y-100950500D01*
X148499000Y-48817166D02*
X148501000Y-48817166D01*
X135850000Y-79624500D02*
X135850000Y-79626500D01*
M02*
