%TF.GenerationSoftware,KiCad,Pcbnew,8.0.4*%
%TF.CreationDate,2024-09-16T17:08:10-03:00*%
%TF.ProjectId,PCBWay-Module_TB67H450FNG,50434257-6179-42d4-9d6f-64756c655f54,rev?*%
%TF.SameCoordinates,Original*%
%TF.FileFunction,Copper,L1,Top*%
%TF.FilePolarity,Positive*%
%FSLAX46Y46*%
G04 Gerber Fmt 4.6, Leading zero omitted, Abs format (unit mm)*
G04 Created by KiCad (PCBNEW 8.0.4) date 2024-09-16 17:08:10*
%MOMM*%
%LPD*%
G01*
G04 APERTURE LIST*
G04 Aperture macros list*
%AMRoundRect*
0 Rectangle with rounded corners*
0 $1 Rounding radius*
0 $2 $3 $4 $5 $6 $7 $8 $9 X,Y pos of 4 corners*
0 Add a 4 corners polygon primitive as box body*
4,1,4,$2,$3,$4,$5,$6,$7,$8,$9,$2,$3,0*
0 Add four circle primitives for the rounded corners*
1,1,$1+$1,$2,$3*
1,1,$1+$1,$4,$5*
1,1,$1+$1,$6,$7*
1,1,$1+$1,$8,$9*
0 Add four rect primitives between the rounded corners*
20,1,$1+$1,$2,$3,$4,$5,0*
20,1,$1+$1,$4,$5,$6,$7,0*
20,1,$1+$1,$6,$7,$8,$9,0*
20,1,$1+$1,$8,$9,$2,$3,0*%
G04 Aperture macros list end*
%TA.AperFunction,SMDPad,CuDef*%
%ADD10RoundRect,0.040600X-0.944400X-0.249400X0.944400X-0.249400X0.944400X0.249400X-0.944400X0.249400X0*%
%TD*%
%TA.AperFunction,SMDPad,CuDef*%
%ADD11R,2.285000X2.285000*%
%TD*%
%TA.AperFunction,SMDPad,CuDef*%
%ADD12RoundRect,0.250000X0.475000X-0.250000X0.475000X0.250000X-0.475000X0.250000X-0.475000X-0.250000X0*%
%TD*%
%TA.AperFunction,ComponentPad*%
%ADD13C,1.600000*%
%TD*%
%TA.AperFunction,ComponentPad*%
%ADD14R,2.200000X2.000000*%
%TD*%
%TA.AperFunction,ComponentPad*%
%ADD15O,2.200000X2.000000*%
%TD*%
%TA.AperFunction,ViaPad*%
%ADD16C,0.650000*%
%TD*%
%TA.AperFunction,ViaPad*%
%ADD17C,0.800000*%
%TD*%
%TA.AperFunction,Conductor*%
%ADD18C,0.304800*%
%TD*%
G04 APERTURE END LIST*
D10*
%TO.P,IC2,1,GND*%
%TO.N,GND*%
X108600000Y-106310000D03*
%TO.P,IC2,2,IN2*%
%TO.N,/IN_B2*%
X108600000Y-107580000D03*
%TO.P,IC2,3,IN1*%
%TO.N,/IN_B1*%
X108600000Y-108850000D03*
%TO.P,IC2,4,VREF*%
%TO.N,/VREF*%
X108600000Y-110120000D03*
%TO.P,IC2,5,VM*%
%TO.N,/VM*%
X113540000Y-110120000D03*
%TO.P,IC2,6,OUT1*%
%TO.N,/OUT_B1*%
X113540000Y-108850000D03*
%TO.P,IC2,7,RS*%
%TO.N,GND*%
X113540000Y-107580000D03*
%TO.P,IC2,8,OUT2*%
%TO.N,/OUT_B2*%
X113540000Y-106310000D03*
D11*
%TO.P,IC2,9,EP*%
%TO.N,GND*%
X111070000Y-108215000D03*
%TD*%
D12*
%TO.P,C2,1*%
%TO.N,/OUT_A1*%
X116600000Y-116550000D03*
%TO.P,C2,2*%
%TO.N,/OUT_A2*%
X116600000Y-114650000D03*
%TD*%
D13*
%TO.P,C3,1*%
%TO.N,/VM*%
X114850000Y-119950000D03*
%TO.P,C3,2*%
%TO.N,GND*%
X109850000Y-119950000D03*
%TD*%
D12*
%TO.P,C1,1*%
%TO.N,/OUT_B1*%
X116700000Y-108850000D03*
%TO.P,C1,2*%
%TO.N,/OUT_B2*%
X116700000Y-106950000D03*
%TD*%
D10*
%TO.P,IC1,1,GND*%
%TO.N,GND*%
X108600000Y-114050000D03*
%TO.P,IC1,2,IN2*%
%TO.N,/IN_A2*%
X108600000Y-115320000D03*
%TO.P,IC1,3,IN1*%
%TO.N,/IN_A1*%
X108600000Y-116590000D03*
%TO.P,IC1,4,VREF*%
%TO.N,/VREF*%
X108600000Y-117860000D03*
%TO.P,IC1,5,VM*%
%TO.N,/VM*%
X113540000Y-117860000D03*
%TO.P,IC1,6,OUT1*%
%TO.N,/OUT_A1*%
X113540000Y-116590000D03*
%TO.P,IC1,7,RS*%
%TO.N,GND*%
X113540000Y-115320000D03*
%TO.P,IC1,8,OUT2*%
%TO.N,/OUT_A2*%
X113540000Y-114050000D03*
D11*
%TO.P,IC1,9,EP*%
%TO.N,GND*%
X111070000Y-115955000D03*
%TD*%
D14*
%TO.P,J2,1,Pin_1*%
%TO.N,GND*%
X119040000Y-104110000D03*
D15*
%TO.P,J2,2,Pin_2*%
%TO.N,/OUT_B2*%
X119040000Y-106650000D03*
%TO.P,J2,3,Pin_3*%
%TO.N,/OUT_B1*%
X119040000Y-109190000D03*
%TO.P,J2,4,Pin_4*%
%TO.N,/VM*%
X119040000Y-111730000D03*
%TO.P,J2,5,Pin_5*%
%TO.N,/OUT_A2*%
X119040000Y-114270000D03*
%TO.P,J2,6,Pin_6*%
%TO.N,/OUT_A1*%
X119040000Y-116810000D03*
%TO.P,J2,7,Pin_7*%
%TO.N,/VM*%
X119040000Y-119350000D03*
%TD*%
D14*
%TO.P,J1,1,Pin_1*%
%TO.N,GND*%
X105650000Y-104110000D03*
D15*
%TO.P,J1,2,Pin_2*%
%TO.N,/IN_B2*%
X105650000Y-106650000D03*
%TO.P,J1,3,Pin_3*%
%TO.N,/IN_B1*%
X105650000Y-109190000D03*
%TO.P,J1,4,Pin_4*%
%TO.N,/VREF*%
X105650000Y-111730000D03*
%TO.P,J1,5,Pin_5*%
%TO.N,/IN_A2*%
X105650000Y-114270000D03*
%TO.P,J1,6,Pin_6*%
%TO.N,/IN_A1*%
X105650000Y-116810000D03*
%TO.P,J1,7,Pin_7*%
%TO.N,GND*%
X105650000Y-119350000D03*
%TD*%
D16*
%TO.N,/OUT_A2*%
X113540000Y-114060000D03*
X117000000Y-113750000D03*
X115750000Y-113750000D03*
%TO.N,/OUT_A1*%
X117100000Y-117500000D03*
X113540000Y-116590000D03*
X115850000Y-117500000D03*
%TO.N,/OUT_B1*%
X115800000Y-109850000D03*
X113540000Y-108850000D03*
X117050000Y-109850000D03*
%TO.N,/OUT_B2*%
X113540000Y-106310000D03*
X116950000Y-106100000D03*
X115700000Y-106100000D03*
%TO.N,GND*%
X109250000Y-103900000D03*
X115250000Y-103900000D03*
X110260000Y-108215000D03*
X110750000Y-104900000D03*
X107800000Y-119850000D03*
X115250000Y-104900000D03*
X111880000Y-107405000D03*
X110550000Y-113250000D03*
X111700000Y-118950000D03*
X109250000Y-102900000D03*
X110260000Y-116765000D03*
X111880000Y-109025000D03*
X111880000Y-116765000D03*
X107750000Y-104900000D03*
X111700000Y-119850000D03*
X111880000Y-108215000D03*
X111700000Y-120750000D03*
X111880000Y-117850000D03*
X113540000Y-115320000D03*
X107750000Y-103900000D03*
X111750000Y-112250000D03*
X108600000Y-114050000D03*
X110550000Y-111250000D03*
X109250000Y-104900000D03*
X113750000Y-104900000D03*
X107750000Y-102900000D03*
X112250000Y-102900000D03*
X112250000Y-103900000D03*
X112250000Y-104900000D03*
X109350000Y-112250000D03*
X111070000Y-106300000D03*
X111070000Y-115145000D03*
X110260000Y-115145000D03*
X110260000Y-115955000D03*
X111880000Y-110150000D03*
X110260000Y-107405000D03*
X111070000Y-107405000D03*
X111070000Y-117850000D03*
X111880000Y-115955000D03*
X108600000Y-106310000D03*
X111070000Y-114050000D03*
X116750000Y-103900000D03*
X110750000Y-102900000D03*
X110260000Y-106300000D03*
X111880000Y-115145000D03*
X111070000Y-116765000D03*
X111880000Y-106300000D03*
X110260000Y-109025000D03*
X113540000Y-107580000D03*
X111880000Y-114050000D03*
X116750000Y-102900000D03*
X110750000Y-103900000D03*
X115250000Y-102900000D03*
X113750000Y-103900000D03*
X110260000Y-117850000D03*
X113750000Y-102900000D03*
X110260000Y-114050000D03*
X108150000Y-111250000D03*
X107800000Y-118950000D03*
X107800000Y-120750000D03*
X111070000Y-108215000D03*
X111070000Y-109025000D03*
X110260000Y-110150000D03*
X116750000Y-104900000D03*
X111070000Y-115955000D03*
X109350000Y-111250000D03*
X109350000Y-113250000D03*
X111070000Y-110150000D03*
X110550000Y-112250000D03*
X108150000Y-113250000D03*
X108150000Y-112250000D03*
X111750000Y-111250000D03*
X111750000Y-113250000D03*
%TO.N,/VM*%
X117100000Y-112450000D03*
X117200000Y-118900000D03*
X114500000Y-111250000D03*
X117200000Y-120100000D03*
X114500000Y-112450000D03*
X113540000Y-110120000D03*
X113200000Y-111250000D03*
X113540000Y-117860000D03*
X113300000Y-118900000D03*
X115800000Y-112450000D03*
X117100000Y-111250000D03*
X115900000Y-118900000D03*
X115800000Y-111250000D03*
D17*
%TO.N,/VREF*%
X106950000Y-118050000D03*
X107000000Y-110450000D03*
%TD*%
D18*
%TO.N,/VREF*%
X107140000Y-117860000D02*
X106950000Y-118050000D01*
X108600000Y-117860000D02*
X107140000Y-117860000D01*
X107330000Y-110120000D02*
X108600000Y-110120000D01*
X107000000Y-110450000D02*
X107330000Y-110120000D01*
%TO.N,/IN_A2*%
X106700000Y-115320000D02*
X105650000Y-114270000D01*
X108600000Y-115320000D02*
X106700000Y-115320000D01*
%TO.N,/IN_A1*%
X105870000Y-116590000D02*
X105650000Y-116810000D01*
X108600000Y-116590000D02*
X105870000Y-116590000D01*
%TO.N,/IN_B2*%
X106580000Y-107580000D02*
X105650000Y-106650000D01*
X108600000Y-107580000D02*
X106580000Y-107580000D01*
%TO.N,/IN_B1*%
X105990000Y-108850000D02*
X105650000Y-109190000D01*
X108600000Y-108850000D02*
X105990000Y-108850000D01*
%TD*%
%TA.AperFunction,Conductor*%
%TO.N,/OUT_B2*%
G36*
X120146288Y-105518954D02*
G01*
X120227070Y-105572930D01*
X120281046Y-105653712D01*
X120300000Y-105749000D01*
X120300000Y-107546110D01*
X120281046Y-107641398D01*
X120227070Y-107722180D01*
X120162350Y-107768824D01*
X120153776Y-107773111D01*
X120060073Y-107798767D01*
X120039867Y-107799380D01*
X115335174Y-107750888D01*
X115240086Y-107730953D01*
X115181810Y-107696032D01*
X115093070Y-107624754D01*
X115030649Y-107550305D01*
X115001469Y-107457635D01*
X115000000Y-107430623D01*
X115000000Y-107000000D01*
X114850000Y-106900000D01*
X112703890Y-106900000D01*
X112608602Y-106881046D01*
X112527820Y-106827070D01*
X112481178Y-106762356D01*
X112468821Y-106737642D01*
X112443159Y-106643937D01*
X112455311Y-106547545D01*
X112458705Y-106538014D01*
X112491785Y-106450791D01*
X112510094Y-106300000D01*
X112491785Y-106149209D01*
X112450611Y-106040643D01*
X112434545Y-105944829D01*
X112434772Y-105939329D01*
X112437547Y-105886595D01*
X112461484Y-105792438D01*
X112519632Y-105714606D01*
X112603139Y-105664950D01*
X112686924Y-105650688D01*
X117734650Y-105665350D01*
X118159555Y-105514370D01*
X118242924Y-105500000D01*
X120051000Y-105500000D01*
X120146288Y-105518954D01*
G37*
%TD.AperFunction*%
%TD*%
%TA.AperFunction,Conductor*%
%TO.N,/VM*%
G36*
X114646288Y-109818954D02*
G01*
X114727070Y-109872930D01*
X114781046Y-109953712D01*
X114800000Y-110049000D01*
X114800000Y-110600000D01*
X114900000Y-110700000D01*
X119851000Y-110700000D01*
X119946288Y-110718954D01*
X120027070Y-110772930D01*
X120081046Y-110853712D01*
X120100000Y-110949000D01*
X120100000Y-112701000D01*
X120081046Y-112796288D01*
X120027070Y-112877070D01*
X119946288Y-112931046D01*
X119851000Y-112950000D01*
X113653140Y-112950000D01*
X113557852Y-112931046D01*
X113477070Y-112877070D01*
X112672930Y-112072930D01*
X112618954Y-111992148D01*
X112600000Y-111896860D01*
X112600000Y-110049000D01*
X112618954Y-109953712D01*
X112672930Y-109872930D01*
X112753712Y-109818954D01*
X112849000Y-109800000D01*
X114551000Y-109800000D01*
X114646288Y-109818954D01*
G37*
%TD.AperFunction*%
%TD*%
%TA.AperFunction,Conductor*%
%TO.N,GND*%
G36*
X120393039Y-102269685D02*
G01*
X120438794Y-102322489D01*
X120450000Y-102374000D01*
X120450000Y-105133872D01*
X120430315Y-105200911D01*
X120377511Y-105246666D01*
X120308353Y-105256610D01*
X120279873Y-105248973D01*
X120205889Y-105219324D01*
X120205883Y-105219322D01*
X120110598Y-105200369D01*
X120062738Y-105195656D01*
X120051000Y-105194500D01*
X118242924Y-105194500D01*
X118191031Y-105198940D01*
X118107662Y-105213310D01*
X118107660Y-105213310D01*
X118107651Y-105213312D01*
X118107650Y-105213312D01*
X118057272Y-105226501D01*
X117702734Y-105352477D01*
X117660857Y-105359633D01*
X112687814Y-105345188D01*
X112635663Y-105349519D01*
X112602588Y-105355149D01*
X112551874Y-105363782D01*
X112551871Y-105363782D01*
X112551871Y-105363783D01*
X112446997Y-105402366D01*
X112363520Y-105452004D01*
X112357469Y-105455698D01*
X112274892Y-105531760D01*
X112274885Y-105531768D01*
X112216754Y-105609577D01*
X112212587Y-105615292D01*
X112165402Y-105717167D01*
X112165398Y-105717177D01*
X112141469Y-105811307D01*
X112141465Y-105811324D01*
X112141463Y-105811336D01*
X112141462Y-105811342D01*
X112132469Y-105870531D01*
X112132469Y-105870538D01*
X112129693Y-105923290D01*
X112129526Y-105926848D01*
X112129304Y-105932225D01*
X112129305Y-105932238D01*
X112133249Y-105995330D01*
X112133250Y-105995344D01*
X112133250Y-105995349D01*
X112133251Y-105995350D01*
X112136807Y-106016560D01*
X112149319Y-106091175D01*
X112164959Y-106148960D01*
X112164962Y-106148970D01*
X112187644Y-106208778D01*
X112194797Y-106237802D01*
X112200534Y-106285053D01*
X112200534Y-106314945D01*
X112194797Y-106362195D01*
X112187644Y-106391217D01*
X112173063Y-106429665D01*
X112170898Y-106435556D01*
X112167514Y-106445055D01*
X112152209Y-106509336D01*
X112140060Y-106605701D01*
X112139256Y-106612738D01*
X112139256Y-106612747D01*
X112148507Y-106724624D01*
X112148509Y-106724635D01*
X112174169Y-106818331D01*
X112174172Y-106818342D01*
X112195569Y-106874257D01*
X112195571Y-106874261D01*
X112195573Y-106874266D01*
X112195574Y-106874266D01*
X112195574Y-106874267D01*
X112207931Y-106898983D01*
X112233340Y-106940981D01*
X112233341Y-106940982D01*
X112279983Y-107005696D01*
X112358095Y-107081085D01*
X112384097Y-107098459D01*
X112438843Y-107135039D01*
X112438877Y-107135061D01*
X112444788Y-107138912D01*
X112549002Y-107180676D01*
X112549004Y-107180676D01*
X112549006Y-107180677D01*
X112594499Y-107189726D01*
X112644290Y-107199630D01*
X112703890Y-107205500D01*
X114570500Y-107205500D01*
X114637539Y-107225185D01*
X114683294Y-107277989D01*
X114694500Y-107329500D01*
X114694500Y-107430626D01*
X114694951Y-107447212D01*
X114696419Y-107474213D01*
X114696420Y-107474224D01*
X114710074Y-107549393D01*
X114739256Y-107642069D01*
X114742604Y-107652286D01*
X114744770Y-107722122D01*
X114708835Y-107782043D01*
X114693657Y-107793995D01*
X114659321Y-107816936D01*
X114613020Y-107854934D01*
X114559776Y-107908180D01*
X114498453Y-107941666D01*
X114472094Y-107944500D01*
X112761999Y-107944500D01*
X112750437Y-107945638D01*
X112702411Y-107950368D01*
X112702408Y-107950368D01*
X112607031Y-107969339D01*
X112600208Y-107970778D01*
X112600207Y-107970779D01*
X112496981Y-108014940D01*
X112496974Y-108014944D01*
X112416237Y-108068892D01*
X112410379Y-108072905D01*
X112331919Y-108153200D01*
X112331912Y-108153208D01*
X112277947Y-108233973D01*
X112274084Y-108239902D01*
X112232323Y-108344110D01*
X112232321Y-108344116D01*
X112213368Y-108439400D01*
X112213368Y-108439402D01*
X112207499Y-108499001D01*
X112207499Y-109200997D01*
X112213369Y-109260597D01*
X112213369Y-109260599D01*
X112229008Y-109339219D01*
X112232324Y-109355888D01*
X112233780Y-109362791D01*
X112245760Y-109390794D01*
X112277938Y-109466012D01*
X112317791Y-109525656D01*
X112338668Y-109592333D01*
X112320183Y-109659713D01*
X112316268Y-109665663D01*
X112311877Y-109671933D01*
X112261039Y-109780956D01*
X112254501Y-109830620D01*
X112254500Y-109830637D01*
X112254500Y-110409370D01*
X112261039Y-110459041D01*
X112261041Y-110459048D01*
X112282882Y-110505885D01*
X112294500Y-110558290D01*
X112294500Y-111896857D01*
X112300369Y-111956457D01*
X112300369Y-111956459D01*
X112319322Y-112051740D01*
X112320779Y-112058648D01*
X112364939Y-112161872D01*
X112364939Y-112161874D01*
X112401169Y-112216096D01*
X112417609Y-112240701D01*
X112418918Y-112242659D01*
X112456913Y-112288956D01*
X112904562Y-112736605D01*
X112938047Y-112797928D01*
X112933063Y-112867620D01*
X112891191Y-112923553D01*
X112828906Y-112947701D01*
X112789400Y-112951550D01*
X112789390Y-112951551D01*
X112789385Y-112951552D01*
X112694102Y-112970505D01*
X112687211Y-112971959D01*
X112583987Y-113016118D01*
X112503152Y-113070130D01*
X112497382Y-113074082D01*
X112497378Y-113074085D01*
X112418913Y-113154386D01*
X112364921Y-113235193D01*
X112361090Y-113241074D01*
X112361087Y-113241080D01*
X112319324Y-113345290D01*
X112319322Y-113345296D01*
X112300369Y-113440580D01*
X112300369Y-113440582D01*
X112294500Y-113500182D01*
X112294500Y-113611709D01*
X112282882Y-113664114D01*
X112261041Y-113710951D01*
X112261039Y-113710959D01*
X112254501Y-113760620D01*
X112254500Y-113760637D01*
X112254500Y-114339370D01*
X112261039Y-114389041D01*
X112261041Y-114389048D01*
X112286777Y-114444238D01*
X112297798Y-114484486D01*
X112300371Y-114510609D01*
X112319322Y-114605880D01*
X112320779Y-114612788D01*
X112364939Y-114716012D01*
X112364938Y-114716012D01*
X112373951Y-114729501D01*
X112408161Y-114780701D01*
X112418950Y-114796847D01*
X112422902Y-114802617D01*
X112422905Y-114802621D01*
X112488893Y-114867100D01*
X112503205Y-114881085D01*
X112583987Y-114935061D01*
X112589898Y-114938912D01*
X112694112Y-114980676D01*
X112694114Y-114980676D01*
X112694116Y-114980677D01*
X112742400Y-114990281D01*
X112789400Y-114999630D01*
X112849000Y-115005500D01*
X112849002Y-115005500D01*
X113411493Y-115005500D01*
X113411504Y-115005500D01*
X113448333Y-115003272D01*
X113467834Y-115000903D01*
X113482781Y-115000000D01*
X113595005Y-115000000D01*
X113604201Y-115000342D01*
X113606018Y-115000477D01*
X113609978Y-115000772D01*
X113615655Y-115001326D01*
X113631669Y-115003272D01*
X113631680Y-115003272D01*
X113631683Y-115003273D01*
X113641960Y-115003894D01*
X113668498Y-115005500D01*
X114670500Y-115005500D01*
X114737539Y-115025185D01*
X114783294Y-115077989D01*
X114794130Y-115127803D01*
X114794413Y-115127793D01*
X114794472Y-115129371D01*
X114794500Y-115129500D01*
X114794500Y-115130111D01*
X114796080Y-115151230D01*
X114797900Y-115175567D01*
X114808928Y-115248851D01*
X114828917Y-115308727D01*
X114842207Y-115348534D01*
X114860429Y-115382284D01*
X114872851Y-115405290D01*
X114887380Y-115473633D01*
X114862654Y-115538981D01*
X114832638Y-115567299D01*
X114827102Y-115570998D01*
X114823212Y-115573597D01*
X114756538Y-115594480D01*
X114754315Y-115594500D01*
X114620446Y-115594500D01*
X114600464Y-115595154D01*
X114567966Y-115597284D01*
X114554714Y-115598589D01*
X114548088Y-115599242D01*
X114541788Y-115600071D01*
X114519826Y-115602961D01*
X114517352Y-115603286D01*
X114517349Y-115603287D01*
X114512401Y-115603938D01*
X114496218Y-115604999D01*
X113788178Y-115604999D01*
X113751358Y-115607226D01*
X113691772Y-115614462D01*
X113655479Y-115621113D01*
X113593473Y-115636397D01*
X113563798Y-115640000D01*
X113516202Y-115640000D01*
X113486527Y-115636397D01*
X113424519Y-115621113D01*
X113424521Y-115621113D01*
X113388227Y-115614462D01*
X113328641Y-115607226D01*
X113291821Y-115604999D01*
X113291815Y-115604999D01*
X112848996Y-115604999D01*
X112815883Y-115608260D01*
X112789389Y-115610870D01*
X112789383Y-115610871D01*
X112694126Y-115629820D01*
X112689539Y-115630787D01*
X112687209Y-115631279D01*
X112687207Y-115631280D01*
X112583987Y-115675437D01*
X112503152Y-115729449D01*
X112497382Y-115733401D01*
X112497378Y-115733404D01*
X112418913Y-115813705D01*
X112364921Y-115894512D01*
X112361090Y-115900393D01*
X112361087Y-115900399D01*
X112319324Y-116004609D01*
X112319322Y-116004615D01*
X112300369Y-116099899D01*
X112300369Y-116099901D01*
X112294202Y-116162527D01*
X112293346Y-116162442D01*
X112283143Y-116203553D01*
X112261041Y-116250951D01*
X112261039Y-116250959D01*
X112254501Y-116300620D01*
X112254500Y-116300637D01*
X112254500Y-116879370D01*
X112261039Y-116929041D01*
X112261042Y-116929051D01*
X112296926Y-117006005D01*
X112306161Y-117034217D01*
X112319325Y-117100396D01*
X112320779Y-117107288D01*
X112320780Y-117107291D01*
X112352099Y-117180500D01*
X112364939Y-117210512D01*
X112364938Y-117210512D01*
X112367827Y-117214835D01*
X112388704Y-117281512D01*
X112370219Y-117348892D01*
X112352406Y-117371405D01*
X112311877Y-117411934D01*
X112261039Y-117520956D01*
X112254501Y-117570620D01*
X112254500Y-117570637D01*
X112254500Y-118149370D01*
X112261039Y-118199041D01*
X112261041Y-118199048D01*
X112282882Y-118245885D01*
X112294500Y-118298290D01*
X112294500Y-119496857D01*
X112300369Y-119556457D01*
X112300369Y-119556459D01*
X112319322Y-119651740D01*
X112319911Y-119654534D01*
X112320780Y-119658651D01*
X112322938Y-119663696D01*
X112364939Y-119761872D01*
X112364939Y-119761874D01*
X112418918Y-119842659D01*
X112456913Y-119888956D01*
X113211043Y-120643086D01*
X113211048Y-120643090D01*
X113211049Y-120643091D01*
X113230650Y-120659177D01*
X113252485Y-120677097D01*
X113257345Y-120681085D01*
X113338127Y-120735061D01*
X113344038Y-120738912D01*
X113448252Y-120780676D01*
X113448254Y-120780676D01*
X113448256Y-120780677D01*
X113496540Y-120790281D01*
X113543540Y-120799630D01*
X113603140Y-120805500D01*
X114107332Y-120805500D01*
X114174371Y-120825185D01*
X114182062Y-120830548D01*
X114183955Y-120831977D01*
X114183959Y-120831981D01*
X114357363Y-120939348D01*
X114540701Y-121010373D01*
X114596102Y-121052946D01*
X114619693Y-121118713D01*
X114603982Y-121186793D01*
X114553958Y-121235572D01*
X114495907Y-121250000D01*
X104274000Y-121250000D01*
X104206961Y-121230315D01*
X104161206Y-121177511D01*
X104150000Y-121126000D01*
X104150000Y-117443439D01*
X104169685Y-117376400D01*
X104222489Y-117330645D01*
X104291647Y-117320701D01*
X104355203Y-117349726D01*
X104384484Y-117387143D01*
X104413169Y-117443439D01*
X104437715Y-117491614D01*
X104558028Y-117657213D01*
X104702786Y-117801971D01*
X104857749Y-117914556D01*
X104868390Y-117922287D01*
X104984607Y-117981503D01*
X105050776Y-118015218D01*
X105050778Y-118015218D01*
X105050781Y-118015220D01*
X105155137Y-118049127D01*
X105245465Y-118078477D01*
X105346557Y-118094488D01*
X105447648Y-118110500D01*
X105447649Y-118110500D01*
X105852351Y-118110500D01*
X105852352Y-118110500D01*
X106054534Y-118078477D01*
X106097221Y-118064606D01*
X106167059Y-118062612D01*
X106226892Y-118098692D01*
X106257721Y-118161392D01*
X106258633Y-118167591D01*
X106264859Y-118218868D01*
X106264860Y-118218874D01*
X106325182Y-118377931D01*
X106370864Y-118444112D01*
X106421817Y-118517929D01*
X106513328Y-118599000D01*
X106549150Y-118630736D01*
X106699773Y-118709789D01*
X106699775Y-118709790D01*
X106864944Y-118750500D01*
X107035056Y-118750500D01*
X107200225Y-118709790D01*
X107279692Y-118668081D01*
X107350849Y-118630736D01*
X107350850Y-118630734D01*
X107350852Y-118630734D01*
X107478183Y-118517929D01*
X107489230Y-118501923D01*
X107543512Y-118457934D01*
X107607466Y-118449425D01*
X107615631Y-118450500D01*
X109584368Y-118450499D01*
X109584370Y-118450499D01*
X109600927Y-118448319D01*
X109634045Y-118443960D01*
X109743065Y-118393123D01*
X109828123Y-118308065D01*
X109878960Y-118199045D01*
X109885500Y-118149369D01*
X109885499Y-117570632D01*
X109885497Y-117570620D01*
X109878960Y-117520958D01*
X109878960Y-117520955D01*
X109828123Y-117411935D01*
X109743065Y-117326877D01*
X109743062Y-117326875D01*
X109742634Y-117326576D01*
X109742116Y-117325928D01*
X109735394Y-117319206D01*
X109736143Y-117318456D01*
X109699008Y-117272000D01*
X109691814Y-117202502D01*
X109723336Y-117140146D01*
X109742634Y-117123424D01*
X109743058Y-117123126D01*
X109743065Y-117123123D01*
X109828123Y-117038065D01*
X109878960Y-116929045D01*
X109885500Y-116879369D01*
X109885499Y-116300632D01*
X109885497Y-116300620D01*
X109882229Y-116275793D01*
X109878960Y-116250955D01*
X109828123Y-116141935D01*
X109743065Y-116056877D01*
X109743062Y-116056875D01*
X109742634Y-116056576D01*
X109742116Y-116055928D01*
X109735394Y-116049206D01*
X109736143Y-116048456D01*
X109699008Y-116002000D01*
X109691814Y-115932502D01*
X109723336Y-115870146D01*
X109742634Y-115853424D01*
X109743058Y-115853126D01*
X109743065Y-115853123D01*
X109828123Y-115768065D01*
X109878960Y-115659045D01*
X109885500Y-115609369D01*
X109885499Y-115030632D01*
X109878960Y-114980955D01*
X109828123Y-114871935D01*
X109743065Y-114786877D01*
X109634045Y-114736040D01*
X109634043Y-114736039D01*
X109584379Y-114729501D01*
X109584374Y-114729500D01*
X109584369Y-114729500D01*
X109584362Y-114729500D01*
X107615629Y-114729500D01*
X107565958Y-114736039D01*
X107565951Y-114736041D01*
X107456934Y-114786877D01*
X107413031Y-114830781D01*
X107351708Y-114864266D01*
X107325350Y-114867100D01*
X107094088Y-114867100D01*
X107027049Y-114847415D01*
X106981294Y-114794611D01*
X106971350Y-114725453D01*
X106976157Y-114704781D01*
X107006047Y-114612791D01*
X107018477Y-114574534D01*
X107050500Y-114372352D01*
X107050500Y-114167648D01*
X107018477Y-113965466D01*
X106955220Y-113770781D01*
X106955218Y-113770778D01*
X106955218Y-113770776D01*
X106915515Y-113692855D01*
X106862287Y-113588390D01*
X106798201Y-113500182D01*
X106741971Y-113422786D01*
X106597213Y-113278028D01*
X106431614Y-113157715D01*
X106425006Y-113154348D01*
X106338917Y-113110483D01*
X106288123Y-113062511D01*
X106271328Y-112994690D01*
X106293865Y-112928555D01*
X106338917Y-112889516D01*
X106431610Y-112842287D01*
X106452770Y-112826913D01*
X106597213Y-112721971D01*
X106597215Y-112721968D01*
X106597219Y-112721966D01*
X106741966Y-112577219D01*
X106741968Y-112577215D01*
X106741971Y-112577213D01*
X106794732Y-112504590D01*
X106862287Y-112411610D01*
X106955220Y-112229219D01*
X107018477Y-112034534D01*
X107050500Y-111832352D01*
X107050500Y-111627648D01*
X107018477Y-111425466D01*
X106981599Y-111311970D01*
X106979605Y-111242131D01*
X107015685Y-111182298D01*
X107078385Y-111151469D01*
X107084589Y-111150557D01*
X107085052Y-111150500D01*
X107085056Y-111150500D01*
X107250225Y-111109790D01*
X107367212Y-111048390D01*
X107400849Y-111030736D01*
X107400850Y-111030734D01*
X107400852Y-111030734D01*
X107528183Y-110917929D01*
X107624818Y-110777930D01*
X107624819Y-110777926D01*
X107625371Y-110776876D01*
X107625980Y-110776246D01*
X107629079Y-110771757D01*
X107629825Y-110772272D01*
X107673955Y-110726662D01*
X107735169Y-110710499D01*
X109584370Y-110710499D01*
X109600927Y-110708319D01*
X109634045Y-110703960D01*
X109743065Y-110653123D01*
X109828123Y-110568065D01*
X109878960Y-110459045D01*
X109885500Y-110409369D01*
X109885499Y-109830632D01*
X109885497Y-109830620D01*
X109878960Y-109780958D01*
X109878960Y-109780955D01*
X109828123Y-109671935D01*
X109743065Y-109586877D01*
X109743062Y-109586875D01*
X109742634Y-109586576D01*
X109742116Y-109585928D01*
X109735394Y-109579206D01*
X109736143Y-109578456D01*
X109699008Y-109532000D01*
X109691814Y-109462502D01*
X109723336Y-109400146D01*
X109742634Y-109383424D01*
X109743058Y-109383126D01*
X109743065Y-109383123D01*
X109828123Y-109298065D01*
X109878960Y-109189045D01*
X109885500Y-109139369D01*
X109885499Y-108560632D01*
X109878960Y-108510955D01*
X109828123Y-108401935D01*
X109743065Y-108316877D01*
X109743062Y-108316875D01*
X109742634Y-108316576D01*
X109742116Y-108315928D01*
X109735394Y-108309206D01*
X109736143Y-108308456D01*
X109699008Y-108262000D01*
X109691814Y-108192502D01*
X109723336Y-108130146D01*
X109742634Y-108113424D01*
X109743058Y-108113126D01*
X109743065Y-108113123D01*
X109828123Y-108028065D01*
X109878960Y-107919045D01*
X109885500Y-107869369D01*
X109885499Y-107290632D01*
X109878960Y-107240955D01*
X109828123Y-107131935D01*
X109743065Y-107046877D01*
X109634045Y-106996040D01*
X109634043Y-106996039D01*
X109584379Y-106989501D01*
X109584374Y-106989500D01*
X109584369Y-106989500D01*
X109584362Y-106989500D01*
X107615629Y-106989500D01*
X107565958Y-106996039D01*
X107565951Y-106996041D01*
X107456934Y-107046877D01*
X107413031Y-107090781D01*
X107351708Y-107124266D01*
X107325350Y-107127100D01*
X107133079Y-107127100D01*
X107066040Y-107107415D01*
X107020285Y-107054611D01*
X107010341Y-106985453D01*
X107015148Y-106964783D01*
X107018475Y-106954542D01*
X107018475Y-106954538D01*
X107018477Y-106954534D01*
X107050500Y-106752352D01*
X107050500Y-106547648D01*
X107018477Y-106345466D01*
X106955220Y-106150781D01*
X106955218Y-106150778D01*
X106955218Y-106150776D01*
X106915515Y-106072855D01*
X106862287Y-105968390D01*
X106832020Y-105926731D01*
X106741971Y-105802786D01*
X106597213Y-105658028D01*
X106431613Y-105537715D01*
X106431612Y-105537714D01*
X106431610Y-105537713D01*
X106374653Y-105508691D01*
X106249223Y-105444781D01*
X106054534Y-105381522D01*
X105879995Y-105353878D01*
X105852352Y-105349500D01*
X105447648Y-105349500D01*
X105428852Y-105352477D01*
X105245465Y-105381522D01*
X105050776Y-105444781D01*
X104868386Y-105537715D01*
X104702786Y-105658028D01*
X104558028Y-105802786D01*
X104437715Y-105968386D01*
X104384485Y-106072855D01*
X104336510Y-106123651D01*
X104268689Y-106140446D01*
X104202554Y-106117908D01*
X104159103Y-106063193D01*
X104150000Y-106016560D01*
X104150000Y-102374000D01*
X104169685Y-102306961D01*
X104222489Y-102261206D01*
X104274000Y-102250000D01*
X120326000Y-102250000D01*
X120393039Y-102269685D01*
G37*
%TD.AperFunction*%
%TD*%
%TA.AperFunction,Conductor*%
%TO.N,/OUT_A1*%
G36*
X120175243Y-115727053D02*
G01*
X120256638Y-115780099D01*
X120311466Y-115860089D01*
X120329866Y-115903021D01*
X120349981Y-115998070D01*
X120350000Y-116001109D01*
X120350000Y-117839189D01*
X120331046Y-117934477D01*
X120277070Y-118015259D01*
X120196288Y-118069235D01*
X120101000Y-118088189D01*
X120017094Y-118072003D01*
X120016917Y-118072600D01*
X120010868Y-118070803D01*
X120008385Y-118070324D01*
X120005889Y-118069324D01*
X119910595Y-118050369D01*
X119851003Y-118044500D01*
X119851000Y-118044500D01*
X115354500Y-118044500D01*
X115259212Y-118025546D01*
X115178430Y-117971570D01*
X115124454Y-117890788D01*
X115105500Y-117795500D01*
X115105500Y-117749003D01*
X115105500Y-117749000D01*
X115099630Y-117689400D01*
X115080676Y-117594112D01*
X115079220Y-117587209D01*
X115070068Y-117565815D01*
X115050017Y-117470751D01*
X115050000Y-117467881D01*
X115050000Y-117450001D01*
X115050000Y-117450000D01*
X114850000Y-117250000D01*
X114849999Y-117250000D01*
X114830471Y-117250000D01*
X114737846Y-117232131D01*
X114705886Y-117219323D01*
X114610595Y-117200369D01*
X114551003Y-117194500D01*
X114551000Y-117194500D01*
X112849000Y-117194500D01*
X112753712Y-117175546D01*
X112672930Y-117121570D01*
X112618954Y-117040788D01*
X112600000Y-116945500D01*
X112600000Y-116159499D01*
X112618954Y-116064211D01*
X112672930Y-115983429D01*
X112753712Y-115929453D01*
X112848996Y-115910499D01*
X113291815Y-115910499D01*
X113351406Y-115917735D01*
X113464051Y-115945500D01*
X113464055Y-115945500D01*
X113615945Y-115945500D01*
X113615949Y-115945500D01*
X113728594Y-115917735D01*
X113788185Y-115910499D01*
X114524366Y-115910499D01*
X114524368Y-115910499D01*
X114557222Y-115906174D01*
X114587950Y-115902130D01*
X114620446Y-115900000D01*
X114899999Y-115900000D01*
X114900000Y-115900000D01*
X114931005Y-115868994D01*
X115011783Y-115815020D01*
X115097498Y-115796250D01*
X116202052Y-115753767D01*
X116208624Y-115753602D01*
X120079746Y-115709193D01*
X120175243Y-115727053D01*
G37*
%TD.AperFunction*%
%TD*%
%TA.AperFunction,Conductor*%
%TO.N,/VM*%
G36*
X114646288Y-117518954D02*
G01*
X114727070Y-117572930D01*
X114781046Y-117653712D01*
X114800000Y-117749000D01*
X114800000Y-118200000D01*
X114950000Y-118350000D01*
X119851000Y-118350000D01*
X119946288Y-118368954D01*
X120027070Y-118422930D01*
X120081046Y-118503712D01*
X120100000Y-118599000D01*
X120100000Y-120251000D01*
X120081046Y-120346288D01*
X120027070Y-120427070D01*
X119946288Y-120481046D01*
X119851000Y-120500000D01*
X113603140Y-120500000D01*
X113507852Y-120481046D01*
X113427070Y-120427070D01*
X112672930Y-119672930D01*
X112618954Y-119592148D01*
X112600000Y-119496860D01*
X112600000Y-117749000D01*
X112618954Y-117653712D01*
X112672930Y-117572930D01*
X112753712Y-117518954D01*
X112849000Y-117500000D01*
X114551000Y-117500000D01*
X114646288Y-117518954D01*
G37*
%TD.AperFunction*%
%TD*%
%TA.AperFunction,Conductor*%
%TO.N,/OUT_A2*%
G36*
X120246288Y-113218954D02*
G01*
X120327070Y-113272930D01*
X120381046Y-113353712D01*
X120400000Y-113449000D01*
X120400000Y-115153839D01*
X120381046Y-115249127D01*
X120327070Y-115329909D01*
X120246288Y-115383885D01*
X120153856Y-115402823D01*
X115416481Y-115457170D01*
X115320982Y-115439310D01*
X115239587Y-115386264D01*
X115221810Y-115366957D01*
X115157185Y-115288882D01*
X115111027Y-115203392D01*
X115100000Y-115130111D01*
X115100000Y-114800001D01*
X115100000Y-114800000D01*
X115000000Y-114700000D01*
X114999999Y-114700000D01*
X113668498Y-114700000D01*
X113631006Y-114695447D01*
X113630901Y-114696316D01*
X113615952Y-114694500D01*
X113615949Y-114694500D01*
X113464051Y-114694500D01*
X113464049Y-114694500D01*
X113449102Y-114696315D01*
X113448996Y-114695447D01*
X113411504Y-114700000D01*
X112849000Y-114700000D01*
X112753712Y-114681046D01*
X112672930Y-114627070D01*
X112618954Y-114546288D01*
X112600000Y-114451000D01*
X112600000Y-113500180D01*
X112618954Y-113404892D01*
X112672930Y-113324110D01*
X112753712Y-113270134D01*
X112849000Y-113251180D01*
X112849943Y-113251182D01*
X113635977Y-113254900D01*
X113647000Y-113255839D01*
X113647032Y-113255199D01*
X113653133Y-113255499D01*
X113653140Y-113255500D01*
X113653147Y-113255500D01*
X113762079Y-113255500D01*
X113763257Y-113255503D01*
X117884650Y-113275000D01*
X117884650Y-113274999D01*
X117884651Y-113275000D01*
X117942189Y-113266626D01*
X118000804Y-113258095D01*
X118036663Y-113255500D01*
X119850997Y-113255500D01*
X119851000Y-113255500D01*
X119910600Y-113249630D01*
X120005888Y-113230676D01*
X120012791Y-113229220D01*
X120034182Y-113220069D01*
X120129245Y-113200017D01*
X120132118Y-113200000D01*
X120151000Y-113200000D01*
X120246288Y-113218954D01*
G37*
%TD.AperFunction*%
%TD*%
%TA.AperFunction,Conductor*%
%TO.N,/OUT_B1*%
G36*
X115137601Y-108014366D02*
G01*
X115177401Y-108029953D01*
X115177404Y-108029953D01*
X115177405Y-108029954D01*
X115198085Y-108034289D01*
X115272489Y-108049888D01*
X115332025Y-108056372D01*
X120003567Y-108104522D01*
X120098654Y-108124457D01*
X120178875Y-108179263D01*
X120232016Y-108260597D01*
X120250000Y-108353509D01*
X120250000Y-110146860D01*
X120231046Y-110242148D01*
X120177070Y-110322930D01*
X120162379Y-110337621D01*
X120081597Y-110391597D01*
X119986309Y-110410551D01*
X119937734Y-110405767D01*
X119910597Y-110400369D01*
X119851003Y-110394500D01*
X119851000Y-110394500D01*
X115354500Y-110394500D01*
X115259212Y-110375546D01*
X115178430Y-110321570D01*
X115124454Y-110240788D01*
X115105500Y-110145500D01*
X115105500Y-110049003D01*
X115105500Y-110049000D01*
X115099630Y-109989400D01*
X115080676Y-109894112D01*
X115079220Y-109887209D01*
X115035061Y-109783987D01*
X114981085Y-109703205D01*
X114977095Y-109697380D01*
X114977092Y-109697377D01*
X114972876Y-109691222D01*
X114951172Y-109651173D01*
X114950000Y-109650001D01*
X114950000Y-109650000D01*
X114750000Y-109450000D01*
X114749999Y-109450000D01*
X112762000Y-109450000D01*
X112666712Y-109431046D01*
X112585930Y-109377070D01*
X112531954Y-109296288D01*
X112513000Y-109201000D01*
X112512999Y-108499000D01*
X112531953Y-108403712D01*
X112585929Y-108322931D01*
X112666710Y-108268954D01*
X112761999Y-108250000D01*
X114649999Y-108250000D01*
X114650000Y-108250000D01*
X114829048Y-108070951D01*
X114909827Y-108016978D01*
X115000322Y-107998070D01*
X115042021Y-107997268D01*
X115137601Y-108014366D01*
G37*
%TD.AperFunction*%
%TD*%
M02*
