M48
; DRILL file {KiCad 8.0.4} date 2024-09-16T17:08:20-0300
; FORMAT={-:-/ absolute / metric / decimal}
; #@! TF.CreationDate,2024-09-16T17:08:20-03:00
; #@! TF.GenerationSoftware,Kicad,Pcbnew,8.0.4
; #@! TF.FileFunction,Plated,1,2,PTH
FMAT,2
METRIC
; #@! TA.AperFunction,Plated,PTH,ViaDrill
T1C0.350
; #@! TA.AperFunction,Plated,PTH,ViaDrill
T2C0.400
; #@! TA.AperFunction,Plated,PTH,ComponentDrill
T3C0.800
; #@! TA.AperFunction,Plated,PTH,ComponentDrill
T4C1.000
; #@! TA.AperFunction,Plated,PTH,ComponentDrill
T5C1.100
%
G90
G05
T1
X107.75Y-102.9
X107.75Y-103.9
X107.75Y-104.9
X107.8Y-118.95
X107.8Y-119.85
X107.8Y-120.75
X108.15Y-111.25
X108.15Y-112.25
X108.15Y-113.25
X108.6Y-106.31
X108.6Y-114.05
X109.25Y-102.9
X109.25Y-103.9
X109.25Y-104.9
X109.35Y-111.25
X109.35Y-112.25
X109.35Y-113.25
X110.26Y-106.3
X110.26Y-107.405
X110.26Y-108.215
X110.26Y-109.025
X110.26Y-110.15
X110.26Y-114.05
X110.26Y-115.145
X110.26Y-115.955
X110.26Y-116.765
X110.26Y-117.85
X110.55Y-111.25
X110.55Y-112.25
X110.55Y-113.25
X110.75Y-102.9
X110.75Y-103.9
X110.75Y-104.9
X111.07Y-106.3
X111.07Y-107.405
X111.07Y-108.215
X111.07Y-109.025
X111.07Y-110.15
X111.07Y-114.05
X111.07Y-115.145
X111.07Y-115.955
X111.07Y-116.765
X111.07Y-117.85
X111.7Y-118.95
X111.7Y-119.85
X111.7Y-120.75
X111.75Y-111.25
X111.75Y-112.25
X111.75Y-113.25
X111.88Y-106.3
X111.88Y-107.405
X111.88Y-108.215
X111.88Y-109.025
X111.88Y-110.15
X111.88Y-114.05
X111.88Y-115.145
X111.88Y-115.955
X111.88Y-116.765
X111.88Y-117.85
X112.25Y-102.9
X112.25Y-103.9
X112.25Y-104.9
X113.2Y-111.25
X113.3Y-118.9
X113.54Y-106.31
X113.54Y-107.58
X113.54Y-108.85
X113.54Y-110.12
X113.54Y-114.06
X113.54Y-115.32
X113.54Y-116.59
X113.54Y-117.86
X113.75Y-102.9
X113.75Y-103.9
X113.75Y-104.9
X114.5Y-111.25
X114.5Y-112.45
X115.25Y-102.9
X115.25Y-103.9
X115.25Y-104.9
X115.7Y-106.1
X115.75Y-113.75
X115.8Y-109.85
X115.8Y-111.25
X115.8Y-112.45
X115.85Y-117.5
X115.9Y-118.9
X116.75Y-102.9
X116.75Y-103.9
X116.75Y-104.9
X116.95Y-106.1
X117.0Y-113.75
X117.05Y-109.85
X117.1Y-111.25
X117.1Y-112.45
X117.1Y-117.5
X117.2Y-118.9
X117.2Y-120.1
T2
X106.95Y-118.05
X107.0Y-110.45
T3
X109.85Y-119.95
X114.85Y-119.95
T4
X105.65Y-104.11
X119.04Y-104.11
T5
X105.65Y-106.65
X105.65Y-109.19
X105.65Y-111.73
X105.65Y-114.27
X105.65Y-116.81
X105.65Y-119.35
X119.04Y-106.65
X119.04Y-109.19
X119.04Y-111.73
X119.04Y-114.27
X119.04Y-116.81
X119.04Y-119.35
M30
