%TF.GenerationSoftware,KiCad,Pcbnew,8.0.4*%
%TF.CreationDate,2024-09-08T17:57:52-03:00*%
%TF.ProjectId,PCBWay-Module_TB67H450FNG,50434257-6179-42d4-9d6f-64756c655f54,rev?*%
%TF.SameCoordinates,Original*%
%TF.FileFunction,Legend,Top*%
%TF.FilePolarity,Positive*%
%FSLAX46Y46*%
G04 Gerber Fmt 4.6, Leading zero omitted, Abs format (unit mm)*
G04 Created by KiCad (PCBNEW 8.0.4) date 2024-09-08 17:57:52*
%MOMM*%
%LPD*%
G01*
G04 APERTURE LIST*
%ADD10C,0.150000*%
%ADD11C,0.127000*%
%ADD12C,0.200000*%
G04 APERTURE END LIST*
D10*
X110351345Y-111596467D02*
X110351345Y-110809065D01*
X111176242Y-111521476D02*
X111138747Y-111558972D01*
X111138747Y-111558972D02*
X111026261Y-111596467D01*
X111026261Y-111596467D02*
X110951270Y-111596467D01*
X110951270Y-111596467D02*
X110838784Y-111558972D01*
X110838784Y-111558972D02*
X110763794Y-111483981D01*
X110763794Y-111483981D02*
X110726298Y-111408990D01*
X110726298Y-111408990D02*
X110688803Y-111259009D01*
X110688803Y-111259009D02*
X110688803Y-111146523D01*
X110688803Y-111146523D02*
X110726298Y-110996542D01*
X110726298Y-110996542D02*
X110763794Y-110921551D01*
X110763794Y-110921551D02*
X110838784Y-110846560D01*
X110838784Y-110846560D02*
X110951270Y-110809065D01*
X110951270Y-110809065D02*
X111026261Y-110809065D01*
X111026261Y-110809065D02*
X111138747Y-110846560D01*
X111138747Y-110846560D02*
X111176242Y-110884056D01*
X111476205Y-110884056D02*
X111513700Y-110846560D01*
X111513700Y-110846560D02*
X111588691Y-110809065D01*
X111588691Y-110809065D02*
X111776168Y-110809065D01*
X111776168Y-110809065D02*
X111851158Y-110846560D01*
X111851158Y-110846560D02*
X111888654Y-110884056D01*
X111888654Y-110884056D02*
X111926149Y-110959046D01*
X111926149Y-110959046D02*
X111926149Y-111034037D01*
X111926149Y-111034037D02*
X111888654Y-111146523D01*
X111888654Y-111146523D02*
X111438710Y-111596467D01*
X111438710Y-111596467D02*
X111926149Y-111596467D01*
X111021345Y-109306467D02*
X111021345Y-108519065D01*
X111846242Y-109231476D02*
X111808747Y-109268972D01*
X111808747Y-109268972D02*
X111696261Y-109306467D01*
X111696261Y-109306467D02*
X111621270Y-109306467D01*
X111621270Y-109306467D02*
X111508784Y-109268972D01*
X111508784Y-109268972D02*
X111433794Y-109193981D01*
X111433794Y-109193981D02*
X111396298Y-109118990D01*
X111396298Y-109118990D02*
X111358803Y-108969009D01*
X111358803Y-108969009D02*
X111358803Y-108856523D01*
X111358803Y-108856523D02*
X111396298Y-108706542D01*
X111396298Y-108706542D02*
X111433794Y-108631551D01*
X111433794Y-108631551D02*
X111508784Y-108556560D01*
X111508784Y-108556560D02*
X111621270Y-108519065D01*
X111621270Y-108519065D02*
X111696261Y-108519065D01*
X111696261Y-108519065D02*
X111808747Y-108556560D01*
X111808747Y-108556560D02*
X111846242Y-108594056D01*
X112596149Y-109306467D02*
X112146205Y-109306467D01*
X112371177Y-109306467D02*
X112371177Y-108519065D01*
X112371177Y-108519065D02*
X112296186Y-108631551D01*
X112296186Y-108631551D02*
X112221196Y-108706542D01*
X112221196Y-108706542D02*
X112146205Y-108744037D01*
D11*
%TO.C,IC2*%
X109120000Y-105690000D02*
X113020000Y-105690000D01*
X109120000Y-110740000D02*
X113020000Y-110740000D01*
D12*
X107070000Y-106310000D02*
G75*
G02*
X106870000Y-106310000I-100000J0D01*
G01*
X106870000Y-106310000D02*
G75*
G02*
X107070000Y-106310000I100000J0D01*
G01*
D11*
%TO.C,IC1*%
X109120000Y-113430000D02*
X113020000Y-113430000D01*
X109120000Y-118480000D02*
X113020000Y-118480000D01*
D12*
X107070000Y-114050000D02*
G75*
G02*
X106870000Y-114050000I-100000J0D01*
G01*
X106870000Y-114050000D02*
G75*
G02*
X107070000Y-114050000I100000J0D01*
G01*
%TD*%
M02*
