%TF.GenerationSoftware,KiCad,Pcbnew,8.0.4*%
%TF.CreationDate,2024-09-08T17:57:52-03:00*%
%TF.ProjectId,PCBWay-Module_TB67H450FNG,50434257-6179-42d4-9d6f-64756c655f54,rev?*%
%TF.SameCoordinates,Original*%
%TF.FileFunction,Legend,Bot*%
%TF.FilePolarity,Positive*%
%FSLAX46Y46*%
G04 Gerber Fmt 4.6, Leading zero omitted, Abs format (unit mm)*
G04 Created by KiCad (PCBNEW 8.0.4) date 2024-09-08 17:57:52*
%MOMM*%
%LPD*%
G01*
G04 APERTURE LIST*
%ADD10C,0.150000*%
%ADD11C,0.120000*%
G04 APERTURE END LIST*
D10*
X119373333Y-101234819D02*
X119373333Y-101949104D01*
X119373333Y-101949104D02*
X119420952Y-102091961D01*
X119420952Y-102091961D02*
X119516190Y-102187200D01*
X119516190Y-102187200D02*
X119659047Y-102234819D01*
X119659047Y-102234819D02*
X119754285Y-102234819D01*
X118944761Y-101330057D02*
X118897142Y-101282438D01*
X118897142Y-101282438D02*
X118801904Y-101234819D01*
X118801904Y-101234819D02*
X118563809Y-101234819D01*
X118563809Y-101234819D02*
X118468571Y-101282438D01*
X118468571Y-101282438D02*
X118420952Y-101330057D01*
X118420952Y-101330057D02*
X118373333Y-101425295D01*
X118373333Y-101425295D02*
X118373333Y-101520533D01*
X118373333Y-101520533D02*
X118420952Y-101663390D01*
X118420952Y-101663390D02*
X118992380Y-102234819D01*
X118992380Y-102234819D02*
X118373333Y-102234819D01*
X105983333Y-101234819D02*
X105983333Y-101949104D01*
X105983333Y-101949104D02*
X106030952Y-102091961D01*
X106030952Y-102091961D02*
X106126190Y-102187200D01*
X106126190Y-102187200D02*
X106269047Y-102234819D01*
X106269047Y-102234819D02*
X106364285Y-102234819D01*
X104983333Y-102234819D02*
X105554761Y-102234819D01*
X105269047Y-102234819D02*
X105269047Y-101234819D01*
X105269047Y-101234819D02*
X105364285Y-101377676D01*
X105364285Y-101377676D02*
X105459523Y-101472914D01*
X105459523Y-101472914D02*
X105554761Y-101520533D01*
D11*
%TO.C,J2*%
X117710000Y-105380000D02*
X120370000Y-105380000D01*
X117710000Y-120680000D02*
X117710000Y-105380000D01*
X117710000Y-120680000D02*
X120370000Y-120680000D01*
X119040000Y-102780000D02*
X120370000Y-102780000D01*
X120370000Y-102780000D02*
X120370000Y-104110000D01*
X120370000Y-120680000D02*
X120370000Y-105380000D01*
%TO.C,J1*%
X104320000Y-105380000D02*
X106980000Y-105380000D01*
X104320000Y-120680000D02*
X104320000Y-105380000D01*
X104320000Y-120680000D02*
X106980000Y-120680000D01*
X105650000Y-102780000D02*
X106980000Y-102780000D01*
X106980000Y-102780000D02*
X106980000Y-104110000D01*
X106980000Y-120680000D02*
X106980000Y-105380000D01*
%TD*%
M02*
