%TF.GenerationSoftware,KiCad,Pcbnew,8.0.4*%
%TF.CreationDate,2024-09-08T17:57:52-03:00*%
%TF.ProjectId,PCBWay-Module_TB67H450FNG,50434257-6179-42d4-9d6f-64756c655f54,rev?*%
%TF.SameCoordinates,Original*%
%TF.FileFunction,Copper,L2,Bot*%
%TF.FilePolarity,Positive*%
%FSLAX46Y46*%
G04 Gerber Fmt 4.6, Leading zero omitted, Abs format (unit mm)*
G04 Created by KiCad (PCBNEW 8.0.4) date 2024-09-08 17:57:52*
%MOMM*%
%LPD*%
G01*
G04 APERTURE LIST*
%TA.AperFunction,Conductor*%
%ADD10C,0.150000*%
%TD*%
%TA.AperFunction,ComponentPad*%
%ADD11R,2.200000X2.000000*%
%TD*%
%TA.AperFunction,ComponentPad*%
%ADD12O,2.200000X2.000000*%
%TD*%
%TA.AperFunction,ViaPad*%
%ADD13C,0.800000*%
%TD*%
%TA.AperFunction,Conductor*%
%ADD14C,0.304800*%
%TD*%
G04 APERTURE END LIST*
D10*
%TO.N,/OUT_A1*%
X118407475Y-118075924D02*
X117758975Y-118549424D01*
X117758975Y-117599424D01*
X118407475Y-118075924D01*
%TA.AperFunction,Conductor*%
G36*
X118407475Y-118075924D02*
G01*
X117758975Y-118549424D01*
X117758975Y-117599424D01*
X118407475Y-118075924D01*
G37*
%TD.AperFunction*%
%TD*%
D11*
%TO.P,J2,1,Pin_1*%
%TO.N,GND*%
X119040000Y-104110000D03*
D12*
%TO.P,J2,2,Pin_2*%
%TO.N,/OUT_B2*%
X119040000Y-106650000D03*
%TO.P,J2,3,Pin_3*%
%TO.N,/OUT_B1*%
X119040000Y-109190000D03*
%TO.P,J2,4,Pin_4*%
%TO.N,/VM*%
X119040000Y-111730000D03*
%TO.P,J2,5,Pin_5*%
%TO.N,/OUT_A2*%
X119040000Y-114270000D03*
%TO.P,J2,6,Pin_6*%
%TO.N,/OUT_A1*%
X119040000Y-116810000D03*
%TO.P,J2,7,Pin_7*%
%TO.N,/VM*%
X119040000Y-119350000D03*
%TD*%
D11*
%TO.P,J1,1,Pin_1*%
%TO.N,GND*%
X105650000Y-104110000D03*
D12*
%TO.P,J1,2,Pin_2*%
%TO.N,/IN_B2*%
X105650000Y-106650000D03*
%TO.P,J1,3,Pin_3*%
%TO.N,/IN_B1*%
X105650000Y-109190000D03*
%TO.P,J1,4,Pin_4*%
%TO.N,/VREF*%
X105650000Y-111730000D03*
%TO.P,J1,5,Pin_5*%
%TO.N,/IN_A2*%
X105650000Y-114270000D03*
%TO.P,J1,6,Pin_6*%
%TO.N,/IN_A1*%
X105650000Y-116810000D03*
%TO.P,J1,7,Pin_7*%
%TO.N,GND*%
X105650000Y-119350000D03*
%TD*%
D13*
%TO.N,/OUT_A2*%
X117275000Y-114000000D03*
X115162500Y-114000000D03*
X116218750Y-114000000D03*
X113050000Y-114000000D03*
X114106250Y-114000000D03*
X117093750Y-114950000D03*
X116037500Y-114950000D03*
%TO.N,/OUT_A1*%
X116037500Y-117525000D03*
X116218750Y-116575000D03*
X114106250Y-116575000D03*
X117275000Y-116575000D03*
X117093750Y-117525000D03*
X115162500Y-116575000D03*
X113050000Y-116575000D03*
%TO.N,/OUT_B1*%
X112918531Y-108819049D03*
X117143531Y-108819049D03*
X116087281Y-108819049D03*
X113974781Y-108819049D03*
X115906031Y-109769049D03*
X116962281Y-109769049D03*
X115031031Y-108819049D03*
%TO.N,/OUT_B2*%
X113974781Y-106244049D03*
X116087281Y-106244049D03*
X116962281Y-107194049D03*
X112918531Y-106244049D03*
X115031031Y-106244049D03*
X115906031Y-107194049D03*
X117143531Y-106244049D03*
%TO.N,GND*%
X111450000Y-104900000D03*
X111800000Y-116650000D03*
X111550000Y-118000000D03*
X110350000Y-116650000D03*
X110900000Y-119100000D03*
X110750000Y-112050000D03*
X115050000Y-103100000D03*
X111050000Y-108250000D03*
X110000000Y-111300000D03*
X111600000Y-111300000D03*
X111500000Y-106300000D03*
X111800000Y-108900000D03*
X114100000Y-104000000D03*
X107650000Y-120600000D03*
X110350000Y-108900000D03*
X110450000Y-118000000D03*
X113250000Y-104900000D03*
X110900000Y-120600000D03*
X110500000Y-104000000D03*
X115050000Y-104900000D03*
X110350000Y-115250000D03*
X108400000Y-119850000D03*
X116850000Y-104900000D03*
X111450000Y-103100000D03*
X115900000Y-104000000D03*
X108200000Y-112800000D03*
X109650000Y-103100000D03*
X113250000Y-103100000D03*
X110350000Y-107500000D03*
X111050000Y-116000000D03*
X110200000Y-114100000D03*
X108700000Y-104000000D03*
X109650000Y-104900000D03*
X107850000Y-103100000D03*
X111800000Y-107500000D03*
X108200000Y-111300000D03*
X111650000Y-114100000D03*
X111600000Y-112800000D03*
X109300000Y-119100000D03*
X111650000Y-110200000D03*
X111800000Y-115250000D03*
X111600000Y-119800000D03*
X112300000Y-104000000D03*
X110400000Y-106300000D03*
X109300000Y-120600000D03*
X110550000Y-110200000D03*
X110000000Y-112800000D03*
X110050000Y-119850000D03*
X107650000Y-119100000D03*
X116850000Y-103100000D03*
X109100000Y-112050000D03*
X107850000Y-104900000D03*
%TO.N,/VM*%
X114825000Y-112175000D03*
X116775000Y-118950000D03*
X117250000Y-112250000D03*
X115500000Y-111325000D03*
X113025000Y-118875000D03*
X114300000Y-111300000D03*
X117250000Y-119850000D03*
X114300000Y-118900000D03*
X114300000Y-117925000D03*
X115975000Y-119825000D03*
X113025000Y-111275000D03*
X113025000Y-110300000D03*
X114825000Y-119775000D03*
X113550000Y-119750000D03*
X115500000Y-118925000D03*
X116775000Y-111350000D03*
X115975000Y-112225000D03*
X113025000Y-117900000D03*
X113550000Y-112150000D03*
X114300000Y-110325000D03*
%TO.N,/VREF*%
X106950000Y-118050000D03*
X107000000Y-110450000D03*
%TD*%
D14*
%TO.N,/VREF*%
X107020000Y-111730000D02*
X107200000Y-111550000D01*
X107000000Y-110450000D02*
X107200000Y-110650000D01*
X105650000Y-111730000D02*
X107020000Y-111730000D01*
X106950000Y-118050000D02*
X107050000Y-117950000D01*
X107030000Y-111730000D02*
X107200000Y-111900000D01*
X107200000Y-117800000D02*
X106950000Y-118050000D01*
X107200000Y-110650000D02*
X107200000Y-111550000D01*
X107200000Y-111550000D02*
X107200000Y-111900000D01*
X107020000Y-111730000D02*
X107030000Y-111730000D01*
X107050000Y-117950000D02*
X107200000Y-117950000D01*
X107200000Y-111900000D02*
X107200000Y-117800000D01*
%TD*%
%TA.AperFunction,Conductor*%
%TO.N,/OUT_B2*%
G36*
X120146288Y-105518954D02*
G01*
X120227070Y-105572930D01*
X120281046Y-105653712D01*
X120300000Y-105749000D01*
X120300000Y-107546110D01*
X120281046Y-107641398D01*
X120227070Y-107722180D01*
X120162350Y-107768824D01*
X120153776Y-107773111D01*
X120060073Y-107798767D01*
X120039867Y-107799380D01*
X115335174Y-107750888D01*
X115240086Y-107730953D01*
X115181810Y-107696032D01*
X115093070Y-107624754D01*
X115030649Y-107550305D01*
X115001469Y-107457635D01*
X115000000Y-107430623D01*
X115000000Y-107000001D01*
X115000000Y-107000000D01*
X114700000Y-106700000D01*
X114699999Y-106700000D01*
X112749000Y-106700000D01*
X112653712Y-106681046D01*
X112572930Y-106627070D01*
X112518954Y-106546288D01*
X112500000Y-106451000D01*
X112500000Y-106149724D01*
X112518954Y-106054436D01*
X112572930Y-105973654D01*
X112653712Y-105919678D01*
X112749000Y-105900724D01*
X112749489Y-105900724D01*
X117784650Y-105915350D01*
X117955860Y-105744139D01*
X118127071Y-105572930D01*
X118207852Y-105518954D01*
X118303140Y-105500000D01*
X120051000Y-105500000D01*
X120146288Y-105518954D01*
G37*
%TD.AperFunction*%
%TD*%
%TA.AperFunction,Conductor*%
%TO.N,/VM*%
G36*
X114646288Y-109818954D02*
G01*
X114727070Y-109872930D01*
X114781046Y-109953712D01*
X114800000Y-110049000D01*
X114800000Y-110600000D01*
X114900000Y-110700000D01*
X119851000Y-110700000D01*
X119946288Y-110718954D01*
X120027070Y-110772930D01*
X120081046Y-110853712D01*
X120100000Y-110949000D01*
X120100000Y-112701000D01*
X120081046Y-112796288D01*
X120027070Y-112877070D01*
X119946288Y-112931046D01*
X119851000Y-112950000D01*
X113653140Y-112950000D01*
X113557852Y-112931046D01*
X113477070Y-112877070D01*
X112672930Y-112072930D01*
X112618954Y-111992148D01*
X112600000Y-111896860D01*
X112600000Y-110049000D01*
X112618954Y-109953712D01*
X112672930Y-109872930D01*
X112753712Y-109818954D01*
X112849000Y-109800000D01*
X114551000Y-109800000D01*
X114646288Y-109818954D01*
G37*
%TD.AperFunction*%
%TD*%
%TA.AperFunction,Conductor*%
%TO.N,GND*%
G36*
X120393039Y-102269685D02*
G01*
X120438794Y-102322489D01*
X120450000Y-102374000D01*
X120450000Y-105133872D01*
X120430315Y-105200911D01*
X120377511Y-105246666D01*
X120308353Y-105256610D01*
X120279873Y-105248973D01*
X120205889Y-105219324D01*
X120205883Y-105219322D01*
X120110598Y-105200369D01*
X120062738Y-105195656D01*
X120051000Y-105194500D01*
X118303140Y-105194500D01*
X118291402Y-105195656D01*
X118243542Y-105200369D01*
X118243540Y-105200369D01*
X118148268Y-105219320D01*
X118141346Y-105220780D01*
X118057597Y-105256610D01*
X118038129Y-105264939D01*
X118038124Y-105264941D01*
X118038122Y-105264942D01*
X117957341Y-105318918D01*
X117911056Y-105356903D01*
X117911051Y-105356908D01*
X117739840Y-105528117D01*
X117739837Y-105528119D01*
X117739832Y-105528123D01*
X117694941Y-105573014D01*
X117633618Y-105606499D01*
X117606901Y-105609331D01*
X117470978Y-105608936D01*
X117413713Y-105594733D01*
X117393756Y-105584259D01*
X117393753Y-105584258D01*
X117228587Y-105543549D01*
X117058475Y-105543549D01*
X116893306Y-105584259D01*
X116876948Y-105592843D01*
X116818970Y-105607041D01*
X116408851Y-105605851D01*
X116351584Y-105591648D01*
X116337505Y-105584258D01*
X116172337Y-105543549D01*
X116002225Y-105543549D01*
X115837053Y-105584259D01*
X115826513Y-105589791D01*
X115768534Y-105603990D01*
X115346723Y-105602766D01*
X115289457Y-105588563D01*
X115281256Y-105584259D01*
X115281253Y-105584258D01*
X115116087Y-105543549D01*
X114945975Y-105543549D01*
X114780803Y-105584259D01*
X114776073Y-105586742D01*
X114718097Y-105600939D01*
X114284595Y-105599681D01*
X114232114Y-105586664D01*
X114232018Y-105586918D01*
X114229905Y-105586116D01*
X114227327Y-105585477D01*
X114225006Y-105584259D01*
X114225005Y-105584258D01*
X114225004Y-105584258D01*
X114059837Y-105543549D01*
X113889725Y-105543549D01*
X113724555Y-105584259D01*
X113717545Y-105586918D01*
X113717113Y-105585780D01*
X113667661Y-105597888D01*
X113222467Y-105596596D01*
X113176428Y-105585176D01*
X113175768Y-105586918D01*
X113168758Y-105584259D01*
X113003587Y-105543549D01*
X112833475Y-105543549D01*
X112668304Y-105584259D01*
X112619362Y-105609945D01*
X112592949Y-105619457D01*
X112593016Y-105619669D01*
X112587674Y-105621356D01*
X112587349Y-105621474D01*
X112587212Y-105621502D01*
X112587211Y-105621503D01*
X112483987Y-105665662D01*
X112403152Y-105719674D01*
X112397382Y-105723626D01*
X112397378Y-105723629D01*
X112318913Y-105803930D01*
X112264921Y-105884737D01*
X112261090Y-105890618D01*
X112261087Y-105890624D01*
X112219324Y-105994834D01*
X112219322Y-105994840D01*
X112200369Y-106090124D01*
X112200369Y-106090126D01*
X112194500Y-106149726D01*
X112194500Y-106450997D01*
X112200369Y-106510597D01*
X112200369Y-106510599D01*
X112219322Y-106605880D01*
X112220779Y-106612788D01*
X112264939Y-106716012D01*
X112264938Y-106716012D01*
X112318950Y-106796847D01*
X112322902Y-106802617D01*
X112322905Y-106802621D01*
X112403205Y-106881085D01*
X112483987Y-106935061D01*
X112489898Y-106938912D01*
X112594112Y-106980676D01*
X112594114Y-106980676D01*
X112594116Y-106980677D01*
X112642400Y-106990281D01*
X112689400Y-106999630D01*
X112749000Y-107005500D01*
X114522096Y-107005500D01*
X114589135Y-107025185D01*
X114609777Y-107041819D01*
X114658181Y-107090223D01*
X114691666Y-107151546D01*
X114694500Y-107177904D01*
X114694500Y-107430626D01*
X114694951Y-107447212D01*
X114696419Y-107474213D01*
X114696420Y-107474224D01*
X114710074Y-107549393D01*
X114739256Y-107642069D01*
X114742604Y-107652286D01*
X114744770Y-107722122D01*
X114708835Y-107782043D01*
X114693657Y-107793995D01*
X114659321Y-107816936D01*
X114613020Y-107854934D01*
X114559776Y-107908180D01*
X114498453Y-107941666D01*
X114472094Y-107944500D01*
X112749000Y-107944500D01*
X112737262Y-107945656D01*
X112689402Y-107950369D01*
X112689400Y-107950369D01*
X112594119Y-107969322D01*
X112587211Y-107970779D01*
X112483987Y-108014938D01*
X112403152Y-108068950D01*
X112397382Y-108072902D01*
X112397378Y-108072905D01*
X112318913Y-108153206D01*
X112264921Y-108234013D01*
X112261090Y-108239894D01*
X112261087Y-108239900D01*
X112219324Y-108344110D01*
X112219322Y-108344116D01*
X112200369Y-108439400D01*
X112200369Y-108439402D01*
X112194500Y-108499002D01*
X112194500Y-108838460D01*
X112195055Y-108856866D01*
X112196872Y-108886906D01*
X112197041Y-108888759D01*
X112197042Y-108911232D01*
X112196874Y-108913071D01*
X112195056Y-108943121D01*
X112194500Y-108961535D01*
X112194500Y-109200997D01*
X112200369Y-109260597D01*
X112200369Y-109260599D01*
X112219322Y-109355880D01*
X112220779Y-109362788D01*
X112264939Y-109466012D01*
X112264938Y-109466012D01*
X112318950Y-109546847D01*
X112322902Y-109552617D01*
X112322905Y-109552621D01*
X112368216Y-109596896D01*
X112402408Y-109657828D01*
X112398229Y-109727573D01*
X112384659Y-109754472D01*
X112364922Y-109784012D01*
X112361090Y-109789894D01*
X112361087Y-109789900D01*
X112319324Y-109894110D01*
X112319322Y-109894116D01*
X112300369Y-109989400D01*
X112300369Y-109989402D01*
X112294500Y-110049002D01*
X112294500Y-111896857D01*
X112300369Y-111956457D01*
X112300369Y-111956459D01*
X112319322Y-112051740D01*
X112320779Y-112058648D01*
X112364939Y-112161872D01*
X112364939Y-112161874D01*
X112401169Y-112216096D01*
X112417609Y-112240701D01*
X112418918Y-112242659D01*
X112456913Y-112288956D01*
X112904562Y-112736605D01*
X112938047Y-112797928D01*
X112933063Y-112867620D01*
X112891191Y-112923553D01*
X112828906Y-112947701D01*
X112789400Y-112951550D01*
X112789390Y-112951551D01*
X112789385Y-112951552D01*
X112694102Y-112970505D01*
X112687211Y-112971959D01*
X112583987Y-113016118D01*
X112503152Y-113070130D01*
X112497382Y-113074082D01*
X112497378Y-113074085D01*
X112418913Y-113154386D01*
X112364921Y-113235193D01*
X112361090Y-113241074D01*
X112361087Y-113241080D01*
X112319324Y-113345290D01*
X112319322Y-113345296D01*
X112300369Y-113440580D01*
X112300369Y-113440582D01*
X112294500Y-113500182D01*
X112294500Y-114450997D01*
X112300369Y-114510597D01*
X112300369Y-114510599D01*
X112319322Y-114605880D01*
X112320779Y-114612788D01*
X112364939Y-114716012D01*
X112364938Y-114716012D01*
X112364939Y-114716013D01*
X112408161Y-114780701D01*
X112418950Y-114796847D01*
X112422902Y-114802617D01*
X112422905Y-114802621D01*
X112468470Y-114847144D01*
X112503205Y-114881085D01*
X112583987Y-114935061D01*
X112589898Y-114938912D01*
X112694112Y-114980676D01*
X112694114Y-114980676D01*
X112694116Y-114980677D01*
X112742400Y-114990281D01*
X112789400Y-114999630D01*
X112849000Y-115005500D01*
X114670500Y-115005500D01*
X114737539Y-115025185D01*
X114783294Y-115077989D01*
X114794131Y-115127805D01*
X114794413Y-115127795D01*
X114794471Y-115129370D01*
X114794500Y-115129500D01*
X114794500Y-115130115D01*
X114797899Y-115175547D01*
X114797903Y-115175584D01*
X114808929Y-115248851D01*
X114808931Y-115248860D01*
X114842207Y-115348533D01*
X114872852Y-115405292D01*
X114887380Y-115473634D01*
X114862653Y-115538982D01*
X114832638Y-115567299D01*
X114827102Y-115570998D01*
X114823212Y-115573597D01*
X114756538Y-115594480D01*
X114754315Y-115594500D01*
X112849000Y-115594500D01*
X112837262Y-115595656D01*
X112789402Y-115600369D01*
X112789400Y-115600369D01*
X112694119Y-115619322D01*
X112687211Y-115620779D01*
X112583987Y-115664938D01*
X112503152Y-115718950D01*
X112497382Y-115722902D01*
X112497378Y-115722905D01*
X112418913Y-115803206D01*
X112364921Y-115884013D01*
X112361090Y-115889894D01*
X112361087Y-115889900D01*
X112319324Y-115994110D01*
X112319322Y-115994116D01*
X112300369Y-116089400D01*
X112300369Y-116089402D01*
X112294500Y-116149002D01*
X112294500Y-116945497D01*
X112300369Y-117005097D01*
X112300369Y-117005099D01*
X112319322Y-117100380D01*
X112320779Y-117107288D01*
X112364938Y-117210512D01*
X112410272Y-117278359D01*
X112431149Y-117345036D01*
X112412664Y-117412416D01*
X112410273Y-117416138D01*
X112364908Y-117484033D01*
X112361090Y-117489894D01*
X112361087Y-117489900D01*
X112319324Y-117594110D01*
X112319322Y-117594116D01*
X112300369Y-117689400D01*
X112300369Y-117689402D01*
X112294500Y-117749002D01*
X112294500Y-119496857D01*
X112300369Y-119556457D01*
X112300369Y-119556459D01*
X112319322Y-119651740D01*
X112319911Y-119654534D01*
X112320780Y-119658651D01*
X112322938Y-119663696D01*
X112364939Y-119761872D01*
X112364939Y-119761874D01*
X112418918Y-119842659D01*
X112456913Y-119888956D01*
X113211043Y-120643086D01*
X113211048Y-120643090D01*
X113211049Y-120643091D01*
X113230650Y-120659177D01*
X113252485Y-120677097D01*
X113257345Y-120681085D01*
X113338127Y-120735061D01*
X113344038Y-120738912D01*
X113448252Y-120780676D01*
X113448254Y-120780676D01*
X113448256Y-120780677D01*
X113496540Y-120790281D01*
X113543540Y-120799630D01*
X113603140Y-120805500D01*
X113603142Y-120805500D01*
X119850998Y-120805500D01*
X119851000Y-120805500D01*
X119910600Y-120799630D01*
X120005888Y-120780676D01*
X120012791Y-120779220D01*
X120116013Y-120735061D01*
X120196795Y-120681085D01*
X120202620Y-120677095D01*
X120237311Y-120641592D01*
X120298242Y-120607401D01*
X120367986Y-120611579D01*
X120424401Y-120652800D01*
X120449573Y-120717977D01*
X120450000Y-120728254D01*
X120450000Y-121126000D01*
X120430315Y-121193039D01*
X120377511Y-121238794D01*
X120326000Y-121250000D01*
X104274000Y-121250000D01*
X104206961Y-121230315D01*
X104161206Y-121177511D01*
X104150000Y-121126000D01*
X104150000Y-117443439D01*
X104169685Y-117376400D01*
X104222489Y-117330645D01*
X104291647Y-117320701D01*
X104355203Y-117349726D01*
X104384485Y-117387144D01*
X104437715Y-117491614D01*
X104558028Y-117657213D01*
X104702786Y-117801971D01*
X104857749Y-117914556D01*
X104868390Y-117922287D01*
X104984607Y-117981503D01*
X105050776Y-118015218D01*
X105050778Y-118015218D01*
X105050781Y-118015220D01*
X105155137Y-118049127D01*
X105245465Y-118078477D01*
X105346557Y-118094488D01*
X105447648Y-118110500D01*
X105447649Y-118110500D01*
X105852351Y-118110500D01*
X105852352Y-118110500D01*
X106054534Y-118078477D01*
X106097221Y-118064606D01*
X106167059Y-118062612D01*
X106226892Y-118098692D01*
X106257721Y-118161392D01*
X106258633Y-118167591D01*
X106264859Y-118218868D01*
X106264860Y-118218874D01*
X106325182Y-118377931D01*
X106370864Y-118444112D01*
X106421817Y-118517929D01*
X106513328Y-118599000D01*
X106549150Y-118630736D01*
X106699773Y-118709789D01*
X106699775Y-118709790D01*
X106864944Y-118750500D01*
X107035056Y-118750500D01*
X107200225Y-118709790D01*
X107279692Y-118668081D01*
X107350849Y-118630736D01*
X107350850Y-118630734D01*
X107350852Y-118630734D01*
X107478183Y-118517929D01*
X107574818Y-118377930D01*
X107635140Y-118218872D01*
X107655645Y-118050000D01*
X107653669Y-118033727D01*
X107653757Y-118017755D01*
X107652900Y-118017755D01*
X107652900Y-117882247D01*
X107653008Y-117882247D01*
X107653008Y-117867753D01*
X107652900Y-117867753D01*
X107652900Y-110726605D01*
X107660957Y-110682636D01*
X107685140Y-110618872D01*
X107705645Y-110450000D01*
X107685140Y-110281128D01*
X107624818Y-110122070D01*
X107528183Y-109982071D01*
X107428895Y-109894110D01*
X107400849Y-109869263D01*
X107250226Y-109790210D01*
X107077773Y-109747705D01*
X107078467Y-109744889D01*
X107026611Y-109722540D01*
X106987584Y-109664587D01*
X106986083Y-109594733D01*
X106987844Y-109588810D01*
X107018477Y-109494534D01*
X107050500Y-109292352D01*
X107050500Y-109087648D01*
X107027609Y-108943121D01*
X107018477Y-108885465D01*
X106955218Y-108690776D01*
X106915515Y-108612855D01*
X106862287Y-108508390D01*
X106812165Y-108439402D01*
X106741971Y-108342786D01*
X106597213Y-108198028D01*
X106431614Y-108077715D01*
X106414343Y-108068915D01*
X106338917Y-108030483D01*
X106288123Y-107982511D01*
X106271328Y-107914690D01*
X106293865Y-107848555D01*
X106338917Y-107809516D01*
X106431610Y-107762287D01*
X106583015Y-107652286D01*
X106597213Y-107641971D01*
X106597215Y-107641968D01*
X106597219Y-107641966D01*
X106741966Y-107497219D01*
X106741968Y-107497215D01*
X106741971Y-107497213D01*
X106794732Y-107424590D01*
X106862287Y-107331610D01*
X106955220Y-107149219D01*
X107018477Y-106954534D01*
X107050500Y-106752352D01*
X107050500Y-106547648D01*
X107018477Y-106345466D01*
X106955220Y-106150781D01*
X106955218Y-106150778D01*
X106955218Y-106150776D01*
X106915515Y-106072855D01*
X106862287Y-105968390D01*
X106854556Y-105957749D01*
X106741971Y-105802786D01*
X106597213Y-105658028D01*
X106431613Y-105537715D01*
X106431612Y-105537714D01*
X106431610Y-105537713D01*
X106374653Y-105508691D01*
X106249223Y-105444781D01*
X106054534Y-105381522D01*
X105879995Y-105353878D01*
X105852352Y-105349500D01*
X105447648Y-105349500D01*
X105423329Y-105353351D01*
X105245465Y-105381522D01*
X105050776Y-105444781D01*
X104868386Y-105537715D01*
X104702786Y-105658028D01*
X104558028Y-105802786D01*
X104437715Y-105968386D01*
X104384485Y-106072855D01*
X104336510Y-106123651D01*
X104268689Y-106140446D01*
X104202554Y-106117908D01*
X104159103Y-106063193D01*
X104150000Y-106016560D01*
X104150000Y-102374000D01*
X104169685Y-102306961D01*
X104222489Y-102261206D01*
X104274000Y-102250000D01*
X120326000Y-102250000D01*
X120393039Y-102269685D01*
G37*
%TD.AperFunction*%
%TD*%
%TA.AperFunction,Conductor*%
%TO.N,/OUT_A1*%
G36*
X120174360Y-115725167D02*
G01*
X120255776Y-115778182D01*
X120310673Y-115858238D01*
X120328571Y-115900000D01*
X120329866Y-115903020D01*
X120349981Y-115998070D01*
X120350000Y-116001109D01*
X120350000Y-117839189D01*
X120331046Y-117934477D01*
X120277070Y-118015259D01*
X120196288Y-118069235D01*
X120101000Y-118088189D01*
X120017094Y-118072003D01*
X120016917Y-118072600D01*
X120010868Y-118070803D01*
X120008385Y-118070324D01*
X120005889Y-118069324D01*
X119910595Y-118050369D01*
X119851003Y-118044500D01*
X119851000Y-118044500D01*
X118758589Y-118044500D01*
X118758581Y-118044500D01*
X118722333Y-118046659D01*
X118663622Y-118053677D01*
X118571341Y-118079880D01*
X118571336Y-118079881D01*
X118483212Y-118120759D01*
X118483191Y-118120770D01*
X118459663Y-118134634D01*
X118446306Y-118141963D01*
X118258394Y-118237710D01*
X118258388Y-118237714D01*
X118248441Y-118244940D01*
X118238113Y-118252444D01*
X118149885Y-118293120D01*
X118091755Y-118300000D01*
X117714809Y-118300000D01*
X117619521Y-118281046D01*
X117540787Y-118229093D01*
X117479206Y-118168920D01*
X117479201Y-118168915D01*
X117398419Y-118114939D01*
X117392508Y-118111088D01*
X117288294Y-118069324D01*
X117288291Y-118069323D01*
X117288290Y-118069323D01*
X117193001Y-118050369D01*
X117133409Y-118044500D01*
X117133406Y-118044500D01*
X115354500Y-118044500D01*
X115259212Y-118025546D01*
X115178430Y-117971570D01*
X115124454Y-117890788D01*
X115105500Y-117795500D01*
X115105500Y-117749003D01*
X115105500Y-117749000D01*
X115099630Y-117689400D01*
X115080676Y-117594112D01*
X115079220Y-117587209D01*
X115070068Y-117565815D01*
X115050017Y-117470751D01*
X115050000Y-117467881D01*
X115050000Y-117450001D01*
X115050000Y-117450000D01*
X114850000Y-117250000D01*
X114849999Y-117250000D01*
X114830471Y-117250000D01*
X114737846Y-117232131D01*
X114705886Y-117219323D01*
X114610595Y-117200369D01*
X114551003Y-117194500D01*
X114551000Y-117194500D01*
X112849000Y-117194500D01*
X112753712Y-117175546D01*
X112672930Y-117121570D01*
X112618954Y-117040788D01*
X112600000Y-116945500D01*
X112600000Y-116149000D01*
X112618954Y-116053712D01*
X112672930Y-115972930D01*
X112753712Y-115918954D01*
X112849000Y-115900000D01*
X114899999Y-115900000D01*
X114900000Y-115900000D01*
X114931005Y-115868994D01*
X115011783Y-115815020D01*
X115097498Y-115796250D01*
X116215322Y-115753256D01*
X116221847Y-115753093D01*
X118882086Y-115721539D01*
X120078854Y-115707345D01*
X120174360Y-115725167D01*
G37*
%TD.AperFunction*%
%TD*%
%TA.AperFunction,Conductor*%
%TO.N,/VM*%
G36*
X114646288Y-117518954D02*
G01*
X114727070Y-117572930D01*
X114781046Y-117653712D01*
X114800000Y-117749000D01*
X114800000Y-118200000D01*
X114950000Y-118350000D01*
X117133406Y-118350000D01*
X117228694Y-118368954D01*
X117309476Y-118422930D01*
X117363452Y-118503712D01*
X117380938Y-118571998D01*
X117387424Y-118631460D01*
X117434192Y-118747657D01*
X117434192Y-118747658D01*
X117516152Y-118842370D01*
X117516155Y-118842372D01*
X117516156Y-118842373D01*
X117624433Y-118905344D01*
X117747290Y-118929745D01*
X117871413Y-118912932D01*
X117983352Y-118856727D01*
X118336332Y-118599000D01*
X118611757Y-118397900D01*
X118699891Y-118357017D01*
X118758589Y-118350000D01*
X119851000Y-118350000D01*
X119946288Y-118368954D01*
X120027070Y-118422930D01*
X120081046Y-118503712D01*
X120100000Y-118599000D01*
X120100000Y-120251000D01*
X120081046Y-120346288D01*
X120027070Y-120427070D01*
X119946288Y-120481046D01*
X119851000Y-120500000D01*
X113603140Y-120500000D01*
X113507852Y-120481046D01*
X113427070Y-120427070D01*
X112672930Y-119672930D01*
X112618954Y-119592148D01*
X112600000Y-119496860D01*
X112600000Y-117749000D01*
X112618954Y-117653712D01*
X112672930Y-117572930D01*
X112753712Y-117518954D01*
X112849000Y-117500000D01*
X114551000Y-117500000D01*
X114646288Y-117518954D01*
G37*
%TD.AperFunction*%
%TD*%
%TA.AperFunction,Conductor*%
%TO.N,/OUT_A2*%
G36*
X120246288Y-113218954D02*
G01*
X120327070Y-113272930D01*
X120381046Y-113353712D01*
X120400000Y-113449000D01*
X120400000Y-115151950D01*
X120381046Y-115247238D01*
X120327070Y-115328020D01*
X120246288Y-115381996D01*
X120153953Y-115400932D01*
X115416541Y-115457123D01*
X115321035Y-115439301D01*
X115239619Y-115386286D01*
X115221774Y-115366912D01*
X115157186Y-115288882D01*
X115111028Y-115203392D01*
X115100000Y-115130111D01*
X115100000Y-114800001D01*
X115100000Y-114800000D01*
X115000000Y-114700000D01*
X114999999Y-114700000D01*
X112849000Y-114700000D01*
X112753712Y-114681046D01*
X112672930Y-114627070D01*
X112618954Y-114546288D01*
X112600000Y-114451000D01*
X112600000Y-113500180D01*
X112618954Y-113404892D01*
X112672930Y-113324110D01*
X112753712Y-113270134D01*
X112849000Y-113251180D01*
X112849943Y-113251182D01*
X113635977Y-113254900D01*
X113647000Y-113255839D01*
X113647032Y-113255199D01*
X113653133Y-113255499D01*
X113653140Y-113255500D01*
X113653147Y-113255500D01*
X113762079Y-113255500D01*
X113763257Y-113255503D01*
X117884650Y-113275000D01*
X117884650Y-113274999D01*
X117884651Y-113275000D01*
X117942189Y-113266626D01*
X118000804Y-113258095D01*
X118036663Y-113255500D01*
X119850997Y-113255500D01*
X119851000Y-113255500D01*
X119910600Y-113249630D01*
X120005888Y-113230676D01*
X120012791Y-113229220D01*
X120034182Y-113220069D01*
X120129245Y-113200017D01*
X120132118Y-113200000D01*
X120151000Y-113200000D01*
X120246288Y-113218954D01*
G37*
%TD.AperFunction*%
%TD*%
%TA.AperFunction,Conductor*%
%TO.N,/OUT_B1*%
G36*
X115137601Y-108014366D02*
G01*
X115177401Y-108029953D01*
X115177404Y-108029953D01*
X115177405Y-108029954D01*
X115198085Y-108034289D01*
X115272489Y-108049888D01*
X115332025Y-108056372D01*
X120003567Y-108104522D01*
X120098654Y-108124457D01*
X120178875Y-108179263D01*
X120232016Y-108260597D01*
X120250000Y-108353509D01*
X120250000Y-110146860D01*
X120231046Y-110242148D01*
X120177070Y-110322930D01*
X120162379Y-110337621D01*
X120081597Y-110391597D01*
X119986309Y-110410551D01*
X119937734Y-110405767D01*
X119910597Y-110400369D01*
X119851003Y-110394500D01*
X119851000Y-110394500D01*
X115354500Y-110394500D01*
X115259212Y-110375546D01*
X115178430Y-110321570D01*
X115124454Y-110240788D01*
X115105500Y-110145500D01*
X115105500Y-110049003D01*
X115105500Y-110049000D01*
X115099630Y-109989400D01*
X115080676Y-109894112D01*
X115079220Y-109887209D01*
X115035061Y-109783987D01*
X114981085Y-109703205D01*
X114977095Y-109697380D01*
X114977092Y-109697377D01*
X114972876Y-109691222D01*
X114951172Y-109651173D01*
X114950000Y-109650001D01*
X114950000Y-109650000D01*
X114750000Y-109450000D01*
X114749999Y-109450000D01*
X112749000Y-109450000D01*
X112653712Y-109431046D01*
X112572930Y-109377070D01*
X112518954Y-109296288D01*
X112500000Y-109201000D01*
X112500000Y-108961549D01*
X112501816Y-108931533D01*
X112505645Y-108900000D01*
X112501815Y-108868455D01*
X112500000Y-108838444D01*
X112500000Y-108499000D01*
X112518954Y-108403712D01*
X112572930Y-108322930D01*
X112653712Y-108268954D01*
X112749000Y-108250000D01*
X114649999Y-108250000D01*
X114650000Y-108250000D01*
X114829048Y-108070951D01*
X114909827Y-108016978D01*
X115000322Y-107998070D01*
X115042021Y-107997268D01*
X115137601Y-108014366D01*
G37*
%TD.AperFunction*%
%TD*%
M02*
