%TF.GenerationSoftware,KiCad,Pcbnew,8.0.4*%
%TF.CreationDate,2024-09-08T17:57:52-03:00*%
%TF.ProjectId,PCBWay-Module_TB67H450FNG,50434257-6179-42d4-9d6f-64756c655f54,rev?*%
%TF.SameCoordinates,Original*%
%TF.FileFunction,Soldermask,Bot*%
%TF.FilePolarity,Negative*%
%FSLAX46Y46*%
G04 Gerber Fmt 4.6, Leading zero omitted, Abs format (unit mm)*
G04 Created by KiCad (PCBNEW 8.0.4) date 2024-09-08 17:57:52*
%MOMM*%
%LPD*%
G01*
G04 APERTURE LIST*
G04 APERTURE END LIST*
G36*
X105848017Y-118354815D02*
G01*
X106040285Y-118393060D01*
X106221397Y-118468079D01*
X106384393Y-118576990D01*
X106523010Y-118715607D01*
X106631921Y-118878603D01*
X106706940Y-119059715D01*
X106745185Y-119251983D01*
X106745185Y-119448017D01*
X106706940Y-119640285D01*
X106631921Y-119821397D01*
X106523010Y-119984393D01*
X106384393Y-120123010D01*
X106221397Y-120231921D01*
X106040285Y-120306940D01*
X105848017Y-120345185D01*
X105750000Y-120350000D01*
X105748749Y-120350000D01*
X105551251Y-120350000D01*
X105550000Y-120350000D01*
X105451983Y-120345185D01*
X105259715Y-120306940D01*
X105078603Y-120231921D01*
X104915607Y-120123010D01*
X104776990Y-119984393D01*
X104668079Y-119821397D01*
X104593060Y-119640285D01*
X104554815Y-119448017D01*
X104554815Y-119251983D01*
X104593060Y-119059715D01*
X104668079Y-118878603D01*
X104776990Y-118715607D01*
X104915607Y-118576990D01*
X105078603Y-118468079D01*
X105259715Y-118393060D01*
X105451983Y-118354815D01*
X105550000Y-118350000D01*
X105750000Y-118350000D01*
X105848017Y-118354815D01*
G37*
G36*
X119238017Y-118354815D02*
G01*
X119430285Y-118393060D01*
X119611397Y-118468079D01*
X119774393Y-118576990D01*
X119913010Y-118715607D01*
X120021921Y-118878603D01*
X120096940Y-119059715D01*
X120135185Y-119251983D01*
X120135185Y-119448017D01*
X120096940Y-119640285D01*
X120021921Y-119821397D01*
X119913010Y-119984393D01*
X119774393Y-120123010D01*
X119611397Y-120231921D01*
X119430285Y-120306940D01*
X119238017Y-120345185D01*
X119140000Y-120350000D01*
X119138749Y-120350000D01*
X118941251Y-120350000D01*
X118940000Y-120350000D01*
X118841983Y-120345185D01*
X118649715Y-120306940D01*
X118468603Y-120231921D01*
X118305607Y-120123010D01*
X118166990Y-119984393D01*
X118058079Y-119821397D01*
X117983060Y-119640285D01*
X117944815Y-119448017D01*
X117944815Y-119251983D01*
X117983060Y-119059715D01*
X118058079Y-118878603D01*
X118166990Y-118715607D01*
X118305607Y-118576990D01*
X118468603Y-118468079D01*
X118649715Y-118393060D01*
X118841983Y-118354815D01*
X118940000Y-118350000D01*
X119140000Y-118350000D01*
X119238017Y-118354815D01*
G37*
G36*
X105848017Y-115814815D02*
G01*
X106040285Y-115853060D01*
X106221397Y-115928079D01*
X106384393Y-116036990D01*
X106523010Y-116175607D01*
X106631921Y-116338603D01*
X106706940Y-116519715D01*
X106745185Y-116711983D01*
X106745185Y-116908017D01*
X106706940Y-117100285D01*
X106631921Y-117281397D01*
X106523010Y-117444393D01*
X106384393Y-117583010D01*
X106221397Y-117691921D01*
X106040285Y-117766940D01*
X105848017Y-117805185D01*
X105750000Y-117810000D01*
X105748749Y-117810000D01*
X105551251Y-117810000D01*
X105550000Y-117810000D01*
X105451983Y-117805185D01*
X105259715Y-117766940D01*
X105078603Y-117691921D01*
X104915607Y-117583010D01*
X104776990Y-117444393D01*
X104668079Y-117281397D01*
X104593060Y-117100285D01*
X104554815Y-116908017D01*
X104554815Y-116711983D01*
X104593060Y-116519715D01*
X104668079Y-116338603D01*
X104776990Y-116175607D01*
X104915607Y-116036990D01*
X105078603Y-115928079D01*
X105259715Y-115853060D01*
X105451983Y-115814815D01*
X105550000Y-115810000D01*
X105750000Y-115810000D01*
X105848017Y-115814815D01*
G37*
G36*
X119238017Y-115814815D02*
G01*
X119430285Y-115853060D01*
X119611397Y-115928079D01*
X119774393Y-116036990D01*
X119913010Y-116175607D01*
X120021921Y-116338603D01*
X120096940Y-116519715D01*
X120135185Y-116711983D01*
X120135185Y-116908017D01*
X120096940Y-117100285D01*
X120021921Y-117281397D01*
X119913010Y-117444393D01*
X119774393Y-117583010D01*
X119611397Y-117691921D01*
X119430285Y-117766940D01*
X119238017Y-117805185D01*
X119140000Y-117810000D01*
X119138749Y-117810000D01*
X118941251Y-117810000D01*
X118940000Y-117810000D01*
X118841983Y-117805185D01*
X118649715Y-117766940D01*
X118468603Y-117691921D01*
X118305607Y-117583010D01*
X118166990Y-117444393D01*
X118058079Y-117281397D01*
X117983060Y-117100285D01*
X117944815Y-116908017D01*
X117944815Y-116711983D01*
X117983060Y-116519715D01*
X118058079Y-116338603D01*
X118166990Y-116175607D01*
X118305607Y-116036990D01*
X118468603Y-115928079D01*
X118649715Y-115853060D01*
X118841983Y-115814815D01*
X118940000Y-115810000D01*
X119140000Y-115810000D01*
X119238017Y-115814815D01*
G37*
G36*
X105848017Y-113274815D02*
G01*
X106040285Y-113313060D01*
X106221397Y-113388079D01*
X106384393Y-113496990D01*
X106523010Y-113635607D01*
X106631921Y-113798603D01*
X106706940Y-113979715D01*
X106745185Y-114171983D01*
X106745185Y-114368017D01*
X106706940Y-114560285D01*
X106631921Y-114741397D01*
X106523010Y-114904393D01*
X106384393Y-115043010D01*
X106221397Y-115151921D01*
X106040285Y-115226940D01*
X105848017Y-115265185D01*
X105750000Y-115270000D01*
X105748749Y-115270000D01*
X105551251Y-115270000D01*
X105550000Y-115270000D01*
X105451983Y-115265185D01*
X105259715Y-115226940D01*
X105078603Y-115151921D01*
X104915607Y-115043010D01*
X104776990Y-114904393D01*
X104668079Y-114741397D01*
X104593060Y-114560285D01*
X104554815Y-114368017D01*
X104554815Y-114171983D01*
X104593060Y-113979715D01*
X104668079Y-113798603D01*
X104776990Y-113635607D01*
X104915607Y-113496990D01*
X105078603Y-113388079D01*
X105259715Y-113313060D01*
X105451983Y-113274815D01*
X105550000Y-113270000D01*
X105750000Y-113270000D01*
X105848017Y-113274815D01*
G37*
G36*
X119238017Y-113274815D02*
G01*
X119430285Y-113313060D01*
X119611397Y-113388079D01*
X119774393Y-113496990D01*
X119913010Y-113635607D01*
X120021921Y-113798603D01*
X120096940Y-113979715D01*
X120135185Y-114171983D01*
X120135185Y-114368017D01*
X120096940Y-114560285D01*
X120021921Y-114741397D01*
X119913010Y-114904393D01*
X119774393Y-115043010D01*
X119611397Y-115151921D01*
X119430285Y-115226940D01*
X119238017Y-115265185D01*
X119140000Y-115270000D01*
X119138749Y-115270000D01*
X118941251Y-115270000D01*
X118940000Y-115270000D01*
X118841983Y-115265185D01*
X118649715Y-115226940D01*
X118468603Y-115151921D01*
X118305607Y-115043010D01*
X118166990Y-114904393D01*
X118058079Y-114741397D01*
X117983060Y-114560285D01*
X117944815Y-114368017D01*
X117944815Y-114171983D01*
X117983060Y-113979715D01*
X118058079Y-113798603D01*
X118166990Y-113635607D01*
X118305607Y-113496990D01*
X118468603Y-113388079D01*
X118649715Y-113313060D01*
X118841983Y-113274815D01*
X118940000Y-113270000D01*
X119140000Y-113270000D01*
X119238017Y-113274815D01*
G37*
G36*
X105848017Y-110734815D02*
G01*
X106040285Y-110773060D01*
X106221397Y-110848079D01*
X106384393Y-110956990D01*
X106523010Y-111095607D01*
X106631921Y-111258603D01*
X106706940Y-111439715D01*
X106745185Y-111631983D01*
X106745185Y-111828017D01*
X106706940Y-112020285D01*
X106631921Y-112201397D01*
X106523010Y-112364393D01*
X106384393Y-112503010D01*
X106221397Y-112611921D01*
X106040285Y-112686940D01*
X105848017Y-112725185D01*
X105750000Y-112730000D01*
X105748749Y-112730000D01*
X105551251Y-112730000D01*
X105550000Y-112730000D01*
X105451983Y-112725185D01*
X105259715Y-112686940D01*
X105078603Y-112611921D01*
X104915607Y-112503010D01*
X104776990Y-112364393D01*
X104668079Y-112201397D01*
X104593060Y-112020285D01*
X104554815Y-111828017D01*
X104554815Y-111631983D01*
X104593060Y-111439715D01*
X104668079Y-111258603D01*
X104776990Y-111095607D01*
X104915607Y-110956990D01*
X105078603Y-110848079D01*
X105259715Y-110773060D01*
X105451983Y-110734815D01*
X105550000Y-110730000D01*
X105750000Y-110730000D01*
X105848017Y-110734815D01*
G37*
G36*
X119238017Y-110734815D02*
G01*
X119430285Y-110773060D01*
X119611397Y-110848079D01*
X119774393Y-110956990D01*
X119913010Y-111095607D01*
X120021921Y-111258603D01*
X120096940Y-111439715D01*
X120135185Y-111631983D01*
X120135185Y-111828017D01*
X120096940Y-112020285D01*
X120021921Y-112201397D01*
X119913010Y-112364393D01*
X119774393Y-112503010D01*
X119611397Y-112611921D01*
X119430285Y-112686940D01*
X119238017Y-112725185D01*
X119140000Y-112730000D01*
X119138749Y-112730000D01*
X118941251Y-112730000D01*
X118940000Y-112730000D01*
X118841983Y-112725185D01*
X118649715Y-112686940D01*
X118468603Y-112611921D01*
X118305607Y-112503010D01*
X118166990Y-112364393D01*
X118058079Y-112201397D01*
X117983060Y-112020285D01*
X117944815Y-111828017D01*
X117944815Y-111631983D01*
X117983060Y-111439715D01*
X118058079Y-111258603D01*
X118166990Y-111095607D01*
X118305607Y-110956990D01*
X118468603Y-110848079D01*
X118649715Y-110773060D01*
X118841983Y-110734815D01*
X118940000Y-110730000D01*
X119140000Y-110730000D01*
X119238017Y-110734815D01*
G37*
G36*
X105848017Y-108194815D02*
G01*
X106040285Y-108233060D01*
X106221397Y-108308079D01*
X106384393Y-108416990D01*
X106523010Y-108555607D01*
X106631921Y-108718603D01*
X106706940Y-108899715D01*
X106745185Y-109091983D01*
X106745185Y-109288017D01*
X106706940Y-109480285D01*
X106631921Y-109661397D01*
X106523010Y-109824393D01*
X106384393Y-109963010D01*
X106221397Y-110071921D01*
X106040285Y-110146940D01*
X105848017Y-110185185D01*
X105750000Y-110190000D01*
X105748749Y-110190000D01*
X105551251Y-110190000D01*
X105550000Y-110190000D01*
X105451983Y-110185185D01*
X105259715Y-110146940D01*
X105078603Y-110071921D01*
X104915607Y-109963010D01*
X104776990Y-109824393D01*
X104668079Y-109661397D01*
X104593060Y-109480285D01*
X104554815Y-109288017D01*
X104554815Y-109091983D01*
X104593060Y-108899715D01*
X104668079Y-108718603D01*
X104776990Y-108555607D01*
X104915607Y-108416990D01*
X105078603Y-108308079D01*
X105259715Y-108233060D01*
X105451983Y-108194815D01*
X105550000Y-108190000D01*
X105750000Y-108190000D01*
X105848017Y-108194815D01*
G37*
G36*
X119238017Y-108194815D02*
G01*
X119430285Y-108233060D01*
X119611397Y-108308079D01*
X119774393Y-108416990D01*
X119913010Y-108555607D01*
X120021921Y-108718603D01*
X120096940Y-108899715D01*
X120135185Y-109091983D01*
X120135185Y-109288017D01*
X120096940Y-109480285D01*
X120021921Y-109661397D01*
X119913010Y-109824393D01*
X119774393Y-109963010D01*
X119611397Y-110071921D01*
X119430285Y-110146940D01*
X119238017Y-110185185D01*
X119140000Y-110190000D01*
X119138749Y-110190000D01*
X118941251Y-110190000D01*
X118940000Y-110190000D01*
X118841983Y-110185185D01*
X118649715Y-110146940D01*
X118468603Y-110071921D01*
X118305607Y-109963010D01*
X118166990Y-109824393D01*
X118058079Y-109661397D01*
X117983060Y-109480285D01*
X117944815Y-109288017D01*
X117944815Y-109091983D01*
X117983060Y-108899715D01*
X118058079Y-108718603D01*
X118166990Y-108555607D01*
X118305607Y-108416990D01*
X118468603Y-108308079D01*
X118649715Y-108233060D01*
X118841983Y-108194815D01*
X118940000Y-108190000D01*
X119140000Y-108190000D01*
X119238017Y-108194815D01*
G37*
G36*
X105848017Y-105654815D02*
G01*
X106040285Y-105693060D01*
X106221397Y-105768079D01*
X106384393Y-105876990D01*
X106523010Y-106015607D01*
X106631921Y-106178603D01*
X106706940Y-106359715D01*
X106745185Y-106551983D01*
X106745185Y-106748017D01*
X106706940Y-106940285D01*
X106631921Y-107121397D01*
X106523010Y-107284393D01*
X106384393Y-107423010D01*
X106221397Y-107531921D01*
X106040285Y-107606940D01*
X105848017Y-107645185D01*
X105750000Y-107650000D01*
X105748749Y-107650000D01*
X105551251Y-107650000D01*
X105550000Y-107650000D01*
X105451983Y-107645185D01*
X105259715Y-107606940D01*
X105078603Y-107531921D01*
X104915607Y-107423010D01*
X104776990Y-107284393D01*
X104668079Y-107121397D01*
X104593060Y-106940285D01*
X104554815Y-106748017D01*
X104554815Y-106551983D01*
X104593060Y-106359715D01*
X104668079Y-106178603D01*
X104776990Y-106015607D01*
X104915607Y-105876990D01*
X105078603Y-105768079D01*
X105259715Y-105693060D01*
X105451983Y-105654815D01*
X105550000Y-105650000D01*
X105750000Y-105650000D01*
X105848017Y-105654815D01*
G37*
G36*
X119238017Y-105654815D02*
G01*
X119430285Y-105693060D01*
X119611397Y-105768079D01*
X119774393Y-105876990D01*
X119913010Y-106015607D01*
X120021921Y-106178603D01*
X120096940Y-106359715D01*
X120135185Y-106551983D01*
X120135185Y-106748017D01*
X120096940Y-106940285D01*
X120021921Y-107121397D01*
X119913010Y-107284393D01*
X119774393Y-107423010D01*
X119611397Y-107531921D01*
X119430285Y-107606940D01*
X119238017Y-107645185D01*
X119140000Y-107650000D01*
X119138749Y-107650000D01*
X118941251Y-107650000D01*
X118940000Y-107650000D01*
X118841983Y-107645185D01*
X118649715Y-107606940D01*
X118468603Y-107531921D01*
X118305607Y-107423010D01*
X118166990Y-107284393D01*
X118058079Y-107121397D01*
X117983060Y-106940285D01*
X117944815Y-106748017D01*
X117944815Y-106551983D01*
X117983060Y-106359715D01*
X118058079Y-106178603D01*
X118166990Y-106015607D01*
X118305607Y-105876990D01*
X118468603Y-105768079D01*
X118649715Y-105693060D01*
X118841983Y-105654815D01*
X118940000Y-105650000D01*
X119140000Y-105650000D01*
X119238017Y-105654815D01*
G37*
G36*
X106750000Y-105110000D02*
G01*
X104550000Y-105110000D01*
X104550000Y-103110000D01*
X106750000Y-103110000D01*
X106750000Y-105110000D01*
G37*
G36*
X120140000Y-105110000D02*
G01*
X117940000Y-105110000D01*
X117940000Y-103110000D01*
X120140000Y-103110000D01*
X120140000Y-105110000D01*
G37*
M02*
